<?xml version="1.0" encoding="UTF-8"?>
<svg version="1.1" xmlns="http://www.w3.org/2000/svg" width="163" height="77">
<path d="M0 0 C5.23872588 2.43226559 9.39841957 6.79683915 12 12 C12.48887732 17.80241278 12.85545438 23.15748286 10.375 28.5 C2.5001126 36.78935515 2.5001126 36.78935515 -2.828125 37.23828125 C-14.27725564 37.48660714 -14.27725564 37.48660714 -19 33 C-24.57311664 27.01462542 -25.35775858 23.31608821 -25.27734375 15.203125 C-24.78648725 9.5340781 -21.96215486 6.74372543 -17.875 3.1875 C-12.29318525 -1.05953297 -6.84815376 -0.5929499 0 0 Z " fill="#273A8D" transform="translate(25,20)"/>
<path d="M0 0 C3.40312738 1.05875074 6.01353231 2.00902154 9 4 C9.763125 3.34 10.52625 2.68 11.3125 2 C14 0 14 0 17 0 C17 0.66 17 1.32 17 2 C17.66 2 18.32 2 19 2 C20.06723961 5.46222615 20.10173486 8.64039266 20.0625 12.25 C20.05347656 13.32765625 20.04445313 14.4053125 20.03515625 15.515625 C20.02355469 16.33546875 20.01195313 17.1553125 20 18 C17.0703125 17.95117188 17.0703125 17.95117188 14.140625 17.90234375 C12.00413722 17.92284506 12.00413722 17.92284506 10.0234375 18.53125 C7.63384984 19.08482243 5.79885943 18.89081541 3.375 18.5625 C0.19673543 18.13976496 0.19673543 18.13976496 -3 18 C-3.02712153 16.083412 -3.04645097 14.1667127 -3.0625 12.25 C-3.07410156 11.18265625 -3.08570313 10.1153125 -3.09765625 9.015625 C-3.01510087 6.46631499 -2.74617558 4.42066409 -2 2 C-1.34 2 -0.68 2 0 2 C0 1.34 0 0.68 0 0 Z " fill="#EFF2FB" transform="translate(10,29)"/>
<path d="M0 0 C1.65 0 3.3 0 5 0 C5.66 3.3 6.32 6.6 7 10 C7.99 6.7 8.98 3.4 10 0 C11.65 0 13.3 0 15 0 C15.66 2.64 16.32 5.28 17 8 C17.33 8 17.66 8 18 8 C18.66 5.36 19.32 2.72 20 0 C21.32 0 22.64 0 24 0 C23.37968409 6.57534861 21.85102717 12.66692592 20 19 C18.35 19 16.7 19 15 19 C14.01 15.7 13.02 12.4 12 9 C11.01 12.3 10.02 15.6 9 19 C7.35 19 5.7 19 4 19 C2.68 12.73 1.36 6.46 0 0 Z " fill="#919DCE" transform="translate(103,30)"/>
<path d="M0 0 C10.37206478 -0.36607287 10.37206478 -0.36607287 12.8359375 1.0703125 C14.62609276 4.03788532 14.35855769 6.63651681 14.3125 10.0625 C14.30863281 11.31160156 14.30476563 12.56070313 14.30078125 13.84765625 C14 17 14 17 12 19 C7.98805634 19.27783543 4.02552638 19.0856495 0 19 C0 12.73 0 6.46 0 0 Z M4 4 C4 4.99 4 5.98 4 7 C5.65 7 7.3 7 9 7 C9 6.01 9 5.02 9 4 C7.35 4 5.7 4 4 4 Z M4 11 C4 12.32 4 13.64 4 15 C5.98 15 7.96 15 10 15 C9.67 13.68 9.34 12.36 9 11 C7.35 11 5.7 11 4 11 Z " fill="#919DCE" transform="translate(44,30)"/>
<path d="M0 0 C1.32 0 2.64 0 4 0 C4.33 2.97 4.66 5.94 5 9 C5.391875 8.34 5.78375 7.68 6.1875 7 C8 5 8 5 10.6875 4.75 C11.450625 4.8325 12.21375 4.915 13 5 C12.690625 5.5775 12.38125 6.155 12.0625 6.75 C10.61927636 9.7624662 10.61927636 9.7624662 10 13 C11.39092892 15.62387135 11.39092892 15.62387135 13 18 C13 18.66 13 19.32 13 20 C10.6875 20.3125 10.6875 20.3125 8 20 C6.1875 17.5 6.1875 17.5 5 15 C4.67 16.65 4.34 18.3 4 20 C2.68 20 1.36 20 0 20 C0 13.4 0 6.8 0 0 Z " fill="#919DCE" transform="translate(90,29)"/>
<path d="M0 0 C1.875 1.8125 1.875 1.8125 3 4 C3 5.32 3 6.64 3 8 C0.03 8 -2.94 8 -6 8 C-5.67 8.66 -5.34 9.32 -5 10 C-3.02 9.67 -1.04 9.34 1 9 C1 10.32 1 11.64 1 13 C0 14 0 14 -3.375 14.25 C-7 14 -7 14 -8.875 12.875 C-10.48998958 10.18335071 -10.87456746 8.13581361 -11 5 C-8.29584969 -0.7946078 -6.14496783 -1.63029759 0 0 Z M-6 3 C-6 3.66 -6 4.32 -6 5 C-4.68 5 -3.36 5 -2 5 C-2 4.34 -2 3.68 -2 3 C-3.32 3 -4.64 3 -6 3 Z " fill="#919DCE" transform="translate(159,35)"/>
<path d="M0 0 C2.3125 1.5625 2.3125 1.5625 4 4 C4.45674603 7.65396822 4.41282332 10.05293473 2.9375 13.4375 C1 15 1 15 -2.5 15.4375 C-6 15 -6 15 -7.875 13.8125 C-9.33551279 11.45945162 -9.80213778 9.7700711 -10 7 C-8.48052332 1.55520856 -5.76936069 -0.84429669 0 0 Z M-5 4 C-5 6.31 -5 8.62 -5 11 C-3.68 11 -2.36 11 -1 11 C0.00217064 7.41672247 0.00217064 7.41672247 -1 4 C-2.32 4 -3.64 4 -5 4 Z " fill="#919DCE" transform="translate(84,34)"/>
<path d="M0 0 C3.375 0.9375 3.375 0.9375 5.375 3.9375 C5.91968716 7.4461342 5.9952561 10.76995911 4.3125 13.9375 C1.24284865 15.52183618 -1.24181143 15.29998449 -4.625 14.9375 C-6.5625 13.9375 -6.5625 13.9375 -7.625 11.9375 C-8.3768797 5.17058271 -8.3768797 5.17058271 -6.0625 1.375 C-3.625 -0.0625 -3.625 -0.0625 0 0 Z M-2.625 3.9375 C-3.88972065 4.99179686 -3.88972065 4.99179686 -3.875 7.375 C-3.7925 8.220625 -3.71 9.06625 -3.625 9.9375 C-2.14 10.9275 -2.14 10.9275 -0.625 11.9375 C0.035 11.6075 0.695 11.2775 1.375 10.9375 C1.375 8.9575 1.375 6.9775 1.375 4.9375 C-0.57103274 4.34679986 -0.57103274 4.34679986 -2.625 3.9375 Z " fill="#919DCE" transform="translate(67.625,34.0625)"/>
<path d="M0 0 C0 0.99 0 1.98 0 3 C-2.49092811 4.24546405 -3.41080733 3.7767578 -6 3 C-6 3.66 -6 4.32 -6 5 C-5.21625 4.95875 -4.4325 4.9175 -3.625 4.875 C-1 5 -1 5 1 7 C1.25 9.5 1.25 9.5 1 12 C-1 14 -1 14 -4.4375 14.3125 C-8 14 -8 14 -9.9375 12.5 C-10.288125 12.005 -10.63875 11.51 -11 11 C-8 9 -8 9 -5 9 C-7.475 8.01 -7.475 8.01 -10 7 C-10.1875 4.125 -10.1875 4.125 -10 1 C-6.1496895 -1.56687367 -4.41430237 -0.83288724 0 0 Z " fill="#919DCE" transform="translate(146,35)"/>
<path d="M0 0 C1.32 0 2.64 0 4 0 C4 4.95 4 9.9 4 15 C2.68 15 1.36 15 0 15 C0 10.05 0 5.1 0 0 Z " fill="#919DCE" transform="translate(129,34)"/>
<path d="M0 0 C0.66 0.33 1.32 0.66 2 1 C1.67 4.96 1.34 8.92 1 13 C2.134375 13.12375 3.26875 13.2475 4.4375 13.375 C5.613125 13.58125 6.78875 13.7875 8 14 C8.33 14.66 8.66 15.32 9 16 C5.7 16 2.4 16 -1 16 C-1.02712153 14.083412 -1.04645097 12.1667127 -1.0625 10.25 C-1.07410156 9.18265625 -1.08570313 8.1153125 -1.09765625 7.015625 C-1.01510087 4.46631499 -0.74617558 2.42066409 0 0 Z " fill="#929ECE" transform="translate(8,31)"/>
<path d="M0 0 C2.05279359 4.10558718 2.2216942 5.80206685 2.125 10.25 C2.10695313 11.32765625 2.08890625 12.4053125 2.0703125 13.515625 C2.04710937 14.33546875 2.02390625 15.1553125 2 16 C-1.3 16 -4.6 16 -8 16 C-7.01 15.01 -6.02 14.02 -5 13 C-3.35 13 -1.7 13 0 13 C0 8.71 0 4.42 0 0 Z " fill="#919DCE" transform="translate(28,31)"/>
<path d="M0 0 C2.475 0.495 2.475 0.495 5 1 C4.67 1.99 4.34 2.98 4 4 C2.68 4 1.36 4 0 4 C0 2.68 0 1.36 0 0 Z " fill="#919DCE" transform="translate(129,29)"/>
</svg>
