<svg width="110" height="110" viewBox="0 0 110 110" fill="none" xmlns="http://www.w3.org/2000/svg">
<circle opacity="0.1" cx="55" cy="55" r="55" fill="#4C7B62"/>
<circle cx="55" cy="55" r="40" fill="#4C7B62"/>
<path d="M55 68.4375C47.5875 68.4375 41.5625 62.4125 41.5625 55C41.5625 47.5875 47.5875 41.5625 55 41.5625C62.4125 41.5625 68.4375 47.5875 68.4375 55C68.4375 62.4125 62.4125 68.4375 55 68.4375ZM55 43.4375C48.625 43.4375 43.4375 48.625 43.4375 55C43.4375 61.375 48.625 66.5625 55 66.5625C61.375 66.5625 66.5625 61.375 66.5625 55C66.5625 48.625 61.375 43.4375 55 43.4375Z" fill="white"/>
<path d="M53.2258 59.4745C52.9758 59.4745 52.7383 59.3745 52.5633 59.1995L49.0258 55.662C48.6633 55.2995 48.6633 54.6995 49.0258 54.337C49.3883 53.9745 49.9883 53.9745 50.3508 54.337L53.2258 57.212L59.6508 50.787C60.0133 50.4245 60.6133 50.4245 60.9758 50.787C61.3383 51.1495 61.3383 51.7495 60.9758 52.112L53.8883 59.1995C53.7133 59.3745 53.4758 59.4745 53.2258 59.4745Z" fill="white"/>
</svg>
