<?xml version="1.0" encoding="UTF-8"?>
<svg version="1.1" xmlns="http://www.w3.org/2000/svg" width="50" height="50">
<path d="M0 0 C4.31730413 0.47409648 6.33647461 3.03396703 9.25 6.0625 C10.14203125 6.98160156 11.0340625 7.90070312 11.953125 8.84765625 C12.62859375 9.55792969 13.3040625 10.26820312 14 11 C12.4700928 14.60561914 10.31303068 16.9859199 7.5625 19.75 C6.78003906 20.54921875 5.99757813 21.3484375 5.19140625 22.171875 C3 24 3 24 0 24 C1 20 1 20 7 14 C-2.57 13.67 -12.14 13.34 -22 13 C-22 12.34 -22 11.68 -22 11 C-12.43 10.67 -2.86 10.34 7 10 C4.69 7.69 2.38 5.38 0 3 C0 2.01 0 1.02 0 0 Z " fill="#996c32" transform="translate(29,13)"/>
</svg>
