<?xml version="1.0" encoding="UTF-8"?>
<svg version="1.1" xmlns="http://www.w3.org/2000/svg" width="512" height="512">
<path d="M0 0 C5.83280315 3.40007409 10.60348491 8.31131935 13.02734375 14.7265625 C14.5520088 21.85846678 15.01323859 30.52555345 10.98480695 36.89017451 C5.42777498 44.55248589 -1.63698878 51.22013189 -8.32691956 57.88467407 C-9.16765406 58.726263 -10.00838857 59.56785193 -10.87459987 60.43494356 C-13.17838772 62.7400809 -15.48437382 65.04299102 -17.7913605 67.34492612 C-20.28998676 69.8391959 -22.78568318 72.33639438 -25.28175354 74.83322144 C-29.59671625 79.14870611 -33.91349236 83.46236977 -38.23153877 87.77476883 C-44.47455112 94.00962162 -50.71476947 100.24726476 -56.95432984 106.48557191 C-67.07998167 116.60904019 -77.20786026 126.73027767 -87.3371582 136.85009766 C-97.17134405 146.67509129 -107.00446922 156.5011445 -116.83618164 166.32861328 C-117.44316423 166.93533314 -118.05014681 167.54205301 -118.67552281 168.16715832 C-121.72085488 171.21118526 -124.76616623 174.25523293 -127.81146729 177.2992909 C-153.03776781 202.51524054 -178.26769016 227.72756363 -203.5 252.9375 C-202.09710811 256.11171019 -200.44290178 258.24015172 -197.98822308 260.68140602 C-197.2558114 261.4147163 -196.52339973 262.14802657 -195.76879376 262.90355837 C-194.9609309 263.70218495 -194.15306804 264.50081153 -193.32072449 265.32363892 C-192.46499747 266.17754695 -191.60927045 267.03145499 -190.72761232 267.91123903 C-188.35101919 270.28086701 -185.97002726 272.64591524 -183.58713615 275.00919986 C-181.01826953 277.5591575 -178.45523185 280.11496123 -175.8915863 282.67016602 C-171.44738336 287.09835446 -166.99981423 291.52313832 -162.5502224 295.94591141 C-155.51403939 302.94017539 -148.48764855 309.94423074 -141.46272278 316.94979858 C-139.05851673 319.34712451 -136.65423481 321.74437433 -134.24992085 324.14159203 C-133.348593 325.04026239 -133.348593 325.04026239 -132.42905652 325.9570877 C-125.58855643 332.77709125 -118.74573268 339.59476152 -111.90209961 346.41162109 C-111.27651306 347.03476509 -110.65092652 347.65790908 -110.0063828 348.29993622 C-99.87475579 358.39158111 -89.73721523 368.47727048 -79.59835728 378.56164975 C-69.18511791 388.91941645 -58.7815493 399.28683231 -48.38602239 409.66237581 C-41.97633689 416.0590001 -35.5587863 422.44752442 -29.13083277 428.82579188 C-24.72304092 433.20081325 -20.3244203 437.58491725 -15.93282434 441.97619517 C-13.40084661 444.50740797 -10.86500038 447.03439147 -8.31794739 449.55044174 C-5.55169705 452.28321048 -2.80522355 455.03533456 -0.06022644 457.78945923 C0.74094425 458.57470148 1.54211495 459.35994373 2.36756355 460.16898119 C8.22306791 466.09347825 12.66449067 472.29796582 14.1640625 480.625 C14.06072307 489.38818398 12.817614 496.10710524 6.85546875 502.77734375 C-0.14527662 509.24078586 -6.4004202 510.27422047 -15.70703125 510.53125 C-25.87086635 508.94020681 -32.60067212 502.56017037 -39.59713745 495.47528076 C-40.5711955 494.50699441 -41.54633902 493.539799 -42.52246106 492.57359338 C-45.18278826 489.93401825 -47.82744216 487.27922361 -50.46962261 484.62150073 C-53.32900907 481.75075698 -56.20280039 478.89449372 -59.07472229 476.03630066 C-64.69077716 470.4424352 -70.29328403 464.83518949 -75.89099054 459.2229692 C-80.4415068 454.66114493 -84.99689944 450.10424392 -89.55578995 445.55078888 C-90.20549005 444.90185494 -90.85519015 444.25292101 -91.52457813 443.58432241 C-92.84458372 442.2659155 -94.16460049 440.94751979 -95.48462833 439.62913516 C-107.85068095 427.27732718 -120.20138468 414.91026315 -132.54686429 402.53789738 C-143.13423788 391.92818093 -153.73465951 381.33164943 -164.34472656 370.74462891 C-176.67542681 358.44070023 -188.99795737 346.12868313 -201.30760491 333.80368924 C-202.62076102 332.48894043 -203.93392756 331.17420204 -205.24710464 329.85947418 C-206.21618443 328.88923733 -206.21618443 328.88923733 -207.20484158 327.89939974 C-211.75252237 323.34740644 -216.30596974 318.80123138 -220.86169052 314.25728607 C-226.41458878 308.71842615 -231.95845856 303.17071462 -237.4910274 297.61154547 C-240.31264681 294.77680687 -243.1380768 291.94617351 -245.9745388 289.12627983 C-248.57336705 286.54240271 -251.16027395 283.94717073 -253.73834421 281.34258667 C-255.11045911 279.96228319 -256.49480532 278.59417139 -257.87961376 277.22660327 C-264.6359287 270.3629086 -269.07406833 263.91405918 -269.0625 254 C-269.08441406 252.89785156 -269.10632813 251.79570312 -269.12890625 250.66015625 C-267.41913056 240.53955855 -261.117971 233.83218716 -254.03778076 226.84036255 C-253.06949441 225.8663045 -252.102299 224.89116098 -251.13609338 223.91503894 C-248.49651825 221.25471174 -245.84172361 218.61005784 -243.18400073 215.96787739 C-240.31325698 213.10849093 -237.45699372 210.23469961 -234.59880066 207.36277771 C-229.0049352 201.74672284 -223.39768949 196.14421597 -217.7854692 190.54650946 C-213.22364493 185.9959932 -208.66674392 181.44060056 -204.11328888 176.88171005 C-203.46435494 176.23200995 -202.81542101 175.58230985 -202.14682241 174.91292187 C-200.8284155 173.59291628 -199.51001979 172.27289951 -198.19163516 170.95287167 C-185.83982718 158.58681905 -173.47276315 146.23611532 -161.10039738 133.89063571 C-150.49068093 123.30326212 -139.89414943 112.70284049 -129.30712891 102.09277344 C-117.00320023 89.76207319 -104.69118313 77.43954263 -92.36618924 65.12989509 C-91.05144043 63.81673898 -89.73670204 62.50357244 -88.42197418 61.19039536 C-87.45173733 60.22131557 -87.45173733 60.22131557 -86.46189974 59.23265842 C-81.90990644 54.68497763 -77.36373138 50.13153026 -72.81978607 45.57580948 C-67.28092615 40.02291122 -61.73321462 34.47904144 -56.17404547 28.9464726 C-53.33930687 26.12485319 -50.50867351 23.2994232 -47.68877983 20.4629612 C-45.10490271 17.86413295 -42.50967073 15.27722605 -39.90508667 12.69915579 C-38.52478319 11.32704089 -37.15667139 9.94269468 -35.78910327 8.55788624 C-25.80589017 -1.26914352 -13.68087284 -6.2317098 0 0 Z " fill="#000000" transform="translate(383.5,2.0625)"/>
</svg>
