<svg width="24" height="25" viewBox="0 0 24 25" fill="none" xmlns="http://www.w3.org/2000/svg">
<path d="M13.667 6.00521L12.0003 3.92188C16.6027 3.92188 20.3337 7.65284 20.3337 12.2552C20.3337 16.8576 16.6027 20.5885 12.0003 20.5885C7.39795 20.5885 3.66699 16.8576 3.66699 12.2552C3.66699 8.83801 5.72382 5.90121 8.66699 4.61528" stroke="#101828" stroke-width="1.25" stroke-linecap="round" stroke-linejoin="round"/>
<path d="M12.9102 13.9575C12.9858 14.2517 13.0237 14.5184 13.0237 14.7575C13.0237 14.9138 13.0095 15.0701 12.9811 15.2265C13.0568 15.3736 13.1702 15.4885 13.3215 15.5713C13.4728 15.654 13.6571 15.6954 13.8746 15.6954C14.196 15.6954 14.4513 15.5943 14.6404 15.392C14.8389 15.1805 14.9382 14.8632 14.9382 14.4402C14.9193 13.8058 14.6688 13.0839 14.1866 12.2747C13.7138 11.4655 13.0142 10.6334 12.0877 9.77818C11.284 10.6334 10.6837 11.4517 10.2866 12.2334C9.88948 13.0058 9.69094 13.6954 9.69094 14.3023C9.69094 15.2127 10.0313 15.6678 10.712 15.6678C11.0524 15.6678 11.3266 15.5713 11.5346 15.3782C11.7426 15.1759 11.8466 14.8862 11.8466 14.5092C11.8466 14.454 11.8371 14.3437 11.8182 14.1782L12.9102 13.9575ZM8.40039 14.3575C8.40039 13.5759 8.6273 12.7115 9.08112 11.7644C9.54439 10.8173 10.2157 9.87473 11.0949 8.9368L10.6269 8.57818L11.4778 7.46094C12.4989 8.23335 13.364 9.04255 14.0731 9.88852C14.7822 10.7253 15.3117 11.5391 15.6615 12.3299C16.0208 13.1207 16.2004 13.8471 16.2004 14.5092C16.2004 15.0425 16.0869 15.5023 15.86 15.8885C15.6426 16.2747 15.3495 16.569 14.9808 16.7713C14.6215 16.9644 14.2338 17.0609 13.8178 17.0609C13.5342 17.0609 13.26 17.0058 12.9953 16.8954C12.74 16.7759 12.5178 16.615 12.3288 16.4127C12.1208 16.615 11.8702 16.7713 11.5771 16.8816C11.2935 16.992 10.9957 17.0471 10.6837 17.0471C10.2866 17.0471 9.91312 16.946 9.5633 16.7437C9.21348 16.5322 8.92985 16.2242 8.71239 15.8196C8.50439 15.4058 8.40039 14.9184 8.40039 14.3575Z" fill="#101828"/>
</svg>
