<svg width="12" height="12" viewBox="0 0 12 12" fill="none" xmlns="http://www.w3.org/2000/svg">
<path d="M2 11H10" stroke="#262626" stroke-linecap="round"/>
<path d="M6.94403 1.83146L7.31478 1.46071C7.92906 0.84643 8.92501 0.84643 9.53929 1.46071C10.1536 2.07499 10.1536 3.07094 9.53929 3.68522L9.16854 4.05597M6.94403 1.83146C6.94403 1.83146 6.99037 2.61931 7.68553 3.31447C8.38069 4.00963 9.16854 4.05597 9.16854 4.05597M6.94403 1.83146L3.53553 5.23996C3.30466 5.47082 3.18923 5.58626 3.08996 5.71353C2.97285 5.86367 2.87245 6.02612 2.79054 6.19801C2.72109 6.34372 2.66947 6.49859 2.56622 6.80833L2.12872 8.12083M9.16854 4.05597L5.76004 7.46447C5.52918 7.69533 5.41374 7.81077 5.28647 7.91004C5.13633 8.02715 4.97388 8.12755 4.80199 8.20946C4.65628 8.27891 4.50141 8.33053 4.19167 8.43377L2.87917 8.87128M2.87917 8.87128L2.55834 8.97822C2.40591 9.02903 2.23786 8.98936 2.12425 8.87575C2.01064 8.76214 1.97097 8.59409 2.02178 8.44166L2.12872 8.12083M2.87917 8.87128L2.12872 8.12083" stroke="#262626"/>
</svg>
