<?xml version="1.0" encoding="UTF-8"?>
<svg version="1.1" xmlns="http://www.w3.org/2000/svg" width="512" height="512">
<path d="M0 0 C4.06711996 1.49575899 6.46801854 3.22776884 8.9375 6.8125 C10.656047 11.96814099 10.80052491 15.38082253 8.3653 20.30641729 C5.98577801 24.29021234 3.00467854 27.41235505 -0.2823 30.65982342 C-0.91289321 31.29477695 -1.54348642 31.92973049 -2.19318852 32.58392504 C-4.30723464 34.70891603 -6.43179398 36.82306778 -8.55647278 38.93742371 C-10.08999793 40.4744057 -11.62286852 42.01204103 -13.1551401 43.55027276 C-17.3672297 47.77489819 -21.58864044 51.99010082 -25.81164134 56.20381534 C-30.36450623 60.74990073 -34.90874014 65.30459945 -39.4540863 69.85820007 C-47.84459171 78.26186798 -56.24250617 86.6580946 -64.6436983 95.05107767 C-72.40480042 102.80463337 -80.16310863 110.5609711 -87.91864586 118.32009315 C-88.43307603 118.83475248 -88.9475062 119.34941181 -89.47752516 119.87966687 C-91.5657585 121.96883422 -93.65398125 124.05801217 -95.74218655 126.14720755 C-115.33154997 145.74574815 -134.92965208 165.3355294 -154.531676 184.92140631 C-171.94717295 202.32266643 -189.35489809 219.73166544 -206.75610352 237.1472168 C-226.30616784 256.71334471 -245.86106959 276.27461693 -265.42380255 295.82807904 C-267.50918019 297.91249453 -269.59454602 299.99692183 -271.67990685 302.08135414 C-272.19338086 302.59459093 -272.70685488 303.10782771 -273.23588871 303.63661712 C-280.99008329 311.38739916 -288.74056941 319.14187646 -296.48926735 326.89815331 C-305.29982656 335.71728701 -314.11586456 344.53090175 -322.93870548 353.33774921 C-327.44149983 357.83265041 -331.94184581 362.32993313 -336.43574142 366.8337326 C-340.54794459 370.95486133 -344.66698431 375.06902453 -348.79163524 379.17769376 C-350.28415181 380.6668535 -351.77413376 382.15855871 -353.26133797 383.65302386 C-355.28078339 385.68157232 -357.30921782 387.70068814 -359.34017658 389.7177 C-359.9174606 390.30200752 -360.49474462 390.88631504 -361.08952209 391.48832884 C-365.59512654 395.93217515 -370.0561157 399.5794451 -376.5 400.5 C-380.75253934 399.89249438 -383.69823065 398.75574031 -387 396 C-389.97893979 391.67573256 -390.79149626 388.18869768 -390 383 C-385.57569998 373.73898363 -377.03435978 366.65576836 -369.8515625 359.55859375 C-368.46942553 358.182061 -367.08795607 356.80485773 -365.7071228 355.42701721 C-362.09375516 351.82503319 -358.47146633 348.23215523 -354.84716797 344.64117432 C-351.14132015 340.96616785 -347.4440869 337.28251656 -343.74609375 333.59960938 C-336.50574476 326.39131 -329.25593026 319.19261257 -322 312 C-325.0111502 309.57578256 -328.01466094 307.23970348 -331.22265625 305.08203125 C-332.39187622 304.29119141 -332.39187622 304.29119141 -333.5847168 303.484375 C-334.40238525 302.93265625 -335.22005371 302.3809375 -336.0625 301.8125 C-352.3205595 290.7489498 -367.96882666 278.82507255 -382.375 265.4140625 C-383.77125261 264.13000876 -385.17389429 262.85175019 -386.61743164 261.62109375 C-392.93169468 256.2366452 -398.78108176 250.40502367 -404.64477539 244.54052734 C-406.42510252 242.76238228 -408.21328377 240.99240439 -410.00195312 239.22265625 C-433.17512839 216.16685626 -433.17512839 216.16685626 -434.25 200.3125 C-433.84611932 178.82604774 -412.0604551 162.98305286 -398.125 149 C-397.58547699 148.45770752 -397.04595398 147.91541504 -396.49008179 147.35668945 C-390.50783881 141.3520598 -384.47545655 135.47795124 -378 130 C-377.03578125 129.154375 -376.0715625 128.30875 -375.078125 127.4375 C-340.98859544 98.056469 -301.19483984 72.40796763 -258 59 C-257.17113281 58.73493652 -256.34226562 58.46987305 -255.48828125 58.19677734 C-237.62168878 52.5228346 -218.79222929 48.51150447 -200 48 C-199.29020996 47.97953613 -198.58041992 47.95907227 -197.84912109 47.93798828 C-171.05734567 47.2697127 -145.19632733 51.31578767 -119.75 59.75 C-118.59258301 60.1315625 -117.43516602 60.513125 -116.24267578 60.90625 C-108.67824466 63.50037085 -101.35400654 66.5082289 -94.01660156 69.68066406 C-93.04989532 70.09688019 -92.08318909 70.51309631 -91.08718872 70.94192505 C-88.72407872 71.95964141 -86.36170727 72.97903374 -84 74 C-83.13857895 73.13191711 -82.2771579 72.26383423 -81.38963318 71.3694458 C-73.26169023 63.18062866 -65.12579251 54.99978941 -56.98208523 46.82664871 C-52.79580703 42.62472973 -48.61235926 38.42007217 -44.43530273 34.20898438 C-40.40243005 30.14346241 -36.36222549 26.08536054 -32.31688118 22.03224945 C-30.77652904 20.48636387 -29.23881524 18.93784465 -27.703825 17.38663483 C-25.54967642 15.21063876 -23.38624832 13.04428457 -21.22045898 10.87988281 C-20.59107422 10.23971222 -19.96168945 9.59954163 -19.31323242 8.93997192 C-13.72572272 3.39095593 -8.33786596 -1.19112371 0 0 Z M-346 139 C-347.01449219 139.80050781 -348.02898437 140.60101563 -349.07421875 141.42578125 C-354.93201777 146.13040443 -360.48582313 151.10847302 -365.98046875 156.2265625 C-368.15599809 158.24859799 -370.38523964 160.19263881 -372.640625 162.125 C-377.64939194 166.49186095 -382.34966856 171.16360583 -387.0456543 175.86035156 C-388.55825498 177.37076113 -390.07869944 178.87296356 -391.59960938 180.375 C-401.89417199 189.41284915 -401.89417199 189.41284915 -407.32421875 201.125 C-405.471881 205.14659464 -402.91050952 207.87387422 -399.8125 211 C-399.16337646 211.67281006 -398.51425293 212.34562012 -397.84545898 213.03881836 C-395.57911447 215.37488043 -393.29122146 217.68833743 -391 220 C-390.09701172 220.91668457 -389.19402344 221.83336914 -388.26367188 222.77783203 C-375.01295855 236.29177038 -375.01295855 236.29177038 -361 249 C-360.03578125 249.845625 -359.0715625 250.69125 -358.078125 251.5625 C-344.82326993 262.98657399 -330.77400109 273.61512829 -316 283 C-314.8421385 283.76255121 -313.68460183 284.52559583 -312.52734375 285.2890625 C-311.35229267 286.04800669 -310.17652613 286.80584447 -309 287.5625 C-307.948125 288.24441406 -306.89625 288.92632812 -305.8125 289.62890625 C-303.21646871 291.21219221 -303.21646871 291.21219221 -301.00750732 290.74769592 C-297.53888879 289.45580926 -295.23852304 286.60037143 -292.703125 283.99609375 C-292.10949158 283.39821548 -291.51585815 282.80033722 -290.90423584 282.18434143 C-289.01232805 280.27565898 -287.13112501 278.3568046 -285.25 276.4375 C-283.96813998 275.14059164 -282.6855957 273.84435922 -281.40234375 272.54882812 C-278.26023928 269.37367043 -275.12769461 266.18935054 -272 263 C-275.48736886 256.69394939 -275.48736886 256.69394939 -279.0625 250.4375 C-292.34493874 226.87188289 -295.57472891 199.23393628 -289 173 C-281.32461015 146.20149771 -264.3832595 124.33070245 -240.10083008 110.56298828 C-216.09819721 97.3819916 -187.30738113 94.03809502 -160.89794922 101.60205078 C-148.81183021 105.43003865 -137.83095042 111.50142975 -127 118 C-119.74 110.74 -112.48 103.48 -105 96 C-107.66930576 93.33069424 -108.77045313 92.46213973 -112.0703125 91.1328125 C-112.87525146 90.80700195 -113.68019043 90.48119141 -114.50952148 90.14550781 C-115.37262939 89.80874023 -116.2357373 89.47197266 -117.125 89.125 C-118.02226807 88.77276367 -118.91953613 88.42052734 -119.84399414 88.05761719 C-201.19565552 56.67059126 -280.91803614 87.3125864 -346 139 Z M-242 144 C-242.91265625 144.77537109 -242.91265625 144.77537109 -243.84375 145.56640625 C-256.94089909 157.44313918 -265.39799474 176.51904013 -266.3203125 193.93359375 C-266.90070585 212.12984512 -262.68723587 226.14368599 -254 242 C-250.95907093 242.31583594 -250.95907093 242.31583594 -249.00664997 240.37579346 C-248.24248359 239.60886169 -247.4783172 238.84192993 -246.69099426 238.05175781 C-245.81179825 237.17668579 -244.93260223 236.30161377 -244.02676392 235.40002441 C-243.05521976 234.41786222 -242.08381957 233.43555759 -241.11254883 232.453125 C-240.08813307 231.42786336 -239.06305692 230.40326119 -238.03736877 229.37927246 C-235.24988537 226.59265197 -232.4717665 223.7968595 -229.69519258 220.99937439 C-226.79373848 218.0792027 -223.88382141 215.16748987 -220.97477722 212.25488281 C-215.46520719 206.73597783 -209.96333083 201.20946809 -204.46415299 195.68021011 C-198.20408887 189.38664706 -191.93553307 183.10157151 -185.66623652 176.81720734 C-172.7679949 163.88758387 -159.8804981 150.94729843 -147 138 C-157.06758824 127.55159196 -173.75356453 124.00068945 -187.84692383 123.52685547 C-208.22783994 123.32530006 -226.88137484 130.20707518 -242 144 Z " fill="#000000" transform="translate(446,56)"/>
<path d="M0 0 C4.08393223 2.17809719 7.47811381 5.01487186 11 8 C12.07734112 8.88897166 13.15549007 9.77696508 14.234375 10.6640625 C20.11546241 15.54104072 25.84331461 20.58600327 31.48828125 25.734375 C32.84444172 26.95766128 34.20649278 28.17512958 35.59936523 29.35644531 C41.91986458 34.74714119 47.77489949 40.58879321 53.64477539 46.45947266 C55.42510252 48.23761772 57.21328377 50.00759561 59.00195312 51.77734375 C82.17512839 74.83314374 82.17512839 74.83314374 83.25 90.6875 C82.84611932 112.17395226 61.0604551 128.01694714 47.125 142 C46.58547699 142.54229248 46.04595398 143.08458496 45.49008179 143.64331055 C39.50783881 149.6479402 33.47545655 155.52204876 27 161 C26.03578125 161.845625 25.0715625 162.69125 24.078125 163.5625 C-23.88900642 204.90433703 -86.0282147 241.2501744 -151 243 C-151.71124023 243.02046387 -152.42248047 243.04092773 -153.15527344 243.06201172 C-170.50962333 243.49497591 -187.20746304 241.90082824 -204.25 238.625 C-205.29760498 238.42817627 -206.34520996 238.23135254 -207.42456055 238.02856445 C-214.23386717 236.64694214 -221.07044807 235.11264892 -226 229.875 C-227.83569256 224.59738389 -227.91263676 219.25757515 -225.8125 214.0625 C-223.60562133 211.55122427 -222.11395357 210.28619821 -219 209 C-211.5239131 208.565518 -204.78754481 209.85344086 -197.5 211.4375 C-142.17734584 223.2639596 -86.59456894 206.00652884 -39.86328125 176.12890625 C-20.19715826 163.29696661 -1.85570171 149.08383567 15.48828125 133.265625 C16.87361167 132.0160268 18.26531241 130.77298526 19.68286133 129.56005859 C25.23330688 124.7984981 30.44867085 119.73751034 35.6184082 114.56689453 C37.05858417 113.12890988 38.50659698 111.69914367 39.95507812 110.26953125 C49.97443599 101.41613807 49.97443599 101.41613807 55.328125 89.87890625 C53.46185591 85.83349354 50.86715379 83.08276882 47.75 79.9375 C47.09829834 79.26211182 46.44659668 78.58672363 45.77514648 77.89086914 C43.53194825 75.57853747 41.26768635 73.28831419 39 71 C38.12939941 70.11570312 37.25879883 69.23140625 36.36181641 68.3203125 C23.54959121 55.26897854 23.54959121 55.26897854 10 43 C8.93217795 42.07565219 7.8644631 41.15118051 6.796875 40.2265625 C5.7824178 39.35800917 4.76677949 38.49083357 3.75 37.625 C3.20424316 37.1594873 2.65848633 36.69397461 2.09619141 36.21435547 C-2.60879776 32.24278711 -7.50576442 28.61925994 -12.5390625 25.0703125 C-15.85506771 22.28065732 -17.70968466 19.82158643 -18.3984375 15.5 C-18.31663218 6.77409868 -18.31663218 6.77409868 -15 3 C-10.6308479 -0.83955791 -5.51687213 -1.19966318 0 0 Z " fill="#000000" transform="translate(417,165)"/>
<path d="M0 0 C3.6682371 1.7736531 6.06771255 4.10616047 7.87109375 7.76953125 C13.99574837 29.18470294 6.45220416 54.69636612 -3.3125 73.75 C-16.53185857 97.15807817 -37.76603376 115.3223213 -63.75 122.9375 C-77.136148 126.60603796 -98.72539423 131.5347397 -112 125 C-115.55806707 122.44147378 -117.62020545 119.86364303 -118.50390625 115.52734375 C-118.76563549 109.92971524 -117.84809923 106.27566581 -114 102 C-110.72702964 99.9054067 -108.07493075 99.74915005 -104.23046875 99.7265625 C-102.53724487 99.70033813 -102.53724487 99.70033813 -100.80981445 99.67358398 C-99.61445068 99.65755127 -98.41908691 99.64151855 -97.1875 99.625 C-73.519314 98.97798747 -53.97611758 91.62437854 -37.375 74.375 C-26.60971704 61.91694286 -19.06076856 45.38273961 -18.7890625 28.78125 C-18.76070313 27.60175781 -18.73234375 26.42226563 -18.703125 25.20703125 C-18.65104488 22.73582932 -18.60677272 20.26445049 -18.5703125 17.79296875 C-18.539375 16.61347656 -18.5084375 15.43398437 -18.4765625 14.21875 C-18.45674316 13.14560547 -18.43692383 12.07246094 -18.41650391 10.96679688 C-17.81499261 6.68217477 -16.16316105 4.02217183 -12.9375 1.1875 C-8.54988223 -0.58621782 -4.65595074 -0.87027117 0 0 Z " fill="#000000" transform="translate(350,232)"/>
</svg>
