<?xml version="1.0" encoding="UTF-8"?>
<svg version="1.1" xmlns="http://www.w3.org/2000/svg" width="512" height="512">
<path d="M0 0 C0.84809235 -0.00350464 1.69618469 -0.00700928 2.56997681 -0.01062012 C5.35532982 -0.01937602 8.14042594 -0.01361005 10.92578125 -0.00683594 C12.87198942 -0.00818435 14.81819727 -0.01012636 16.7644043 -0.01263428 C20.836133 -0.01557722 24.90777374 -0.01131458 28.97949219 -0.00195312 C34.18797305 0.00944087 39.39624776 0.00287696 44.60472107 -0.00909805 C48.62139426 -0.01633904 52.63801891 -0.01401843 56.6546936 -0.00884247 C58.57475814 -0.00751217 60.49482715 -0.0091319 62.41488647 -0.01380157 C65.10222991 -0.01890364 67.78924351 -0.01110502 70.4765625 0 C71.26326324 -0.00404846 72.04996399 -0.00809692 72.86050415 -0.01226807 C78.85100143 0.03338935 84.17872117 0.54102832 88.93481445 4.5078125 C91.29021041 7.32080685 93.20833354 10.12790416 95.09375 13.27441406 C95.43743622 13.84352509 95.78112244 14.41263611 96.13522339 14.99899292 C97.23929513 16.83136768 98.33281232 18.66977412 99.42578125 20.50878906 C100.18299946 21.77195475 100.94073322 23.03481151 101.69897461 24.29736328 C103.55133875 27.38595465 105.39471681 30.47979815 107.23547363 33.57531738 C108.67506273 35.99203963 110.12509042 38.40246567 111.57421875 40.81347656 C112.48390133 42.33641954 113.3928327 43.85981165 114.30078125 45.38378906 C114.71158936 46.06860352 115.12239746 46.75341797 115.5456543 47.45898438 C118.23828125 52.02518372 118.23828125 52.02518372 118.23828125 54.25878906 C118.96935719 54.2541801 119.70043312 54.24957113 120.45366287 54.2448225 C138.28315495 54.13416189 156.11257803 54.05154462 173.94234085 53.9997282 C182.56487653 53.9740009 191.18718227 53.93895583 199.80957031 53.8815918 C207.32920645 53.83158834 214.84867598 53.7994583 222.36847377 53.78834659 C226.34629504 53.7818563 230.32363986 53.76671847 234.30130768 53.73013878 C238.05410758 53.69591039 241.80624002 53.6857893 245.55918121 53.69325066 C247.57514515 53.69124382 249.5910383 53.66449039 251.60681152 53.63668823 C263.71652204 53.70446091 273.25766061 57.23176526 282.0390625 65.64550781 C287.28294604 71.87669447 291.3578626 79.85642976 291.36970901 88.0849781 C291.37355016 89.08513549 291.3773913 90.08529288 291.38134885 91.11575806 C291.38048237 92.21758262 291.37961588 93.31940718 291.37872314 94.45462036 C291.38317983 96.20690943 291.38317983 96.20690943 291.38772655 97.99459827 C291.39491408 101.24270484 291.39758643 104.49077923 291.39832401 107.73889256 C291.40017365 111.24007321 291.40772065 114.74124237 291.41445923 118.24241638 C291.42804813 125.90168808 291.43406844 133.56095455 291.43846989 141.2202363 C291.44123197 146.00322868 291.44546932 150.78621904 291.44997406 155.56921005 C291.4621686 168.81258327 291.4724668 182.05595486 291.47584915 195.29933357 C291.47606872 196.14716858 291.47628828 196.99500359 291.4765145 197.86853056 C291.47673278 198.7183972 291.47695106 199.56826384 291.47717595 200.44388402 C291.47761942 202.16603987 291.47806598 203.88819571 291.47851562 205.61035156 C291.47873705 206.4646007 291.47895848 207.31884984 291.47918662 208.19898532 C291.48313283 222.03433875 291.50058061 235.86963945 291.52387515 249.70497252 C291.54759977 263.91049894 291.56005155 278.11599893 291.56121707 292.32154548 C291.56213333 300.29695434 291.56787303 308.27229455 291.58603668 316.24768448 C291.60145283 323.04066366 291.60654931 329.83355298 291.59829858 336.62654634 C291.5943971 340.09095574 291.59529682 343.55518426 291.60935593 347.0195713 C291.62204703 350.78022176 291.61621334 354.5404087 291.60577393 358.30105591 C291.61383033 359.38949614 291.62188673 360.47793637 291.63018727 361.59935963 C291.55902195 372.56927083 288.54167815 380.96881697 281.23828125 389.25878906 C270.9694563 398.30553898 259.7994254 400.42788527 246.44701004 400.38742352 C245.70186677 400.38917655 244.9567235 400.39092959 244.18900013 400.39273575 C241.70225479 400.39737263 239.21556851 400.39493624 236.7288208 400.39250183 C234.92380563 400.39437097 233.11879086 400.39667208 231.31377673 400.39936715 C226.36112494 400.40547885 221.40849004 400.4053523 216.45583534 400.40417278 C211.11145391 400.40396861 205.76707788 400.40948904 200.42269897 400.41423035 C189.95483296 400.42253399 179.48697259 400.42528506 169.01910356 400.42584272 C160.50967042 400.42631802 152.00023913 400.42837343 143.49080658 400.43154335 C119.36102134 400.44034911 95.23124055 400.44496284 71.10145369 400.44421288 C69.15051146 400.44415294 69.15051146 400.44415294 67.16015625 400.4440918 C65.85793872 400.44405092 64.55572118 400.44401004 63.21404251 400.44396792 C42.10944135 400.44356146 21.00485803 400.45313112 -0.09973797 400.46723016 C-21.7736883 400.48159523 -43.44762992 400.48850028 -65.12158513 400.48763639 C-77.2882864 400.48730446 -89.45496897 400.49004949 -101.62166595 400.50081444 C-111.98051106 400.50992114 -122.33932898 400.51209327 -132.69817635 400.50530501 C-137.98163281 400.5020407 -143.26503712 400.50198 -148.54848862 400.51065826 C-153.3895356 400.51852797 -158.23048911 400.51708697 -163.07153383 400.50837413 C-164.8184688 400.50684019 -166.56541076 400.50865129 -168.31233749 400.51423421 C-183.25403495 400.55880524 -195.54437543 399.67433022 -208.44921875 391.57128906 C-217.08038808 382.94011973 -221.06358422 373.7653949 -221.17227316 361.6413185 C-221.16694523 360.55901735 -221.16161731 359.4767162 -221.15612793 358.36161804 C-221.16221903 357.19041548 -221.16831014 356.01921292 -221.17458582 354.81251937 C-221.18829348 351.58366538 -221.18868559 348.35513704 -221.18321085 345.12626898 C-221.18052971 341.63533745 -221.19509272 338.14446979 -221.20730591 334.65356445 C-221.22831667 327.82274338 -221.23290326 320.99200727 -221.23111802 314.16115769 C-221.22980817 308.60606806 -221.2336259 303.05100484 -221.24104309 297.49592018 C-221.24314239 295.89313962 -221.24523999 294.29035906 -221.24733591 292.6875785 C-221.24837944 291.88971881 -221.24942297 291.09185912 -221.25049812 290.26982186 C-221.269383 275.19433981 -221.2683557 260.11890647 -221.26152879 245.04341749 C-221.2559549 231.26861879 -221.27677525 217.49400616 -221.30988926 203.71925094 C-221.34366777 189.55757666 -221.3587894 175.39599141 -221.35417223 161.23427612 C-221.3519317 153.29067933 -221.35710946 145.3472545 -221.38206482 137.40369225 C-221.40313184 130.64052871 -221.40661671 123.87763141 -221.38776523 117.11445674 C-221.37864028 113.66775072 -221.37736328 110.2215404 -221.39812088 106.77487373 C-221.41635072 103.02843743 -221.40353369 99.2833087 -221.38317871 95.53691101 C-221.39569656 94.46130202 -221.40821441 93.38569304 -221.42111158 92.27748984 C-221.3008579 81.90697144 -217.95650675 72.56479346 -210.7109375 65.00488281 C-200.31526117 55.69252346 -191.52055942 53.73703527 -177.76171875 54.25878906 C-177.81392578 53.08123047 -177.81392578 53.08123047 -177.8671875 51.87988281 C-178.0775603 43.71541462 -177.76837188 38.71644016 -172.26171875 32.38378906 C-168.44178172 29.13684258 -165.51108139 29.12486618 -160.65722656 29.08178711 C-159.39871887 29.06895187 -158.14021118 29.05611664 -156.84356689 29.04289246 C-155.46732986 29.03472367 -154.09108836 29.0272802 -152.71484375 29.02050781 C-151.67295017 29.01439452 -151.67295017 29.01439452 -150.61000824 29.00815773 C-146.93206583 28.98731279 -143.25416054 28.97300543 -139.57617188 28.96362305 C-135.78881299 28.9525738 -132.00204409 28.91818747 -128.21489334 28.87845135 C-125.2928157 28.85222707 -122.37087728 28.84392603 -119.44869232 28.84034157 C-118.05331192 28.83548898 -116.65793717 28.82391289 -115.26267242 28.80530357 C-101.73577349 28.63613142 -101.73577349 28.63613142 -95.76171875 33.25878906 C-90.26777305 39.19335196 -91.76171875 46.45222238 -91.76171875 54.25878906 C-77.24171875 54.25878906 -62.72171875 54.25878906 -47.76171875 54.25878906 C-47.10171875 52.60878906 -46.44171875 50.95878906 -45.76171875 49.25878906 C-44.58660614 47.00314607 -43.38743192 44.78419993 -42.13671875 42.57128906 C-41.76063477 41.90572998 -41.38455078 41.2401709 -40.99707031 40.55444336 C-37.29695012 34.08210356 -33.45938718 27.69176823 -29.57989502 21.32577515 C-28.87252449 20.16391471 -28.16737256 19.00070038 -27.46453857 17.83609009 C-26.46158773 16.17694288 -25.44773087 14.52440375 -24.43359375 12.87207031 C-23.84674805 11.91083252 -23.25990234 10.94959473 -22.65527344 9.95922852 C-16.56902038 1.27949089 -10.06597113 -0.05180077 0 0 Z M174.23828125 106.25878906 C173.64015625 106.77441406 173.04203125 107.29003906 172.42578125 107.82128906 C169.73213643 111.082017 169.90476263 114.95548281 169.95703125 118.97363281 C170.39777958 122.55471295 171.88648624 124.58918392 174.23828125 127.25878906 C178.73053013 130.5156695 182.61246115 131.37550948 188.0793457 131.41992188 C189.51652702 131.43433319 189.51652702 131.43433319 190.98274231 131.44903564 C192.01195297 131.45328552 193.04116364 131.4575354 194.1015625 131.46191406 C195.1669072 131.46761414 196.23225189 131.47331421 197.32987976 131.47918701 C199.58343515 131.48862849 201.8370043 131.49516761 204.09057617 131.49902344 C207.52742767 131.50872315 210.96367956 131.53975282 214.40039062 131.57128906 C216.59244437 131.5778201 218.78450239 131.58307017 220.9765625 131.58691406 C221.99970047 131.59926086 223.02283844 131.61160767 224.07698059 131.62432861 C231.50962518 131.60127506 236.50453172 130.81425058 242.11328125 125.57128906 C244.61907226 121.66520308 245.66316259 118.88912861 245.23828125 114.25878906 C243.9506001 109.62986989 242.30606875 107.04423289 238.40649414 104.17578125 C233.20564205 101.2957471 227.75755003 101.6858088 221.953125 101.72753906 C220.77867325 101.72371216 219.6042215 101.71988525 218.3941803 101.71594238 C215.91894673 101.71322805 213.44368425 101.72055548 210.96850586 101.73730469 C207.18473309 101.75873835 203.40285501 101.73747472 199.61914062 101.71191406 C197.20963124 101.71455705 194.80012303 101.71968141 192.390625 101.72753906 C190.69823952 101.71539368 190.69823952 101.71539368 188.97166443 101.70300293 C182.741098 101.77725012 178.98492752 102.09556524 174.23828125 106.25878906 Z M-25.76171875 140.25878906 C-26.58542969 140.86207031 -27.40914062 141.46535156 -28.2578125 142.08691406 C-52.12238953 160.40418691 -65.72963521 185.27655566 -69.95068359 214.76367188 C-73.52207807 242.31141483 -65.36056561 269.83512712 -48.578125 291.81347656 C-33.12072862 311.15317007 -12.7813152 324.17749174 11.23828125 330.25878906 C12.10710937 330.484375 12.9759375 330.70996094 13.87109375 330.94238281 C40.84295209 336.64343159 69.02481849 330.54626297 92.23828125 316.25878906 C104.93050809 307.89046851 116.19166118 297.20150071 124.23828125 284.25878906 C124.74617187 283.49566406 125.2540625 282.73253906 125.77734375 281.94628906 C141.37769083 257.62574797 143.58517239 229.00740186 138.23828125 201.25878906 C132.79036021 177.20940789 116.55521958 153.39573128 95.90625 139.90332031 C95.02582031 139.360625 94.14539063 138.81792969 93.23828125 138.25878906 C92.20316406 137.60265625 91.16804687 136.94652344 90.1015625 136.27050781 C54.8612832 114.59794045 7.82296224 115.57541376 -25.76171875 140.25878906 Z " fill="#ffffff" transform="translate(220.76171875,55.7412109375)"/>
<path d="M0 0 C15.04127497 12.56480856 24.59043839 30.99436194 26.35791016 50.47216797 C27.81555468 72.04433195 21.83712809 91.21869007 7.92651367 107.77026367 C-3.95862265 121.31518029 -21.80149879 131.0388364 -39.85595703 132.37988281 C-61.34704127 133.45773261 -81.53464572 128.65759421 -98.140625 114.3046875 C-114.45670808 98.87441628 -122.95943522 80.21190983 -123.62109375 57.6328125 C-122.95784495 36.44786557 -114.88341009 16.80180015 -99.37109375 2.1953125 C-70.10428782 -22.59758679 -30.37149156 -23.11635766 0 0 Z " fill="#000000" transform="translate(304.37109375,224.8046875)"/>
</svg>
