<svg width="20" height="20" viewBox="0 0 20 20" fill="none" xmlns="http://www.w3.org/2000/svg">
<path d="M10.0003 18.9582C5.05866 18.9582 1.04199 14.9415 1.04199 9.99984C1.04199 5.05817 5.05866 1.0415 10.0003 1.0415C14.942 1.0415 18.9587 5.05817 18.9587 9.99984C18.9587 14.9415 14.942 18.9582 10.0003 18.9582ZM10.0003 2.2915C5.75033 2.2915 2.29199 5.74984 2.29199 9.99984C2.29199 14.2498 5.75033 17.7082 10.0003 17.7082C14.2503 17.7082 17.7087 14.2498 17.7087 9.99984C17.7087 5.74984 14.2503 2.2915 10.0003 2.2915Z" fill="#EF3A4B"/>
<path d="M7.64147 12.9831C7.48314 12.9831 7.3248 12.9248 7.1998 12.7998C6.95814 12.5581 6.95814 12.1581 7.1998 11.9165L11.9165 7.1998C12.1581 6.95814 12.5581 6.95814 12.7998 7.1998C13.0415 7.44147 13.0415 7.84147 12.7998 8.08314L8.08314 12.7998C7.96647 12.9248 7.7998 12.9831 7.64147 12.9831Z" fill="#EF3A4B"/>
<path d="M12.3581 12.9831C12.1998 12.9831 12.0415 12.9248 11.9165 12.7998L7.1998 8.08314C6.95814 7.84147 6.95814 7.44147 7.1998 7.1998C7.44147 6.95814 7.84147 6.95814 8.08314 7.1998L12.7998 11.9165C13.0415 12.1581 13.0415 12.5581 12.7998 12.7998C12.6748 12.9248 12.5165 12.9831 12.3581 12.9831Z" fill="#EF3A4B"/>
</svg>
