<?xml version="1.0" encoding="UTF-8"?>
<svg version="1.1" xmlns="http://www.w3.org/2000/svg" width="512" height="512">
<path d="M0 0 C4.23419735 3.56207829 8.09288912 7.45836913 11.96728516 11.3996582 C13.13023165 12.56401751 14.2942851 13.72727208 15.45935059 14.88951111 C18.59804864 18.02678277 21.72115942 21.1791576 24.84157228 24.33460259 C28.11301099 27.63743457 31.39874714 30.9259819 34.68295288 34.21611023 C40.89050831 40.43916606 47.08521466 46.6748494 53.27533662 52.91524142 C60.32716072 60.02307749 67.39329738 67.11661194 74.46063542 74.2090174 C88.98966898 88.79022292 103.50075493 103.38917703 118 118 C121.6904678 116.45371092 124.01665907 114.21804677 126.8175354 111.389328 C127.28758952 110.91745491 127.75764363 110.44558181 128.24194181 109.95940953 C129.81403809 108.37890774 131.37885215 106.79138823 132.94384766 105.20385742 C134.07058663 104.06836735 135.19780623 102.93335403 136.32546997 101.79878235 C138.75302361 99.35473973 141.17757977 96.90777496 143.59999466 94.45863914 C147.43565431 90.58158803 151.28056297 86.71380028 155.12728882 82.84773254 C166.06479044 71.85267979 176.99234509 60.84780893 187.90478516 49.82788086 C193.93186374 43.74159547 199.96796482 37.66440689 206.01397359 31.5969246 C209.83491626 27.76139191 213.6445429 23.91507603 217.44607091 20.060305 C219.82251545 17.65597935 222.20951089 15.26234492 224.59952927 12.87151909 C225.6995368 11.76697011 226.79528825 10.65816218 227.88623047 9.54465866 C235.12805295 2.15929017 242.28077959 -4.93936452 253.125 -5.5 C260.19945968 -5.05715432 264.99204869 -3.45303306 269.875 1.8125 C274.22289793 7.26965662 275.60770991 12.30487753 275.34194469 19.24547768 C274.03597304 29.76568209 265.76769941 36.92157462 258.6003418 43.96728516 C257.43598249 45.13023165 256.27272792 46.2942851 255.11048889 47.45935059 C251.97321723 50.59804864 248.8208424 53.72115942 245.66539741 56.84157228 C242.36256543 60.11301099 239.0740181 63.39874714 235.78388977 66.68295288 C229.56083394 72.89050831 223.3251506 79.08521466 217.08475858 85.27533662 C209.97692251 92.32716072 202.88338806 99.39329738 195.7909826 106.46063542 C181.20977708 120.98966898 166.61082297 135.50075493 152 150 C153.54628908 153.6904678 155.78195323 156.01665907 158.610672 158.8175354 C159.31848164 159.52261657 159.31848164 159.52261657 160.04059047 160.24194181 C161.62109226 161.81403809 163.20861177 163.37885215 164.79614258 164.94384766 C165.93163265 166.07058663 167.06664597 167.19780623 168.20121765 168.32546997 C170.64526027 170.75302361 173.09222504 173.17757977 175.54136086 175.59999466 C179.41841197 179.43565431 183.28619972 183.28056297 187.15226746 187.12728882 C198.14732021 198.06479044 209.15219107 208.99234509 220.17211914 219.90478516 C226.25840453 225.93186374 232.33559311 231.96796482 238.4030754 238.01397359 C242.23860809 241.83491626 246.08492397 245.6445429 249.939695 249.44607091 C252.34402065 251.82251545 254.73765508 254.20951089 257.12848091 256.59952927 C258.23302989 257.6995368 259.34183782 258.79528825 260.45534134 259.88623047 C267.84070983 267.12805295 274.93936452 274.28077959 275.5 285.125 C275.05715432 292.19945968 273.45303306 296.99204869 268.1875 301.875 C262.73034338 306.22289793 257.69512247 307.60770991 250.75452232 307.34194469 C240.23431791 306.03597304 233.07842538 297.76769941 226.03271484 290.6003418 C224.86976835 289.43598249 223.7057149 288.27272792 222.54064941 287.11048889 C219.40195136 283.97321723 216.27884058 280.8208424 213.15842772 277.66539741 C209.88698901 274.36256543 206.60125286 271.0740181 203.31704712 267.78388977 C197.10949169 261.56083394 190.91478534 255.3251506 184.72466338 249.08475858 C177.67283928 241.97692251 170.60670262 234.88338806 163.53936458 227.7909826 C149.01033102 213.20977708 134.49924507 198.61082297 120 184 C116.3095322 185.54628908 113.98334093 187.78195323 111.1824646 190.610672 C110.47738343 191.31848164 110.47738343 191.31848164 109.75805819 192.04059047 C108.18596191 193.62109226 106.62114785 195.20861177 105.05615234 196.79614258 C103.92941337 197.93163265 102.80219377 199.06664597 101.67453003 200.20121765 C99.24697639 202.64526027 96.82242023 205.09222504 94.40000534 207.54136086 C90.56434569 211.41841197 86.71943703 215.28619972 82.87271118 219.15226746 C71.93520956 230.14732021 61.00765491 241.15219107 50.09521484 252.17211914 C44.06813626 258.25840453 38.03203518 264.33559311 31.98602641 270.4030754 C28.16508374 274.23860809 24.3554571 278.08492397 20.55392909 281.939695 C18.17748455 284.34402065 15.79048911 286.73765508 13.40047073 289.12848091 C12.3004632 290.23302989 11.20471175 291.34183782 10.11376953 292.45534134 C2.84178161 299.87147321 -4.30413186 306.94118771 -15.1875 307.5 C-22.57603352 307.07218194 -27.77152244 303.99081949 -33 299 C-37.19416791 293.07031433 -37.77253603 287.10644269 -37 280 C-34.08626985 270.84798147 -27.25977577 264.57912241 -20.6003418 258.03271484 C-19.43598249 256.86976835 -18.27272792 255.7057149 -17.11048889 254.54064941 C-13.97321723 251.40195136 -10.8208424 248.27884058 -7.66539741 245.15842772 C-4.36256543 241.88698901 -1.0740181 238.60125286 2.21611023 235.31704712 C8.43916606 229.10949169 14.6748494 222.91478534 20.91524142 216.72466338 C28.02307749 209.67283928 35.11661194 202.60670262 42.2090174 195.53936458 C56.79022292 181.01033102 71.38917703 166.49924507 86 152 C84.45371092 148.3095322 82.21804677 145.98334093 79.389328 143.1824646 C78.91745491 142.71241048 78.44558181 142.24235637 77.95940953 141.75805819 C76.37890774 140.18596191 74.79138823 138.62114785 73.20385742 137.05615234 C72.06836735 135.92941337 70.93335403 134.80219377 69.79878235 133.67453003 C67.35473973 131.24697639 64.90777496 128.82242023 62.45863914 126.40000534 C58.58158803 122.56434569 54.71380028 118.71943703 50.84773254 114.87271118 C39.85267979 103.93520956 28.84780893 93.00765491 17.82788086 82.09521484 C11.74159547 76.06813626 5.66440689 70.03203518 -0.4030754 63.98602641 C-4.23860809 60.16508374 -8.08492397 56.3554571 -11.939695 52.55392909 C-14.34402065 50.17748455 -16.73765508 47.79048911 -19.12848091 45.40047073 C-20.23302989 44.3004632 -21.34183782 43.20471175 -22.45534134 42.11376953 C-29.84070983 34.87194705 -36.93936452 27.71922041 -37.5 16.875 C-37.05715432 9.80054032 -35.45303306 5.00795131 -30.1875 0.125 C-20.49271945 -7.59915365 -10.00892405 -6.47152246 0 0 Z " fill="#000000" transform="translate(137,105)"/>
</svg>
