<?xml version="1.0" encoding="UTF-8"?>
<svg version="1.1" xmlns="http://www.w3.org/2000/svg" width="512" height="512">
<path d="M0 0 C1.70736328 0.01353516 1.70736328 0.01353516 3.44921875 0.02734375 C6.21637881 0.0505972 8.9830676 0.08327132 11.75 0.125 C10.46569972 4.11340041 8.99417757 7.95019428 7.375 11.8125 C-1.49251979 35.25748556 -2.59505537 62.0917537 4.75 86.125 C4.95898926 86.81303711 5.16797852 87.50107422 5.38330078 88.20996094 C10.04317446 102.96099179 17.5384787 116.50293782 27.75 128.125 C28.41257812 128.93066406 29.07515625 129.73632812 29.7578125 130.56640625 C45.2034169 148.77626089 65.66625119 158.32031456 87.75 166.125 C77.71855234 186.67169283 55.58982265 201.16438997 34.59765625 208.6640625 C30.6857624 209.9804178 26.74399499 211.0843705 22.75 212.125 C21.35007812 212.49431641 21.35007812 212.49431641 19.921875 212.87109375 C-7.58680453 218.70261207 -36.95658461 212.06776037 -60.48095703 197.28955078 C-65.0732116 194.26649609 -69.20300362 190.8352569 -73.25 187.125 C-74.17425781 186.28195312 -75.09851563 185.43890625 -76.05078125 184.5703125 C-91.43225114 169.8909014 -100.93529308 151.52314639 -106.25 131.125 C-106.49621094 130.19171875 -106.74242187 129.2584375 -106.99609375 128.296875 C-112.6945697 101.41578843 -106.40885031 72.51203477 -92.33984375 49.26171875 C-75.94606237 24.65572538 -51.45045272 7.68771871 -22.56152344 1.55419922 C-14.99204605 0.14068213 -7.68492495 -0.11795044 0 0 Z " fill="#ffffff" transform="translate(257.25,148.875)"/>
<path d="M0 0 C-1.74601245 5.38421515 -3.79133296 10.61970826 -5.87890625 15.87890625 C-11.01999796 30.19156226 -8.59673428 47.32551676 -2.71484375 60.984375 C5.12097753 76.43774955 16.99501695 86.59336666 32.953125 93.02734375 C40.11343176 95.31313399 46.86058525 96.3655375 54.375 96.3125 C55.20644531 96.30758545 56.03789062 96.3026709 56.89453125 96.29760742 C66.89323399 96.10749948 74.83520103 93.34127239 83.78515625 88.98828125 C86 88 86 88 88 88 C88.99354238 117.40149495 80.65639192 142.18710219 60.953125 164.296875 C48.39094626 177.59261162 31.65467244 186.59186974 14 191 C13.10667969 191.22558594 12.21335937 191.45117188 11.29296875 191.68359375 C-14.51970148 197.03815338 -41.0915939 191.2129803 -63 177 C-66.45211853 174.46045753 -69.73837585 171.77734007 -73 169 C-73.80695313 168.39414062 -74.61390625 167.78828125 -75.4453125 167.1640625 C-92.06508898 153.08553625 -102.82129392 129.2446825 -105 108 C-106.89699583 81.11083689 -100.75710797 56.43344014 -83.7734375 35.21875 C-61.56772396 9.79595428 -33.16809512 -0.71500085 0 0 Z " fill="#ffffff" transform="translate(382,106)"/>
<path d="M0 0 C1.61648438 -0.04253906 1.61648438 -0.04253906 3.265625 -0.0859375 C11.31086326 0.9783429 16.63029425 5.66695129 22.13671875 11.30078125 C22.80161819 11.96659714 23.46651764 12.63241302 24.15156555 13.31840515 C25.5469769 14.719824 26.93755966 16.12606586 28.32348633 17.53686523 C30.43148942 19.68138529 32.55506316 21.80946059 34.68164062 23.93554688 C36.04261325 25.30635252 37.40267057 26.67806764 38.76171875 28.05078125 C39.70249519 28.99489616 39.70249519 28.99489616 40.66227722 29.95808411 C47.59008264 37.03459442 52.1776141 43.18946631 52.75 53.375 C52.18873855 60.04141155 49.17485243 65.19263281 44.25 69.625 C39.60766861 72.87463197 36.6325542 73.66892724 30.875 73.6875 C29.68132812 73.70425781 28.48765625 73.72101563 27.2578125 73.73828125 C18.0085946 72.78040011 12.08499901 65.51171598 5.75 59.375 C4.84749512 58.50504395 3.94499023 57.63508789 3.01513672 56.73876953 C0.43634782 54.24764267 -2.12701968 51.74131224 -4.68264771 49.22644043 C-5.71941249 48.20846939 -6.75931005 47.1936782 -7.80245972 46.18225098 C-20.288499 34.05117142 -20.288499 34.05117142 -21.81640625 25.03125 C-21.8074803 17.81907884 -21.19061457 12.81870587 -16.25 7.375 C-11.2461077 2.38390538 -7.09277361 0.0840376 0 0 Z " fill="#ffffff" transform="translate(361.25,339.625)"/>
<path d="M0 0 C5.55553791 3.2512523 10.13520848 8.06703252 12.5625 14.08203125 C12.8984375 17.03515625 12.8984375 17.03515625 12.9375 20.33203125 C12.96585937 21.4096875 12.99421875 22.48734375 13.0234375 23.59765625 C11.9591571 31.64289451 7.27054871 36.9623255 1.63671875 42.46875 C0.97090286 43.13364944 0.30508698 43.79854889 -0.38090515 44.4835968 C-1.782324 45.87900815 -3.18856586 47.26959091 -4.59936523 48.65551758 C-6.74388529 50.76352067 -8.87196059 52.88709441 -10.99804688 55.01367188 C-12.36885252 56.3746445 -13.74056764 57.73470182 -15.11328125 59.09375 C-15.74269119 59.7209343 -16.37210114 60.34811859 -17.02058411 60.99430847 C-25.18851468 68.99059918 -31.21969124 72.51413874 -42.91015625 72.4296875 C-49.20514148 71.80925152 -52.62807433 69.03430631 -56.8125 64.51953125 C-60.78283277 58.56403209 -62.07166817 52.83047262 -61 45.70703125 C-58.02075742 34.91272672 -47.0312667 26.30316711 -39.31054688 18.58447266 C-37.43028593 16.69980025 -35.56666891 14.79962382 -33.703125 12.8984375 C-32.49056392 11.68001293 -31.27705463 10.46253112 -30.0625 9.24609375 C-29.24338135 8.40541855 -29.24338135 8.40541855 -28.40771484 7.54776001 C-20.66987522 -0.10094273 -10.75280668 -4.04953457 0 0 Z " fill="#ffffff" transform="translate(159.4375,340.91796875)"/>
<path d="M0 0 C0.991707 -0.01283524 1.983414 -0.02567047 3.00517273 -0.03889465 C4.07185684 -0.04628159 5.13854095 -0.05366852 6.23754883 -0.0612793 C7.34254227 -0.06935104 8.44753571 -0.07742279 9.58601379 -0.08573914 C11.92532794 -0.09956525 14.26466214 -0.11029398 16.60400391 -0.11816406 C20.16388686 -0.13534987 23.72283445 -0.1792477 27.2824707 -0.22338867 C29.55915661 -0.23351859 31.83585038 -0.24203375 34.11254883 -0.2487793 C35.16911179 -0.26628738 36.22567474 -0.28379547 37.31425476 -0.30183411 C44.69399444 -0.28040421 51.34283121 0.71080934 56.88835144 5.95658875 C62.59952491 12.27030001 63.51847252 17.18310709 63.38598633 25.6887207 C62.69586213 32.04213218 59.66755559 35.84224601 55.06958008 40.05200195 C48.50754395 44.60525151 42.26776202 44.48442554 34.54614258 44.4777832 C32.88933975 44.48421089 32.88933975 44.48421089 31.19906616 44.49076843 C28.86749963 44.49649965 26.53591523 44.49702092 24.2043457 44.49267578 C20.65129845 44.48951903 17.09908682 44.51298003 13.54614258 44.53833008 C11.27531029 44.54060361 9.00447577 44.54130632 6.73364258 44.5402832 C5.67819244 44.54949295 4.62274231 44.5587027 3.53530884 44.56819153 C-4.76336802 44.51655699 -11.87168978 43.2982321 -17.99291992 37.17700195 C-22.22823056 31.05297171 -23.74780855 25.60456682 -22.99291992 18.17700195 C-21.57724005 12.52469188 -19.24494789 7.42606803 -14.32104492 4.02075195 C-9.42997571 1.09447123 -5.61726765 0.06356177 0 0 Z " fill="#ffffff" transform="translate(64.992919921875,233.822998046875)"/>
<path d="M0 0 C5.21548187 5.21548187 7.34455707 10.95685898 7.42700195 18.24291992 C7.44625481 19.73048042 7.44625481 19.73048042 7.46589661 21.24809265 C7.47328354 22.31477676 7.48067047 23.38146088 7.48828125 24.48046875 C7.496353 25.58546219 7.50442474 26.69045563 7.51274109 27.82893372 C7.5265672 30.16824786 7.53729593 32.50758206 7.54516602 34.84692383 C7.56235182 38.40680679 7.60624966 41.96575437 7.65039062 45.52539062 C7.66052054 47.80207653 7.66903571 50.0787703 7.67578125 52.35546875 C7.69328934 53.41203171 7.71079742 54.46859467 7.72883606 55.55717468 C7.70740617 62.93691436 6.71619261 69.58575113 1.47041321 75.13127136 C-4.84329805 80.84244483 -9.75610513 81.76139244 -18.26171875 81.62890625 C-24.61513022 80.93878205 -28.41524406 77.91047551 -32.625 73.3125 C-37.17824956 66.75046387 -37.05742358 60.51068194 -37.05078125 52.7890625 C-37.05506638 51.68452728 -37.0593515 50.57999207 -37.06376648 49.44198608 C-37.0694977 47.11041955 -37.07001897 44.77883515 -37.06567383 42.44726562 C-37.06251707 38.89421837 -37.08597808 35.34200674 -37.11132812 31.7890625 C-37.11360166 29.51823021 -37.11430436 27.2473957 -37.11328125 24.9765625 C-37.12709587 23.3933873 -37.12709587 23.3933873 -37.14118958 21.77822876 C-37.08955503 13.4795519 -35.87123014 6.37123014 -29.75 0.25 C-19.91568315 -6.55130324 -9.93984913 -6.32535854 0 0 Z " fill="#ffffff" transform="translate(270.75,46.75)"/>
<path d="M0 0 C5.10383404 3.03497588 9.14071935 7.11321009 11.59448242 12.56494141 C12.85337676 17.5734607 12.78567646 22.405084 12.78125 27.55078125 C12.78553513 28.65531647 12.78982025 29.75985168 12.79423523 30.89785767 C12.79996645 33.2294242 12.80048772 35.5610086 12.79614258 37.89257812 C12.79298582 41.44562538 12.81644683 44.99783701 12.84179688 48.55078125 C12.84407041 50.82161354 12.84477311 53.09244805 12.84375 55.36328125 C12.85295975 56.41873138 12.86216949 57.47418152 12.87165833 58.56161499 C12.82540371 65.99563329 12.11718207 71.95429278 7.16796875 77.83984375 C0.96619129 83.03202953 -3.24908956 85.42953376 -11.3671875 85.30859375 C-17.22056332 84.7136953 -22.36883933 82.24053567 -26.51953125 78.08984375 C-30.1240013 72.8779749 -31.62554976 68.3700807 -31.6965332 62.09692383 C-31.70936844 61.10521683 -31.72220367 60.11350983 -31.73542786 59.0917511 C-31.74281479 58.02506699 -31.75020172 56.95838287 -31.7578125 55.859375 C-31.76588425 54.75438156 -31.77395599 53.64938812 -31.78227234 52.51091003 C-31.79609845 50.17159589 -31.80682718 47.83226169 -31.81469727 45.49291992 C-31.83188307 41.93303696 -31.87578091 38.37408938 -31.91992188 34.81445312 C-31.93005179 32.53776722 -31.93856696 30.26107345 -31.9453125 27.984375 C-31.96282059 26.92781204 -31.98032867 25.87124908 -31.99836731 24.78266907 C-31.97693742 17.40292939 -30.98572386 10.75409262 -25.73994446 5.20857239 C-18.47878916 -1.35962748 -9.52717362 -3.44159915 0 0 Z " fill="#ffffff" transform="translate(265.51953125,384.91015625)"/>
<path d="M0 0 C1.10988281 -0.02578125 2.21976563 -0.0515625 3.36328125 -0.078125 C9.12854579 0.49094929 13.1185251 3.32123522 17.2890625 7.18359375 C18.14918945 7.98007324 19.00931641 8.77655273 19.89550781 9.59716797 C24.46419551 13.93814038 29.00273677 18.30407534 33.47607422 22.7434082 C34.54002601 23.79573479 35.60845612 24.84355144 36.68115234 25.88696289 C49.72687032 38.57897237 49.72687032 38.57897237 51.25390625 47.59375 C51.24365347 55.87799868 50.01297988 60.83393416 44.1953125 66.7734375 C38.64909517 71.74491728 33.60915237 72.66603379 26.39453125 72.4921875 C14.53459124 71.43112505 5.58925628 59.3382234 -2.37744141 51.37036133 C-4.06785568 49.68215131 -5.76614446 48.00213396 -7.46484375 46.32226562 C-8.55517632 45.23486492 -9.64503681 44.14699061 -10.734375 43.05859375 C-11.48602936 42.31771767 -11.48602936 42.31771767 -12.25286865 41.56187439 C-18.21898682 35.55706372 -21.43573681 30.55942117 -21.625 22.0625 C-21.55379802 16.23688345 -21.0709036 11.83087973 -17.3125 7.25 C-11.8137207 2.20484234 -7.5304326 0.10422744 0 0 Z " fill="#ffffff" transform="translate(121.3125,99.75)"/>
</svg>
