<svg width="110" height="110" viewBox="0 0 110 110" fill="none" xmlns="http://www.w3.org/2000/svg">
<circle opacity="0.1" cx="55" cy="55" r="55" fill="#F46F70"/>
<circle cx="55" cy="55" r="40" fill="#F46F70"/>
<path d="M55.5 68.4375C48.0875 68.4375 42.0625 62.4125 42.0625 55C42.0625 47.5875 48.0875 41.5625 55.5 41.5625C62.9125 41.5625 68.9375 47.5875 68.9375 55C68.9375 62.4125 62.9125 68.4375 55.5 68.4375ZM55.5 43.4375C49.125 43.4375 43.9375 48.625 43.9375 55C43.9375 61.375 49.125 66.5625 55.5 66.5625C61.875 66.5625 67.0625 61.375 67.0625 55C67.0625 48.625 61.875 43.4375 55.5 43.4375Z" fill="white"/>
<path d="M55.5 57.1875C54.9875 57.1875 54.5625 56.7625 54.5625 56.25V50C54.5625 49.4875 54.9875 49.0625 55.5 49.0625C56.0125 49.0625 56.4375 49.4875 56.4375 50V56.25C56.4375 56.7625 56.0125 57.1875 55.5 57.1875Z" fill="white"/>
<path d="M55.5 61.2501C55.3375 61.2501 55.175 61.2126 55.025 61.1501C54.875 61.0876 54.7375 61.0001 54.6125 60.8876C54.5 60.7626 54.4125 60.6376 54.35 60.4751C54.2875 60.3251 54.25 60.1626 54.25 60.0001C54.25 59.8376 54.2875 59.6751 54.35 59.5251C54.4125 59.3751 54.5 59.2376 54.6125 59.1126C54.7375 59.0001 54.875 58.9126 55.025 58.8501C55.325 58.7251 55.675 58.7251 55.975 58.8501C56.125 58.9126 56.2625 59.0001 56.3875 59.1126C56.5 59.2376 56.5875 59.3751 56.65 59.5251C56.7125 59.6751 56.75 59.8376 56.75 60.0001C56.75 60.1626 56.7125 60.3251 56.65 60.4751C56.5875 60.6376 56.5 60.7626 56.3875 60.8876C56.2625 61.0001 56.125 61.0876 55.975 61.1501C55.825 61.2126 55.6625 61.2501 55.5 61.2501Z" fill="white"/>
</svg>
