<svg width="12" height="12" viewBox="0 0 12 12" fill="none" xmlns="http://www.w3.org/2000/svg">
<path d="M1.63745 7.64784C1.21248 7.09574 1 6.81969 1 6C1 5.18031 1.21248 4.90426 1.63745 4.35217C2.48598 3.24978 3.90906 2 6 2C8.09094 2 9.51402 3.24978 10.3626 4.35217C10.7875 4.90426 11 5.18031 11 6C11 6.81969 10.7875 7.09574 10.3626 7.64784C9.51402 8.75022 8.09094 10 6 10C3.90906 10 2.48598 8.75022 1.63745 7.64784Z" stroke="#262626"/>
<path d="M7.5 6C7.5 6.82843 6.82843 7.5 6 7.5C5.17157 7.5 4.5 6.82843 4.5 6C4.5 5.17157 5.17157 4.5 6 4.5C6.82843 4.5 7.5 5.17157 7.5 6Z" stroke="#262626"/>
</svg>
