<?xml version="1.0" encoding="UTF-8"?>
<svg version="1.1" xmlns="http://www.w3.org/2000/svg" width="512" height="512">
<path d="M0 0 C1.0371102 -0.00367669 2.07422041 -0.00735338 3.14275819 -0.01114148 C6.61758215 -0.02215318 10.09237618 -0.02601798 13.56721497 -0.02983093 C16.05940851 -0.03609771 18.55160113 -0.0427447 21.04379272 -0.04974365 C28.52383814 -0.06895305 36.0038756 -0.07957145 43.48393843 -0.08847144 C47.01449369 -0.09286264 50.54504748 -0.09822745 54.07560158 -0.10346031 C65.82729754 -0.12047225 77.57899259 -0.13496199 89.33069897 -0.14220905 C92.3776366 -0.14411868 95.42457423 -0.14603904 98.47151184 -0.147995 C99.60734255 -0.14872061 99.60734255 -0.14872061 100.76611934 -0.14946087 C113.0070168 -0.15774459 125.24781602 -0.18305351 137.48867067 -0.21557567 C150.08294251 -0.24876121 162.67716463 -0.26666833 175.27148038 -0.26985329 C182.33169575 -0.27200831 189.39176806 -0.28060717 196.45194054 -0.30631447 C203.10455059 -0.33048289 209.75686056 -0.33377563 216.4095211 -0.32355309 C218.83812821 -0.32306073 221.26674847 -0.32929129 223.69531631 -0.34310913 C260.65060995 -0.54143771 291.61410903 10.54098326 318.26472473 36.70137024 C338.96072703 57.73117902 352.05149025 87.43145818 351.95500183 117.06086731 C351.95953294 118.10224964 351.96406406 119.14363196 351.96873248 120.21657133 C351.9813048 123.675906 351.97976073 127.13508178 351.97810364 130.59443665 C351.98409348 133.08736878 351.99090007 135.58029906 351.99845886 138.07322693 C352.01425476 144.12539373 352.02056541 150.17749903 352.02168362 156.22968072 C352.02263758 161.15632024 352.02676514 166.08294703 352.03308487 171.00958252 C352.05068125 185.01475903 352.0599266 199.01990502 352.05842392 213.02509266 C352.05834401 213.77855235 352.0582641 214.53201203 352.05818176 215.30830383 C352.0581 216.0626968 352.05801824 216.81708977 352.057934 217.59434313 C352.05712222 229.80259621 352.07623691 242.01072559 352.1044585 254.21894294 C352.13328837 266.79077964 352.14699317 279.36255623 352.14527094 291.93442678 C352.14461037 298.97779158 352.14995485 306.0210268 352.17162704 313.06436157 C352.19190498 319.69650018 352.19106268 326.32841388 352.17659378 332.96058273 C352.1745173 335.38112667 352.1791364 337.80168811 352.1913147 340.2222023 C352.36493072 377.15089581 341.26950108 408.10309772 315.12458801 434.72871399 C295.85365078 453.75082499 267.33477561 467.69954679 239.97688293 468.40010071 C238.87876785 468.429729 237.78065277 468.4593573 236.64926147 468.48988342 C234.89125465 468.52906891 234.89125465 468.52906891 233.09773254 468.56904602 C231.27090187 468.6108902 231.27090187 468.6108902 229.40716553 468.65357971 C226.83605909 468.70986381 224.26489337 468.76349427 221.69367981 468.81465149 C217.7673388 468.8968098 213.84191165 469.00037975 209.91609192 469.10420227 C207.41416615 469.15631383 204.91221316 469.20713796 202.41023254 469.25654602 C200.65526207 469.30787689 200.65526207 469.30787689 198.86483765 469.36024475 C192.7139733 469.45530395 187.98285568 469.45297725 182.68757629 466.14717102 C179.64107104 462.1456505 179.31117304 459.12981481 179.30662537 454.16365051 C179.30194539 453.47278587 179.29726542 452.78192122 179.29244363 452.07012129 C179.28050429 449.76162326 179.28994632 447.45372004 179.2993927 445.1452179 C179.29532651 443.487586 179.28998437 441.82995682 179.28346252 440.17233276 C179.26978868 435.67443506 179.27508785 431.17674385 179.28459978 426.67884254 C179.29219601 421.97129892 179.28515087 417.26377296 179.28044128 412.55622864 C179.27498363 404.65080085 179.28217561 396.74545714 179.29646301 388.84004211 C179.31278955 379.7008177 179.30750105 370.56179407 179.2909838 361.42257452 C179.27736922 353.57530928 179.27544913 345.72810448 179.2832998 337.88083124 C179.28797647 333.19422267 179.28860133 328.50770846 179.27869034 323.82110596 C179.27002337 319.41500387 179.27603762 315.00916061 179.29337311 310.60308647 C179.2973394 308.98617927 179.29620146 307.36925029 179.28958511 305.75235176 C179.2813849 303.54483777 179.29167185 301.33815273 179.30662537 299.13069153 C179.30775644 297.89553047 179.30888752 296.66036942 179.31005287 295.38777924 C179.72453278 291.82994171 180.5330322 289.98140259 182.68757629 287.14717102 C185.90931879 284.99934269 186.73094939 284.90067954 190.43440247 284.92012024 C191.39517197 284.9202713 192.35594147 284.92042236 193.3458252 284.920578 C194.38028275 284.93090057 195.4147403 284.94122314 196.48054504 284.95185852 C197.54171036 284.95468842 198.60287567 284.95751831 199.69619751 284.96043396 C203.08927127 284.97163918 206.48208216 284.99674455 209.87507629 285.02217102 C212.17390061 285.03220037 214.47272906 285.0413263 216.77156067 285.04951477 C222.4103224 285.07157961 228.04893057 285.10506058 233.68757629 285.14717102 C233.73003479 284.39218323 233.77249329 283.63719543 233.8162384 282.85932922 C234.40244272 273.91039505 235.71326977 265.15874243 237.25007629 256.33467102 C237.48694386 254.9486954 237.72327476 253.56262794 237.95906067 252.1764679 C238.52999349 248.83243279 239.10624742 245.48941169 239.68757629 242.14717102 C238.72704094 242.15716377 238.72704094 242.15716377 237.74710083 242.1673584 C231.07993085 242.23374895 224.41285485 242.27898722 217.74543762 242.31196594 C215.25744309 242.32704863 212.76947512 242.34751756 210.28157043 242.37348938 C206.70459942 242.40989439 203.12798008 242.42690286 199.55085754 242.44013977 C198.43922745 242.45562363 197.32759735 242.47110748 196.18228149 242.48706055 C195.14158005 242.48728714 194.1008786 242.48751373 193.02864075 242.48774719 C192.11596939 242.49440903 191.20329803 242.50107086 190.26296997 242.50793457 C185.96401786 241.90573335 183.50782248 240.22652189 180.89933777 236.79405212 C179.56987949 233.89008292 179.30768527 231.9762063 179.2993927 228.79707336 C179.28993622 227.75183502 179.28047974 226.70659668 179.27073669 225.62968445 C179.27984573 223.94837936 179.27984573 223.94837936 179.28913879 222.23310852 C179.28626862 221.06768524 179.28339844 219.90226196 179.28044128 218.70152283 C179.27840104 216.23532119 179.28392806 213.76910336 179.29646301 211.30293274 C179.31242945 207.55662574 179.29665699 203.81141195 179.27742004 200.06513977 C179.27940418 197.66279366 179.28325136 195.26044823 179.28913879 192.85810852 C179.28002975 191.19502151 179.28002975 191.19502151 179.27073669 189.49833679 C179.36335751 179.07558487 181.2575043 168.64346152 187.68757629 160.14717102 C196.3003951 152.00604817 205.46750926 150.9769575 216.90242004 151.04951477 C218.04185059 151.05102539 218.04185059 151.05102539 219.20429993 151.05256653 C222.01124099 151.05775392 224.81816034 151.07171479 227.62507629 151.08467102 C237.06101379 151.11560852 237.06101379 151.11560852 246.68757629 151.14717102 C246.68757629 137.94717102 246.68757629 124.74717102 246.68757629 111.14717102 C224.27971076 109.42348906 200.50728038 107.64633087 178.68757629 114.14717102 C178.03611633 114.33440735 177.38465637 114.52164368 176.7134552 114.71455383 C162.93563298 118.78775223 148.86454881 125.72510649 141.61335754 138.69404602 C137.62692997 146.29714843 135.54238655 152.17043425 135.52986145 160.74214172 C135.52478073 161.50201385 135.51970001 162.26188599 135.51446533 163.04478455 C135.50378128 164.69204883 135.49515343 166.33932745 135.4883461 167.98661232 C135.47652761 170.59751511 135.45706688 173.20825468 135.43522644 175.8190918 C135.37371189 183.24146566 135.31960481 190.66382208 135.28620911 198.08638 C135.26521874 202.62987885 135.2298813 207.17307845 135.18545151 211.71640587 C135.17132688 213.44384925 135.16257708 215.17134556 135.15939713 216.89884377 C135.15446688 219.32088481 135.13125562 221.74213705 135.1040802 224.16401672 C135.1085894 225.22490257 135.1085894 225.22490257 135.1131897 226.30722046 C135.02960469 231.34478203 133.94672098 234.73534965 131.68757629 239.14717102 C127.25182983 243.43140778 121.26047956 242.52569897 115.48054504 242.44013977 C114.40001358 242.43589493 113.31948212 242.43165009 112.20620728 242.42727661 C108.76224123 242.41051231 105.31886485 242.37286328 101.87507629 242.33467102 C99.53719413 242.31962132 97.19930278 242.30593341 94.86140442 242.2936554 C89.13638627 242.26317074 83.41263968 242.20444287 77.68757629 242.14717102 C77.68757629 256.33717102 77.68757629 270.52717102 77.68757629 285.14717102 C81.22734192 285.08916321 84.76710754 285.0311554 88.41413879 284.97138977 C91.84950013 284.9323754 95.28483661 284.90202703 98.72029114 284.87251282 C101.10451843 284.84739693 103.48866894 284.81329778 105.87263489 284.76997375 C109.30332908 284.70919655 112.73300374 284.68093109 116.16413879 284.65888977 C117.22686005 284.63308334 118.2895813 284.60727692 119.38450623 284.58068848 C127.66553061 284.57756293 127.66553061 284.57756293 131.34529114 287.4276886 C135.05835885 291.73870186 134.81420484 295.2542037 134.82801819 300.84512329 C134.83098931 301.51738817 134.83396043 302.18965305 134.83702159 302.88228959 C134.84568953 305.13376336 134.84721522 307.38518384 134.84870911 309.63667297 C134.85333861 311.2515016 134.85836345 312.86632913 134.86375427 314.4811554 C134.87686708 318.86761187 134.88332099 323.25405305 134.88776493 327.64052606 C134.89069732 330.38173328 134.89480243 333.12293634 134.8992691 335.86414146 C134.91294076 344.44289134 134.92260918 353.02163167 134.92647099 361.60039169 C134.9309518 371.49944043 134.94850215 381.3983511 134.97747159 391.29735786 C134.99909405 398.95183988 135.00917557 406.60628306 135.01051211 414.2607953 C135.01155969 418.83124901 135.01745745 423.40157287 135.03533173 427.9719944 C135.05182228 432.27218279 135.05396316 436.57214384 135.04519272 440.8723526 C135.04442288 442.44811551 135.04875801 444.02389069 135.05865097 445.59962273 C135.07139307 447.75610686 135.06548221 449.9117885 135.05506897 452.06826782 C135.05653553 453.27338674 135.05800209 454.47850565 135.05951309 455.72014332 C134.61097041 459.85301809 133.60820221 462.46457057 131.68757629 466.14717102 C125.60300222 470.19628427 118.89642376 469.54082696 111.80183411 469.45942688 C110.51459946 469.45653656 109.22736481 469.45364624 107.90112305 469.45066833 C104.38159398 469.44190599 100.86246986 469.41382901 97.34309101 469.38115001 C94.38950422 469.35548807 91.43589557 469.33931604 88.48224425 469.32308489 C81.49634362 469.28452929 74.51068622 469.23028349 67.52497864 469.16596985 C60.36625773 469.10030977 53.20771478 469.05960484 46.04875493 469.0317716 C39.86904296 469.00690758 33.68955636 468.96668649 27.5100143 468.91456896 C23.83463535 468.88367921 20.15943705 468.85802225 16.48394012 468.84698296 C-22.61037083 468.71204938 -54.44954243 459.51506672 -82.89396667 431.58418274 C-103.43706051 410.77236685 -116.46518948 381.13868956 -116.45959473 351.83474731 C-116.46510976 350.27908201 -116.46510976 350.27908201 -116.47073621 348.69198912 C-116.48174791 345.21716516 -116.4856127 341.74237113 -116.48942566 338.26753235 C-116.49569244 335.7753388 -116.50233943 333.28314619 -116.50933838 330.79095459 C-116.52854778 323.31090918 -116.53916617 315.83087171 -116.54806617 308.35080889 C-116.55245736 304.82025362 -116.55782218 301.28969984 -116.56305504 297.75914574 C-116.58006697 286.00744978 -116.59455672 274.25575472 -116.60180378 262.50404835 C-116.6037134 259.45711071 -116.60563377 256.41017308 -116.60758972 253.36323547 C-116.60807346 252.606015 -116.6085572 251.84879453 -116.6090556 251.06862798 C-116.61733932 238.82773051 -116.64264823 226.5869313 -116.6751704 214.34607664 C-116.70835593 201.75180481 -116.72626306 189.15758268 -116.72944802 176.56326693 C-116.73160303 169.50305156 -116.74020189 162.44297925 -116.76590919 155.38280678 C-116.79007761 148.73019672 -116.79337035 142.07788676 -116.78314781 135.42522621 C-116.78265546 132.99661911 -116.78888602 130.56799884 -116.80270386 128.139431 C-117.00105253 91.18039285 -105.91716236 60.21447764 -79.74943542 33.56562805 C-58.93761953 13.02253421 -29.30394225 -0.00559475 0 0 Z M-5.68800354 21.02954102 C-6.43438635 21.10602491 -7.18076915 21.18250881 -7.94976962 21.2613104 C-33.15050311 24.17630991 -56.47723513 37.90212067 -72.82414246 57.09638977 C-93.33028051 83.72999862 -96.46671638 111.34295061 -96.45768738 143.98164368 C-96.46068496 146.15812741 -96.46408886 148.33461062 -96.46786499 150.51109314 C-96.47664855 156.38745549 -96.47904072 162.26380325 -96.47968078 168.14017153 C-96.48039453 171.82193304 -96.48253499 175.50369091 -96.48517799 179.18545151 C-96.49441299 192.05957523 -96.49851523 204.93368863 -96.49772644 217.80781555 C-96.49712626 229.76036804 -96.50767109 241.71287531 -96.5234701 253.66541636 C-96.53659643 263.96741433 -96.5419082 274.26939761 -96.54127103 284.57140386 C-96.54101752 290.7064844 -96.54378665 296.84152471 -96.55444908 302.97659683 C-96.56421614 308.75349003 -96.564151 314.53030524 -96.55693245 320.30720139 C-96.55589719 322.41126369 -96.5581854 324.51533107 -96.56429291 326.61938477 C-96.59189018 336.79670616 -96.41463484 346.87776014 -95.43005371 357.01347351 C-95.31532787 358.20414789 -95.31532787 358.20414789 -95.19828433 359.41887629 C-93.16814894 378.09129793 -85.20530335 395.68748282 -73.31242371 410.14717102 C-72.51320496 411.12170227 -71.71398621 412.09623352 -70.89054871 413.10029602 C-52.98309402 434.12179696 -27.95773961 445.24024771 -0.82691956 447.76332092 C9.55620601 448.57821615 19.97992532 448.3909325 30.38679504 448.34248352 C32.5318542 448.33953373 34.67691481 448.33749907 36.82197571 448.33638 C44.67303155 448.32600113 52.52405634 448.29807933 60.37507629 448.27217102 C86.76476379 448.21029602 86.76476379 448.21029602 113.68757629 448.14717102 C113.68757629 401.28717102 113.68757629 354.42717102 113.68757629 306.14717102 C89.43257629 305.65217102 89.43257629 305.65217102 64.68757629 305.14717102 C58.68757629 301.14717102 58.68757629 301.14717102 57.68757629 298.14717102 C57.58777893 295.91458215 57.54926766 293.67909759 57.54231262 291.44429016 C57.53895401 290.76752731 57.5355954 290.09076447 57.53213501 289.39349365 C57.52263643 287.15641952 57.52068251 284.91942031 57.51960754 282.68232727 C57.5163944 281.12677988 57.51303028 279.57123279 57.50952148 278.01568604 C57.5035331 274.75490112 57.50168131 271.49414269 57.50227356 268.23335266 C57.50237521 264.05578508 57.48871869 259.87838734 57.47150135 255.70086002 C57.46038159 252.48810038 57.45835434 249.27538182 57.45888329 246.0626049 C57.4577033 244.522434 57.45328046 242.98226202 57.44555092 241.44211006 C57.43575065 239.28776783 57.43862895 237.13379461 57.44465637 234.97944641 C57.44323135 233.75383499 57.44180634 232.52822357 57.44033813 231.26547241 C57.6805495 228.2357967 57.91318364 226.58711715 59.68757629 224.14717102 C62.66707725 222.12203283 65.17920112 221.8821464 68.73152161 221.82832336 C69.73225708 221.80845367 70.73299255 221.78858398 71.76405334 221.76811218 C73.37361908 221.75078537 73.37361908 221.75078537 75.01570129 221.73310852 C76.11984375 221.71374237 77.22398621 221.69437622 78.36158752 221.67442322 C81.88683863 221.6146621 85.41212244 221.56825538 88.93757629 221.52217102 C91.3282155 221.4839881 93.718841 221.44493619 96.10945129 221.40498352 C101.96870456 221.30896335 107.82804045 221.22390554 113.68757629 221.14717102 C113.69122192 220.28876617 113.69486755 219.43036133 113.69862366 218.54594421 C113.73672423 210.39733662 113.79382332 202.24912033 113.87147903 194.10079002 C113.9107397 189.91311102 113.94303176 185.72563555 113.95857239 181.53779602 C113.97388189 177.48505156 114.00857417 173.43286754 114.05588531 169.38037491 C114.0705536 167.84573403 114.0786088 166.31101308 114.07946014 164.77630234 C114.09956656 146.68018292 118.53123343 129.69455865 131.42976379 116.25654602 C154.47197836 94.72921753 185.22066875 88.6994431 215.81257629 88.83467102 C216.62440369 88.83582916 217.43623108 88.8369873 218.2726593 88.83818054 C230.52499022 88.87272942 242.74203923 89.12015568 254.68757629 92.14717102 C255.4797052 92.34488098 256.27183411 92.54259094 257.08796692 92.74629211 C257.88911926 92.97526184 258.69027161 93.20423157 259.51570129 93.44013977 C260.60479797 93.74794373 260.60479797 93.74794373 261.71589661 94.06196594 C264.50611957 95.59769416 265.28307957 97.3045405 266.68757629 100.14717102 C267.06852722 103.18244934 267.06852722 103.18244934 267.07575989 106.60224915 C267.08521637 107.88708191 267.09467285 109.17191467 267.10441589 110.49568176 C267.09904587 111.88993133 267.09289284 113.28417808 267.08601379 114.67842102 C267.08803628 116.11661425 267.09094917 117.55480648 267.0947113 118.99299622 C267.09912649 122.00233252 267.09272987 125.01140108 267.07868958 128.02070618 C267.06159781 131.87093163 267.07144336 135.72052966 267.08940697 139.57073212 C267.10026679 142.53908484 267.09678846 145.50728971 267.08902359 148.47564697 C267.08702764 149.89496943 267.08945955 151.31430547 267.09646225 152.73361206 C267.10411204 154.7197696 267.09037789 156.70597442 267.07575989 158.6920929 C267.07337311 159.82062683 267.07098633 160.94916077 267.06852722 162.1118927 C266.64120382 165.51664999 265.71952848 167.4064974 263.68757629 170.14717102 C261.18811462 171.39690186 259.47150021 171.28518179 256.67463684 171.30488586 C255.62982651 171.31514801 254.58501617 171.32541016 253.50854492 171.33598328 C252.37524246 171.34328461 251.24194 171.35058594 250.07429504 171.35810852 C247.68822048 171.38617792 245.30215287 171.41484239 242.91609192 171.44404602 C239.14371438 171.48531984 235.37146629 171.52219623 231.59895325 171.54853821 C227.96545948 171.57612774 224.33256028 171.62200307 220.69929504 171.67060852 C219.57206528 171.67386139 218.44483551 171.67711426 217.28344727 171.6804657 C216.22918045 171.69703217 215.17491364 171.71359863 214.08869934 171.73066711 C213.1642955 171.73875397 212.23989166 171.74684082 211.28747559 171.75517273 C208.13936561 172.22982716 206.25977205 173.29628614 203.68757629 175.14717102 C200.24403664 180.14496581 200.28750757 184.6453762 200.39460754 190.48310852 C200.39885239 191.36246063 200.40309723 192.24181274 200.4074707 193.14781189 C200.42418168 195.93958444 200.46181937 198.7306189 200.50007629 201.52217102 C200.51513295 203.42190013 200.52881964 205.32164063 200.54109192 207.22138977 C200.57406032 211.8635986 200.62578976 216.50525993 200.68757629 221.14717102 C201.36551743 221.15303726 202.04345856 221.1589035 202.74194336 221.16494751 C209.79872164 221.22888681 216.85504411 221.31330847 223.91145325 221.40962219 C226.54485565 221.44287427 229.17832938 221.47090526 231.81184387 221.49360657 C235.59755341 221.52714631 239.38260918 221.57946422 243.16804504 221.63545227 C244.34529648 221.64184219 245.52254791 221.64823212 246.73547363 221.65481567 C248.38661919 221.68450691 248.38661919 221.68450691 250.07112122 221.71479797 C251.52007027 221.73145256 251.52007027 221.73145256 252.99829102 221.7484436 C256.18269698 222.22058019 258.09163767 223.27138411 260.68757629 225.14717102 C264.33649449 232.44500741 260.85735513 243.90523671 259.64070129 251.51045227 C259.425855 252.87420142 259.21123932 254.23798692 258.99684143 255.60180664 C258.54837869 258.44084013 258.09357983 261.27877481 257.63484192 264.11616516 C257.04955851 267.74277728 256.48593759 271.37240025 255.92761612 275.00324726 C255.49216346 277.81288886 255.04252761 280.62012576 254.58890533 283.4268856 C254.27157904 285.41119742 253.96836391 287.39774937 253.66542053 289.38430786 C253.46551514 290.59293991 253.26560974 291.80157196 253.05964661 293.04682922 C252.89088013 294.10698746 252.72211365 295.16714569 252.54823303 296.25942993 C251.5334672 299.6642496 250.14273506 301.59916398 247.68757629 304.14717102 C232.81142088 309.10588949 216.36437271 305.79088019 200.68757629 306.14717102 C200.68757629 353.00717102 200.68757629 399.86717102 200.68757629 448.14717102 C235.9817727 448.14717102 265.82919317 448.06027904 293.68757629 425.14717102 C294.66210754 424.34795227 295.63663879 423.54873352 296.64070129 422.72529602 C316.04381157 406.19648967 328.36685731 382.3347126 330.80421448 357.00752258 C330.88790527 356.14553379 330.97159606 355.283545 331.05782294 354.39543533 C331.97099565 344.14663789 331.96827253 333.91298843 331.94636536 323.63154602 C331.94908357 321.45417668 331.95264911 319.27680825 331.95698547 317.09944153 C331.96601312 311.24820652 331.96260543 305.39704296 331.9562273 299.54580688 C331.95111695 293.38395514 331.95587261 287.22210898 331.95899963 281.06025696 C331.96262474 270.71812354 331.95787858 260.37601882 331.94831848 250.03388977 C331.93743678 238.12551448 331.94096339 226.21720771 331.95197129 214.30883408 C331.96108584 204.03218886 331.96230917 193.75556412 331.95709395 183.47891617 C331.95399707 177.36405059 331.95350144 171.24921708 331.96016693 165.13435364 C331.96600078 159.38199705 331.96183459 153.62972767 331.95037842 147.87738037 C331.9477638 145.78299096 331.94844114 143.68859405 331.95290375 141.59420776 C331.97251116 131.44613194 331.78545513 121.3932889 330.80421448 111.28681946 C330.7277904 110.49267765 330.65136631 109.69853584 330.57262635 108.88032913 C327.81822017 83.50388259 314.01820882 60.19550348 294.80867004 43.67060852 C268.45375095 23.24642355 241.10981751 19.99306549 208.76716614 20.00190735 C206.56950321 19.99891045 204.3718408 19.99550671 202.17417908 19.99172974 C196.23584319 19.98293905 190.29752174 19.98055369 184.35917997 19.97991395 C180.63974198 19.97920059 176.9203076 19.97706086 173.20087051 19.97441673 C160.86764076 19.96565484 148.53441973 19.96099499 136.20118682 19.96174721 C135.53846781 19.96178716 134.87574879 19.96182712 134.19294739 19.96186829 C133.19763211 19.96192961 133.19763211 19.96192961 132.18220945 19.96199217 C121.44202307 19.96239814 110.70187182 19.95283693 99.9616956 19.93872992 C88.89045799 19.92430472 77.8192383 19.91764549 66.7479912 19.9183237 C60.54977061 19.91857735 54.35158981 19.91579986 48.15337753 19.90514565 C42.31740508 19.89538694 36.48150986 19.89543817 30.64553452 19.90266228 C28.51847723 19.90369856 26.39141494 19.90140298 24.26436615 19.89530182 C14.23408599 19.86842256 4.29701576 20.0040284 -5.68800354 21.02954102 Z " fill="#000000" transform="translate(138.3124237060547,21.852828979492188)"/>
</svg>
