<svg width="20" height="21" viewBox="0 0 20 21" fill="none" xmlns="http://www.w3.org/2000/svg">
<path d="M8.33301 4.00521L9.99967 1.92188C5.3973 1.92188 1.66634 5.65284 1.66634 10.2552C1.66634 14.8576 5.3973 18.5885 9.99967 18.5885C14.602 18.5885 18.333 14.8576 18.333 10.2552C18.333 6.83801 16.2762 3.90121 13.333 2.61528" stroke="#101828" stroke-width="1.25" stroke-linecap="round" stroke-linejoin="round"/>
<path d="M10.9102 11.9575C10.9858 12.2517 11.0237 12.5184 11.0237 12.7575C11.0237 12.9138 11.0095 13.0701 10.9811 13.2265C11.0568 13.3736 11.1702 13.4885 11.3215 13.5713C11.4728 13.654 11.6571 13.6954 11.8746 13.6954C12.196 13.6954 12.4513 13.5943 12.6404 13.392C12.8389 13.1805 12.9382 12.8632 12.9382 12.4402C12.9193 11.8058 12.6688 11.0839 12.1866 10.2747C11.7138 9.46554 11.0142 8.63335 10.0877 7.77818C9.28403 8.63335 8.68366 9.45174 8.28657 10.2334C7.88948 11.0058 7.69094 11.6954 7.69094 12.3023C7.69094 13.2127 8.0313 13.6678 8.71203 13.6678C9.05239 13.6678 9.32657 13.5713 9.53457 13.3782C9.74257 13.1759 9.84657 12.8862 9.84657 12.5092C9.84657 12.454 9.83712 12.3437 9.81821 12.1782L10.9102 11.9575ZM6.40039 12.3575C6.40039 11.5759 6.6273 10.7115 7.08112 9.76439C7.54439 8.81726 8.21566 7.87473 9.09494 6.9368L8.62694 6.57818L9.47785 5.46094C10.4989 6.23335 11.364 7.04255 12.0731 7.88852C12.7822 8.72531 13.3117 9.5391 13.6615 10.3299C14.0208 11.1207 14.2004 11.8471 14.2004 12.5092C14.2004 13.0425 14.0869 13.5023 13.86 13.8885C13.6426 14.2747 13.3495 14.569 12.9808 14.7713C12.6215 14.9644 12.2338 15.0609 11.8178 15.0609C11.5342 15.0609 11.26 15.0058 10.9953 14.8954C10.74 14.7759 10.5178 14.615 10.3288 14.4127C10.1208 14.615 9.87021 14.7713 9.57712 14.8816C9.29348 14.992 8.99566 15.0471 8.68366 15.0471C8.28657 15.0471 7.91312 14.946 7.5633 14.7437C7.21348 14.5322 6.92985 14.2242 6.71239 13.8196C6.50439 13.4058 6.40039 12.9184 6.40039 12.3575Z" fill="#101828"/>
</svg>
