<?xml version="1.0" encoding="UTF-8"?>
<svg version="1.1" xmlns="http://www.w3.org/2000/svg" width="176" height="32">
<path d="M0 0 C6.55327899 0.27305329 10.06930548 2.81211141 15 7 C15.74443359 6.36771484 15.74443359 6.36771484 16.50390625 5.72265625 C21.07011394 2.0402307 24.11024529 0.24540645 30 0 C30 1.32 30 2.64 30 4 C30.66 4 31.32 4 32 4 C32.12375 4.639375 32.2475 5.27875 32.375 5.9375 C32.58125 6.618125 32.7875 7.29875 33 8 C33.66 8.33 34.32 8.66 35 9 C35 16.59 35 24.18 35 32 C31.37 31.34 27.74 30.68 24 30 C20.26447971 30.86429586 20.26447971 30.86429586 17 32 C14.0625 31.6875 14.0625 31.6875 11 31 C9.72125 30.773125 8.4425 30.54625 7.125 30.3125 C6.52945312 30.20550781 5.93390625 30.09851563 5.3203125 29.98828125 C2.00082607 29.9131469 2.00082607 29.9131469 -5 32 C-5 24.41 -5 16.82 -5 9 C-4.34 8.67 -3.68 8.34 -3 8 C-2.34786708 5.97536745 -2.34786708 5.97536745 -2 4 C-1.34 4 -0.68 4 0 4 C0 2.68 0 1.36 0 0 Z " fill="#000000" transform="translate(5,0)"/>
<path d="M0 0 C1.65 0 3.3 0 5 0 C5.66 3.3 6.32 6.6 7 10 C8.12880057 6.68885166 9.21302675 3.41021743 10 0 C11.98 0 13.96 0 16 0 C16.19916016 0.95712891 16.19916016 0.95712891 16.40234375 1.93359375 C16.57894531 2.75988281 16.75554687 3.58617187 16.9375 4.4375 C17.11152344 5.26121094 17.28554687 6.08492187 17.46484375 6.93359375 C17.80752994 8.97661204 17.80752994 8.97661204 19 10 C19.66 6.7 20.32 3.4 21 0 C22.65 0 24.3 0 26 0 C25.36026485 3.14710574 24.71219502 6.29243659 24.0625 9.4375 C23.88009766 10.33533203 23.69769531 11.23316406 23.50976562 12.15820312 C23.33251953 13.01220703 23.15527344 13.86621094 22.97265625 14.74609375 C22.81031494 15.53685303 22.64797363 16.3276123 22.48071289 17.14233398 C22 19 22 19 21 20 C19.35 20 17.7 20 16 20 C15.01 16.37 14.02 12.74 13 9 C12.01 12.63 11.02 16.26 10 20 C8.02 20 6.04 20 4 20 C3.32923511 17.23010036 2.66323683 14.45920258 2 11.6875 C1.80921875 10.90181641 1.6184375 10.11613281 1.421875 9.30664062 C1.24140625 8.54931641 1.0609375 7.79199219 0.875 7.01171875 C0.70742187 6.31522217 0.53984375 5.61872559 0.3671875 4.90112305 C0 3 0 3 0 0 Z " fill="#000000" transform="translate(112,7)"/>
<path d="M0 0 C0 5.94 0 11.88 0 18 C1.52625 17.9175 3.0525 17.835 4.625 17.75 C9.74887773 17.72088706 12.12327238 18.73538726 16 22 C16.5775 21.71125 17.155 21.4225 17.75 21.125 C18.4925 20.75375 19.235 20.3825 20 20 C20.598125 19.649375 21.19625 19.29875 21.8125 18.9375 C24.44662632 17.80858872 26.39664437 17.79991169 29.25 17.875 C30.8175 17.91625 32.385 17.9575 34 18 C34 12.06 34 6.12 34 0 C34.99 0.33 35.98 0.66 37 1 C37 8.59 37 16.18 37 24 C33.37 23.34 29.74 22.68 26 22 C22.26447971 22.86429586 22.26447971 22.86429586 19 24 C16.0625 23.6875 16.0625 23.6875 13 23 C11.72125 22.773125 10.4425 22.54625 9.125 22.3125 C8.52945312 22.20550781 7.93390625 22.09851563 7.3203125 21.98828125 C4.00082607 21.9131469 4.00082607 21.9131469 -3 24 C-3 16.41 -3 8.82 -3 1 C-1 0 -1 0 0 0 Z " fill="#000000" transform="translate(3,8)"/>
<path d="M0 0 C11.48740767 -0.37056154 11.48740767 -0.37056154 13.875 1.35546875 C15.43898667 3.64171315 15.20384107 5.28211907 15 8 C14.86426992 10.94087515 14.86426992 10.94087515 15.6875 13.4375 C16 16 16 16 14.9375 18.14453125 C13 20 13 20 9.86328125 20.390625 C6.57552083 20.26041667 3.28776042 20.13020833 0 20 C0 13.4 0 6.8 0 0 Z M4 4 C4 5.32 4 6.64 4 8 C5.98 8 7.96 8 10 8 C10 6.68 10 5.36 10 4 C8.02 4 6.04 4 4 4 Z M4 12 C4 13.32 4 14.64 4 16 C6.31 16 8.62 16 11 16 C10.67 14.68 10.34 13.36 10 12 C8.02 12 6.04 12 4 12 Z " fill="#000000" transform="translate(48,7)"/>
<path d="M0 0 C1.32 0 2.64 0 4 0 C4.33 3.3 4.66 6.6 5 10 C5.99 8.68 6.98 7.36 8 6 C10.6875 5.75 10.6875 5.75 13 6 C12.690625 6.598125 12.38125 7.19625 12.0625 7.8125 C10.89790296 10.08956772 10.89790296 10.08956772 10 13 C10.74851382 15.10234944 10.74851382 15.10234944 11.9375 17.1875 C12.31777344 17.90292969 12.69804688 18.61835938 13.08984375 19.35546875 C13.39019531 19.89816406 13.69054687 20.44085937 14 21 C11.75 21.25 11.75 21.25 9 21 C6.6875 19 6.6875 19 5 17 C4.67 18.32 4.34 19.64 4 21 C2.68 21 1.36 21 0 21 C0 14.07 0 7.14 0 0 Z " fill="#000000" transform="translate(98,6)"/>
<path d="M0 0 C1.875 0.3515625 1.875 0.3515625 3.875 2.0390625 C5.00989245 4.6635013 5.11090819 6.52066428 4.875 9.3515625 C0.42 9.8465625 0.42 9.8465625 -4.125 10.3515625 C-4.125 11.0115625 -4.125 11.6715625 -4.125 12.3515625 C-1.815 11.6915625 0.495 11.0315625 2.875 10.3515625 C3.205 11.6715625 3.535 12.9915625 3.875 14.3515625 C0.71953684 16.45520461 0.31412739 16.61567426 -3.1875 16.1640625 C-3.87972656 16.08800781 -4.57195312 16.01195312 -5.28515625 15.93359375 C-7.125 15.3515625 -7.125 15.3515625 -9.125 12.3515625 C-9.42578125 10.1953125 -9.42578125 10.1953125 -9.4375 7.8515625 C-9.45425781 7.078125 -9.47101563 6.3046875 -9.48828125 5.5078125 C-8.57349242 0.07809813 -4.72931271 -0.19125897 0 0 Z M-3.125 3.3515625 C-4.115 4.8365625 -4.115 4.8365625 -5.125 6.3515625 C-3.475 6.3515625 -1.825 6.3515625 -0.125 6.3515625 C-0.455 5.3615625 -0.785 4.3715625 -1.125 3.3515625 C-1.785 3.3515625 -2.445 3.3515625 -3.125 3.3515625 Z " fill="#000000" transform="translate(170.125,11.6484375)"/>
<path d="M0 0 C1.875 1.0625 1.875 1.0625 3 3 C3.98586223 6.80261145 4.29822018 9.14261699 3 12.875 C1 15 1 15 -2.4375 16 C-6 16 -6 16 -8.375 15.0625 C-10.81218623 11.96914825 -11.0860587 8.88046489 -11 5 C-10.1875 2.5625 -10.1875 2.5625 -9 1 C-5.95016004 -0.52491998 -3.3576631 -0.23562548 0 0 Z M-4 3 C-4.99 3.495 -4.99 3.495 -6 4 C-6 6.31 -6 8.62 -6 11 C-4.05396726 11.59070014 -4.05396726 11.59070014 -2 12 C-0.58422523 10.81575674 -0.58422523 10.81575674 -0.9375 7.4375 C-0.958125 6.303125 -0.97875 5.16875 -1 4 C-1.99 3.67 -2.98 3.34 -4 3 Z " fill="#000000" transform="translate(76,12)"/>
<path d="M0 0 C2.52695649 0.56550841 3.41664086 1.34997022 4.9375 3.43359375 C5.8043959 7.67435479 5.5922853 11.33355444 3.375 15.05859375 C0.9375 16.43359375 0.9375 16.43359375 -2.625 16.43359375 C-6.0625 15.43359375 -6.0625 15.43359375 -8 13.80859375 C-9.484773 10.48968939 -9.44784485 8.03014569 -9.0625 4.43359375 C-7.19324789 -0.12270828 -4.45442078 -0.0084364 0 0 Z M-2.0625 3.43359375 C-3.0525 3.92859375 -3.0525 3.92859375 -4.0625 4.43359375 C-4.0625 6.74359375 -4.0625 9.05359375 -4.0625 11.43359375 C-2.11646726 12.02429389 -2.11646726 12.02429389 -0.0625 12.43359375 C1.26495166 11.32100784 1.26495166 11.32100784 1.1875 8.49609375 C1.06375 6.98015625 1.06375 6.98015625 0.9375 5.43359375 C-0.0525 4.77359375 -1.0425 4.11359375 -2.0625 3.43359375 Z " fill="#000000" transform="translate(90.0625,11.56640625)"/>
<path d="M0 0 C0.70125 -0.01675781 1.4025 -0.03351562 2.125 -0.05078125 C2.74375 0.06910156 3.3625 0.18898438 4 0.3125 C4.66 1.3025 5.32 2.2925 6 3.3125 C3 5.3125 3 5.3125 0.8125 4.9375 C0.214375 4.73125 -0.38375 4.525 -1 4.3125 C-1 4.6425 -1 4.9725 -1 5.3125 C-0.030625 5.621875 0.93875 5.93125 1.9375 6.25 C5 7.3125 5 7.3125 6 8.3125 C6.3125 10.6875 6.3125 10.6875 6 13.3125 C4.4375 15.1875 4.4375 15.1875 2 16.3125 C-1.625 16.1875 -1.625 16.1875 -5 15.3125 C-5.66 14.3225 -6.32 13.3325 -7 12.3125 C-5.3125 11.1875 -5.3125 11.1875 -3 10.3125 C-0.25 11.1875 -0.25 11.1875 2 12.3125 C2 11.6525 2 10.9925 2 10.3125 C1.05125 10.18875 0.1025 10.065 -0.875 9.9375 C-4 9.3125 -4 9.3125 -6 7.3125 C-6.25 4.8125 -6.25 4.8125 -6 2.3125 C-3.67471713 -0.01278287 -3.15334102 0.01738975 0 0 Z " fill="#000000" transform="translate(153,11.6875)"/>
<path d="M0 0 C1.32 0 2.64 0 4 0 C4 4.95 4 9.9 4 15 C2.68 15 1.36 15 0 15 C0 10.05 0 5.1 0 0 Z " fill="#000000" transform="translate(140,12)"/>
<path d="M0 0 C2.475 0.495 2.475 0.495 5 1 C4.67 2.32 4.34 3.64 4 5 C2.68 4.67 1.36 4.34 0 4 C0 2.68 0 1.36 0 0 Z " fill="#000000" transform="translate(140,6)"/>
</svg>
