<svg width="32" height="32" viewBox="0 0 32 32" fill="none" xmlns="http://www.w3.org/2000/svg">
<path d="M27.3334 9.33203V17.332C27.3334 22.3603 27.3334 24.8745 25.7713 26.4366C24.2092 27.9987 21.6951 27.9987 16.6667 27.9987H15.3334C10.3051 27.9987 7.79094 27.9987 6.22885 26.4366C4.66675 24.8745 4.66675 22.3603 4.66675 17.332V9.33203" stroke="#597EF7" stroke-width="3" stroke-linecap="round"/>
<path d="M2.66675 6.66667C2.66675 5.40959 2.66675 4.78105 3.05727 4.39052C3.4478 4 4.07634 4 5.33341 4H26.6667C27.9238 4 28.5524 4 28.9429 4.39052C29.3334 4.78105 29.3334 5.40959 29.3334 6.66667C29.3334 7.92375 29.3334 8.55228 28.9429 8.94281C28.5524 9.33333 27.9238 9.33333 26.6667 9.33333H5.33342C4.07634 9.33333 3.4478 9.33333 3.05727 8.94281C2.66675 8.55228 2.66675 7.92375 2.66675 6.66667Z" stroke="#597EF7" stroke-width="3"/>
<path d="M12.6667 17.868L14.5715 20.0013L19.3334 14.668" stroke="#597EF7" stroke-width="3" stroke-linecap="round" stroke-linejoin="round"/>
</svg>
