<svg width="18" height="18" viewBox="0 0 18 18" fill="none" xmlns="http://www.w3.org/2000/svg">
<path d="M9 16.5599C8.775 16.5599 8.55 16.5074 8.3625 16.4024C6.96 15.6374 4.4925 14.8274 2.9475 14.6249L2.73 14.5949C1.7475 14.4749 0.9375 13.5524 0.9375 12.5549V3.49488C0.9375 2.90238 1.17 2.36238 1.5975 1.97238C2.025 1.58238 2.58 1.39488 3.165 1.44738C4.815 1.57488 7.305 2.39988 8.715 3.28488L8.895 3.38988C8.9475 3.41988 9.06 3.41988 9.105 3.39738L9.225 3.32238C10.635 2.43738 13.125 1.59738 14.7825 1.45488C14.7975 1.45488 14.8575 1.45488 14.8725 1.45488C15.42 1.40238 15.9825 1.59738 16.4025 1.98738C16.83 2.37738 17.0625 2.91738 17.0625 3.50988V12.5624C17.0625 13.5674 16.2525 14.4824 15.2625 14.6024L15.015 14.6324C13.47 14.8349 10.995 15.6524 9.6225 16.4099C9.4425 16.5149 9.225 16.5599 9 16.5599ZM2.985 2.56488C2.745 2.56488 2.5275 2.64738 2.355 2.80488C2.1675 2.97738 2.0625 3.22488 2.0625 3.49488V12.5549C2.0625 12.9974 2.445 13.4249 2.8725 13.4849L3.0975 13.5149C4.785 13.7399 7.3725 14.5874 8.8725 15.4049C8.94 15.4349 9.0375 15.4424 9.075 15.4274C10.575 14.5949 13.1775 13.7399 14.8725 13.5149L15.1275 13.4849C15.555 13.4324 15.9375 12.9974 15.9375 12.5549V3.50238C15.9375 3.22488 15.8325 2.98488 15.645 2.80488C15.45 2.63238 15.2025 2.54988 14.925 2.56488C14.91 2.56488 14.85 2.56488 14.835 2.56488C13.4025 2.69238 11.0925 3.46488 9.8325 4.25238L9.7125 4.33488C9.3 4.58988 8.715 4.58988 8.3175 4.34238L8.1375 4.23738C6.855 3.44988 4.545 2.68488 3.075 2.56488C3.045 2.56488 3.015 2.56488 2.985 2.56488Z" fill="#A5CFE7"/>
<path d="M9 15.9299C8.6925 15.9299 8.4375 15.6749 8.4375 15.3674V4.11743C8.4375 3.80993 8.6925 3.55493 9 3.55493C9.3075 3.55493 9.5625 3.80993 9.5625 4.11743V15.3674C9.5625 15.6824 9.3075 15.9299 9 15.9299Z" fill="#A5CFE7"/>
<path d="M5.8125 6.92993H4.125C3.8175 6.92993 3.5625 6.67493 3.5625 6.36743C3.5625 6.05993 3.8175 5.80493 4.125 5.80493H5.8125C6.12 5.80493 6.375 6.05993 6.375 6.36743C6.375 6.67493 6.12 6.92993 5.8125 6.92993Z" fill="#A5CFE7"/>
<path d="M6.375 9.17993H4.125C3.8175 9.17993 3.5625 8.92493 3.5625 8.61743C3.5625 8.30993 3.8175 8.05493 4.125 8.05493H6.375C6.6825 8.05493 6.9375 8.30993 6.9375 8.61743C6.9375 8.92493 6.6825 9.17993 6.375 9.17993Z" fill="#A5CFE7"/>
</svg>
