<?xml version="1.0" encoding="UTF-8"?>
<svg version="1.1" xmlns="http://www.w3.org/2000/svg" width="512" height="512">
<path d="M0 0 C1.58618457 -0.00462083 3.17236485 -0.0109816 4.75853634 -0.01890898 C9.07401033 -0.0354634 13.38912627 -0.02741994 17.70460081 -0.0149641 C22.3754479 -0.00585846 27.04623636 -0.0199105 31.71707153 -0.03088379 C40.85017214 -0.04861509 49.98314081 -0.04485313 59.11624646 -0.03323323 C66.54283046 -0.02417789 73.96937764 -0.02298397 81.39596558 -0.02732849 C82.4553411 -0.02794142 83.51471662 -0.02855436 84.60619444 -0.02918586 C86.75869347 -0.03046484 88.91119249 -0.03176169 91.0636915 -0.03307623 C111.2196465 -0.04446624 131.37552857 -0.03139313 151.53147161 -0.00987476 C168.80397656 0.00799477 186.07637395 0.00489022 203.34887695 -0.0135498 C223.43562495 -0.03498444 243.52230913 -0.04336775 263.60906696 -0.03110075 C265.75338553 -0.02982663 267.89770411 -0.02856915 270.04202271 -0.02732849 C271.62434697 -0.02640284 271.62434697 -0.02640284 273.23863739 -0.02545848 C280.6512032 -0.02201336 288.06372833 -0.02781582 295.47628784 -0.0372467 C304.51703385 -0.04849691 313.55764104 -0.04536329 322.59837127 -0.02412373 C327.2058677 -0.01365389 331.81313318 -0.00942164 336.42062759 -0.02272034 C340.6473407 -0.03473494 344.87361114 -0.02793422 349.1002847 -0.00681013 C350.62027719 -0.00238213 352.14030793 -0.00452349 353.66027534 -0.01431328 C366.75853276 -0.09213259 379.1809629 1.98222958 390.90649414 8.13293457 C391.56665527 8.47429443 392.22681641 8.8156543 392.90698242 9.1673584 C409.98928526 18.36123143 422.73759125 34.19458674 428.7294879 52.61429691 C431.48205823 62.07833338 432.29033698 70.94414149 432.22692871 80.78894043 C432.23154954 82.375125 432.23791031 83.96130528 432.24583769 85.54747677 C432.26239211 89.86295076 432.25434865 94.1780667 432.24189281 98.49354124 C432.23278717 103.16438833 432.24683921 107.83517679 432.2578125 112.50601196 C432.2755438 121.63911257 432.27178184 130.77208124 432.26016194 139.90518689 C432.2511066 147.33177089 432.24991268 154.75831807 432.2542572 162.18490601 C432.25487013 163.24428153 432.25548307 164.30365705 432.25611457 165.39513487 C432.25739355 167.5476339 432.2586904 169.70013292 432.26000494 171.85263193 C432.27139495 192.00858693 432.25832184 212.164469 432.23680347 232.32041204 C432.21893394 249.59291699 432.22203849 266.86531438 432.24047852 284.13781738 C432.26191315 304.22456538 432.27029646 324.31124956 432.25802946 344.39800739 C432.25675534 346.54232596 432.25549786 348.68664454 432.2542572 350.83096313 C432.2536401 351.88584598 432.253023 352.94072883 432.2523872 354.02757782 C432.24894207 361.44014363 432.25474453 368.85266876 432.26417542 376.26522827 C432.27542562 385.30597428 432.27229201 394.34658147 432.25105244 403.3873117 C432.2405826 407.99480813 432.23635035 412.60207361 432.24964905 417.20956802 C432.26166365 421.43628112 432.25486293 425.66255157 432.23373884 429.88922513 C432.22931084 431.40921761 432.2314522 432.92924836 432.24124199 434.44921577 C432.3190613 447.54747319 430.24469914 459.96990333 424.09399414 471.69543457 C423.75263428 472.3555957 423.41127441 473.01575684 423.05957031 473.69592285 C413.86569728 490.77822569 398.03234197 503.52653168 379.6126318 509.51842833 C370.14859533 512.27099866 361.28278722 513.07927741 351.43798828 513.01586914 C349.85180371 513.02048997 348.26562344 513.02685074 346.67945194 513.03477812 C342.36397795 513.05133254 338.04886202 513.04328908 333.73338747 513.03083324 C329.06254038 513.0217276 324.39175192 513.03577964 319.72091675 513.04675293 C310.58781614 513.06448423 301.45484747 513.06072227 292.32174182 513.04910237 C284.89515782 513.04004703 277.46861065 513.03885311 270.04202271 513.04319763 C268.98264718 513.04381056 267.92327166 513.0444235 266.83179384 513.045055 C264.67929481 513.04633398 262.52679579 513.04763083 260.37429678 513.04894537 C240.21834179 513.06033538 220.06245971 513.04726227 199.90651667 513.0257439 C182.63401173 513.00787437 165.36161433 513.01097892 148.08911133 513.02941895 C128.00236333 513.05085358 107.91567915 513.05923689 87.82892132 513.04696989 C85.68460275 513.04569577 83.54028417 513.04443829 81.39596558 513.04319763 C79.81364131 513.04227198 79.81364131 513.04227198 78.19935089 513.04132763 C70.78678508 513.0378825 63.37425995 513.04368496 55.96170044 513.05311584 C46.92095443 513.06436605 37.88034724 513.06123244 28.83961701 513.03999287 C24.23212058 513.02952303 19.6248551 513.02529078 15.01736069 513.03858948 C10.79064759 513.05060408 6.56437714 513.04380336 2.33770359 513.02267927 C0.8177111 513.01825127 -0.70231965 513.02039263 -2.22228706 513.03018242 C-21.9558289 513.14742325 -39.13402871 507.42652939 -54.28100586 494.50793457 C-55.08666992 493.90078613 -55.89233398 493.2936377 -56.72241211 492.66809082 C-70.41178783 481.11049574 -78.96710458 462.22728299 -80.6532526 444.62104988 C-80.79182661 440.4844716 -80.81559223 436.36490081 -80.78894043 432.22692871 C-80.79356126 430.64074414 -80.79992203 429.05456387 -80.80784941 427.46839237 C-80.82440383 423.15291838 -80.81636037 418.83780245 -80.80390453 414.5223279 C-80.79479889 409.85148081 -80.80885093 405.18069235 -80.81982422 400.50985718 C-80.83755552 391.37675657 -80.83379356 382.2437879 -80.82217366 373.11068225 C-80.81311832 365.68409825 -80.8119244 358.25755108 -80.81626892 350.83096313 C-80.81688185 349.77158761 -80.81749479 348.71221209 -80.81812629 347.62073427 C-80.81940527 345.46823524 -80.82070212 343.31573622 -80.82201666 341.16323721 C-80.83340667 321.00728222 -80.82033356 300.85140014 -80.79881519 280.6954571 C-80.78094566 263.42295216 -80.78405021 246.15055476 -80.80249023 228.87805176 C-80.82392487 208.79130376 -80.83230818 188.70461958 -80.82004118 168.61786175 C-80.81876706 166.47354318 -80.81750958 164.3292246 -80.81626892 162.18490601 C-80.81534327 160.60258174 -80.81534327 160.60258174 -80.81439891 158.98829132 C-80.81095379 151.57572551 -80.81675625 144.16320038 -80.82618713 136.75064087 C-80.83743734 127.70989486 -80.83430372 118.66928767 -80.81306416 109.62855744 C-80.80259431 105.02106101 -80.79836207 100.41379553 -80.81166077 95.80630112 C-80.82367537 91.57958802 -80.81687465 87.35331757 -80.79575056 83.12664402 C-80.79132256 81.60665153 -80.79346392 80.08662078 -80.80325371 78.56665337 C-80.88107302 65.46839595 -78.80671085 53.04596581 -72.65600586 41.32043457 C-72.314646 40.66027344 -71.97328613 40.0001123 -71.62158203 39.31994629 C-62.427709 22.23764345 -46.59435369 9.48933746 -28.17464352 3.49744081 C-18.71060705 0.74487048 -9.84479894 -0.06340827 0 0 Z M-39.28100586 47.50793457 C-49.99037111 60.45611109 -50.43399518 75.09605147 -50.41471863 91.16973877 C-50.41658908 92.65316998 -50.41889072 94.1366007 -50.42158395 95.62003064 C-50.42767933 99.67917076 -50.42757103 103.73829021 -50.42638958 107.79743385 C-50.426185 112.18202657 -50.43170978 116.56661275 -50.43644714 120.95120239 C-50.44474179 129.53496387 -50.44750145 138.11871848 -50.44805952 146.70248362 C-50.44853524 153.68204055 -50.45059275 160.66159522 -50.45376015 167.64115143 C-50.46256341 187.44363585 -50.46718002 207.24611485 -50.46642967 227.04860124 C-50.46638972 228.11541561 -50.46634976 229.18222999 -50.46630859 230.28137207 C-50.46626771 231.34949384 -50.46622683 232.41761561 -50.46618471 233.5181047 C-50.46577831 250.82611738 -50.47534717 268.1341083 -50.48944696 285.44211468 C-50.50382113 303.2277291 -50.51071657 321.01333292 -50.50985318 338.79895329 C-50.50952158 348.77864454 -50.51225268 358.75831296 -50.52303123 368.73799896 C-50.53214992 377.23506286 -50.53430024 385.7320936 -50.52752181 394.22916028 C-50.52426355 398.56087653 -50.5241748 402.8925292 -50.53287506 407.22423935 C-50.5407717 411.19684049 -50.53927655 415.16932797 -50.53059093 419.14192644 C-50.52906288 420.57189323 -50.5308456 422.00186863 -50.536451 423.43182525 C-50.60185956 441.31555008 -48.53948633 455.90043482 -35.76928711 469.25012207 C-21.97468474 481.76704542 -7.43340937 482.66301123 10.38079834 482.64164734 C11.86422955 482.6435178 13.34766027 482.64581943 14.83109021 482.64851266 C18.89023033 482.65460804 22.94934978 482.65449974 27.00849342 482.65331829 C31.39308614 482.65311371 35.77767232 482.65863849 40.16226196 482.66337585 C48.74602344 482.6716705 57.32977805 482.67443016 65.91354319 482.67498823 C72.89310012 482.67546395 79.87265479 482.67752146 86.852211 482.68068886 C106.65469542 482.68949212 126.45717442 482.69410874 146.25966081 482.69335838 C147.85988237 482.69329845 147.85988237 482.69329845 149.49243164 482.6932373 C150.56055341 482.69319642 151.62867518 482.69315554 152.72916427 482.69311342 C170.03717695 482.69270702 187.34516787 482.70227589 204.65317425 482.71637567 C222.43878867 482.73074984 240.22439249 482.73764528 258.01001287 482.7367819 C267.98970411 482.73645029 277.96937253 482.73918139 287.94905853 482.74995995 C296.44612243 482.75907863 304.94315317 482.76122895 313.44021985 482.75445052 C317.7719361 482.75119226 322.10358877 482.75110351 326.43529892 482.75980377 C330.40790006 482.76770041 334.38038754 482.76620526 338.35298601 482.75751964 C339.7829528 482.75599159 341.2129282 482.75777431 342.64288482 482.76337972 C360.52660966 482.82878827 375.11149439 480.76641504 388.46118164 467.99621582 C400.97810499 454.20161345 401.8740708 439.66033808 401.85270691 421.84613037 C401.85457737 420.36269916 401.856879 418.87926844 401.85957223 417.3958385 C401.86566761 413.33669838 401.86555931 409.27757893 401.86437786 405.21843529 C401.86417328 400.83384257 401.86969806 396.44925639 401.87443542 392.06466675 C401.88273007 383.48090527 401.88548973 374.89715067 401.8860478 366.31338552 C401.88652352 359.33382859 401.88858103 352.35427392 401.89174843 345.37471771 C401.90055169 325.57223329 401.90516831 305.76975429 401.90441795 285.9672679 C401.904378 284.90045353 401.90433804 283.83363915 401.90429688 282.73449707 C401.90425599 281.6663753 401.90421511 280.59825353 401.90417299 279.49776444 C401.90376659 262.18975176 401.91333546 244.88176084 401.92743524 227.57375446 C401.94180941 209.78814004 401.94870486 192.00253622 401.94784147 174.21691585 C401.94750986 164.2372246 401.95024096 154.25755618 401.96101952 144.27787018 C401.9701382 135.78080628 401.97228852 127.28377554 401.96551009 118.78670886 C401.96225183 114.45499261 401.96216308 110.12333994 401.97086334 105.79162979 C401.97875998 101.81902865 401.97726483 97.84654117 401.96857921 93.8739427 C401.96705116 92.44397591 401.96883388 91.01400051 401.97443929 89.58404389 C402.04030155 71.57626864 399.93540591 57.10128339 387.06665039 43.69543457 C373.70676311 31.24695391 358.49592126 30.3533082 341.05718994 30.3742218 C339.57375873 30.37235135 338.09032801 30.37004971 336.60689807 30.36735648 C332.54775795 30.3612611 328.4886385 30.3613694 324.42949486 30.36255085 C320.04490214 30.36275543 315.66031596 30.35723065 311.27572632 30.35249329 C302.69196484 30.34419864 294.10821024 30.34143898 285.52444509 30.34088091 C278.54488816 30.34040519 271.56533349 30.33834768 264.58577728 30.33518028 C244.78329286 30.32637702 224.98081386 30.3217604 205.17832747 30.32251076 C203.57810591 30.32257069 203.57810591 30.32257069 201.94555664 30.32263184 C200.87743487 30.32267272 199.8093131 30.3227136 198.70882401 30.32275572 C181.40081133 30.32316212 164.09282041 30.31359326 146.78481403 30.29949347 C128.99919961 30.2851193 111.21359579 30.27822386 93.42797542 30.27908725 C83.44828417 30.27941885 73.46861575 30.27668775 63.48892975 30.26590919 C54.99186585 30.25679051 46.49483511 30.25464019 37.99776843 30.26141862 C33.66605218 30.26467688 29.33439951 30.26476563 25.00268936 30.25606537 C21.03008823 30.24816873 17.05760074 30.24966388 13.08500227 30.2583495 C11.65503548 30.25987755 10.22506008 30.25809483 8.79510346 30.25248943 C-10.50186061 30.18191204 -25.66427068 32.89425985 -39.28100586 47.50793457 Z " fill="#ffffff" transform="translate(80.281005859375,-0.5079345703125)"/>
<path d="M0 0 C16.06302168 15.41510147 28.96239866 37.58120593 29.82172108 60.29827118 C29.83103648 61.63302603 29.83503148 62.967825 29.83467102 64.3026123 C29.83834771 65.04262844 29.8420244 65.78264457 29.8458125 66.54508543 C29.85678684 69.01378808 29.86068239 71.48244856 29.86450195 73.95117188 C29.87077102 75.72555167 29.87741821 77.49993017 29.88441467 79.27430725 C29.90539378 85.0891123 29.915807 90.90391745 29.92578125 96.71875 C29.92983023 98.72269199 29.93394719 100.72663385 29.93813133 102.73057556 C29.95716452 112.14065246 29.97140301 121.55072157 29.9797433 130.960814 C29.989528 141.82036292 30.01588746 152.67970869 30.05624419 163.539186 C30.08638438 171.93763449 30.10120993 180.33602463 30.10452431 188.73452616 C30.10687593 193.74929236 30.115852 198.76384103 30.14098549 203.77854919 C30.16423643 208.49329005 30.16851148 213.20766963 30.15822411 217.92245293 C30.15772801 219.65183653 30.16407004 221.38123776 30.17778015 223.11056709 C30.19546311 225.47327435 30.18841187 227.83467964 30.17524719 230.1973877 C30.18621644 230.88007957 30.19718568 231.56277144 30.20848733 232.26615095 C30.14245214 237.18164919 28.72747379 239.94800283 25.6875 243.75 C21.73786645 246.91627315 18.59311747 247.13249303 13.60571289 247.15405273 C12.91236343 247.16091599 12.21901398 247.16777924 11.50465393 247.17485046 C9.22294372 247.19308446 6.94192337 247.18928604 4.66015625 247.18359375 C3.06741615 247.18815731 1.47467803 247.19346341 -0.11805725 247.19947815 C-3.45272837 247.20840262 -6.78715992 247.20599393 -10.12182617 247.19604492 C-14.3868197 247.18455775 -18.65098497 247.20476552 -22.91586971 247.23396206 C-26.20424111 247.25234382 -29.49241476 247.25202769 -32.78082466 247.24632454 C-34.35284143 247.24617156 -35.9248718 247.25219697 -37.49683952 247.26461601 C-39.69885476 247.27956205 -41.89934939 247.26882476 -44.10131836 247.25170898 C-45.35198593 247.25154282 -46.6026535 247.25137665 -47.89122009 247.25120544 C-52.02855185 246.64510093 -54.11353854 245.41635709 -57.3125 242.75 C-60.01307919 239.02021412 -60.68876524 236.4390339 -60.69776917 231.8631134 C-60.70741699 230.68429596 -60.71706482 229.50547852 -60.727005 228.29093933 C-60.72242783 227.00617203 -60.71785065 225.72140472 -60.71313477 224.39770508 C-60.71888032 223.02404178 -60.72596433 221.65038352 -60.73428345 220.2767334 C-60.74938034 217.3225671 -60.75517218 214.36858133 -60.75375557 211.41437721 C-60.751718 206.73584121 -60.77131709 202.05754673 -60.79393005 197.3790741 C-60.83489464 188.28441078 -60.8534969 179.1897665 -60.87010193 170.09503174 C-60.89245581 158.53703208 -60.92617943 146.97908865 -60.97730106 135.42117995 C-60.9971323 130.77834428 -61.00679673 126.13563476 -61.00825322 121.49275839 C-61.01102094 118.59254422 -61.02188944 115.69239863 -61.03476334 112.79221344 C-61.04102301 110.82372003 -61.0374662 108.8552029 -61.03352356 106.88670349 C-61.09356883 96.39622858 -61.73006872 86.33577994 -68.3125 77.75 C-76.09838525 70.22268658 -83.11240249 68.25689309 -93.8359375 68.4375 C-101.63451021 69.1384953 -108.12907908 72.91865146 -113.3125 78.75 C-119.82121938 88.1876431 -119.60355201 99.71871332 -119.56787109 110.73339844 C-119.57062688 112.11428534 -119.57431032 113.49517064 -119.57884216 114.87605286 C-119.58690102 117.82956847 -119.58913623 120.78300862 -119.58689499 123.73653412 C-119.58404374 128.41013183 -119.59847864 133.08358063 -119.61587524 137.75714111 C-119.66273767 151.03973197 -119.68685452 164.32231049 -119.69335938 177.60498047 C-119.69711123 184.95624354 -119.71514217 192.30733585 -119.74845374 199.65852571 C-119.7686374 204.30175033 -119.77105432 208.94453377 -119.76017356 213.58778429 C-119.75756368 216.47585859 -119.77158213 219.36367645 -119.79025459 222.25168419 C-119.79809762 224.22328809 -119.78615132 226.19493978 -119.77357483 228.16651917 C-119.87649711 239.18653839 -119.87649711 239.18653839 -124.3125 243.75 C-128.26213355 246.91627315 -131.40688253 247.13249303 -136.39428711 247.15405273 C-137.08763657 247.16091599 -137.78098602 247.16777924 -138.49534607 247.17485046 C-140.77705628 247.19308446 -143.05807663 247.18928604 -145.33984375 247.18359375 C-146.93258385 247.18815731 -148.52532197 247.19346341 -150.11805725 247.19947815 C-153.45272837 247.20840262 -156.78715992 247.20599393 -160.12182617 247.19604492 C-164.3868197 247.18455775 -168.65098497 247.20476552 -172.91586971 247.23396206 C-176.20424111 247.25234382 -179.49241476 247.25202769 -182.78082466 247.24632454 C-184.35284143 247.24617156 -185.9248718 247.25219697 -187.49683952 247.26461601 C-189.69885476 247.27956205 -191.89934939 247.26882476 -194.10131836 247.25170898 C-195.35198593 247.25154282 -196.6026535 247.25137665 -197.89122009 247.25120544 C-202.8036788 246.53154756 -205.82290533 244.56772515 -208.95932007 240.74041557 C-210.9356264 236.37294226 -210.72981049 232.36433345 -210.70018005 227.62220764 C-210.70825836 226.07856676 -210.70825836 226.07856676 -210.71649987 224.5037412 C-210.73082321 221.05063145 -210.72366476 217.59790267 -210.71655273 214.14477539 C-210.72225399 211.67104279 -210.72921729 209.19731283 -210.73735046 206.72358704 C-210.75345643 200.69899151 -210.75537705 194.67454602 -210.75013756 188.64994366 C-210.74609594 183.75307807 -210.74753932 178.85624331 -210.75288582 173.9593792 C-210.75363424 173.26239795 -210.75438266 172.56541671 -210.75515376 171.84731482 C-210.75668524 170.43139287 -210.75822359 169.01547092 -210.75976873 167.59954899 C-210.77349631 154.32166999 -210.76805428 141.04384991 -210.75658352 127.76597225 C-210.74665077 115.6196817 -210.75959202 103.47354347 -210.78351771 91.32727642 C-210.80790236 78.85399641 -210.81751816 66.38078736 -210.81086498 53.90748399 C-210.80737135 46.90525313 -210.80961426 39.90313943 -210.82711601 32.90092659 C-210.84336742 26.31732027 -210.83866623 19.73395785 -210.81981087 13.15034294 C-210.81611583 10.73241101 -210.81925991 8.31445764 -210.82969666 5.89654541 C-210.84284508 2.59895032 -210.83141262 -0.69767121 -210.81370544 -3.995224 C-210.82331045 -4.95485532 -210.83291546 -5.91448665 -210.84281152 -6.90319771 C-210.78061287 -12.52257625 -210.10285697 -15.81060281 -206.3125 -20.25 C-202.36286645 -23.41627315 -199.21811747 -23.63249303 -194.23071289 -23.65405273 C-193.53736343 -23.66091599 -192.84401398 -23.66777924 -192.12965393 -23.67485046 C-189.84794372 -23.69308446 -187.56692337 -23.68928604 -185.28515625 -23.68359375 C-183.69241615 -23.68815731 -182.09967803 -23.69346341 -180.50694275 -23.69947815 C-177.17227163 -23.70840262 -173.83784008 -23.70599393 -170.50317383 -23.69604492 C-166.2381803 -23.68455775 -161.97401503 -23.70476552 -157.70913029 -23.73396206 C-154.42075889 -23.75234382 -151.13258524 -23.75202769 -147.84417534 -23.74632454 C-146.27215857 -23.74617156 -144.7001282 -23.75219697 -143.12816048 -23.76461601 C-140.92614524 -23.77956205 -138.72565061 -23.76882476 -136.52368164 -23.75170898 C-134.64768028 -23.75145973 -134.64768028 -23.75145973 -132.73377991 -23.75120544 C-128.65872957 -23.15422494 -126.50847573 -21.80151709 -123.3125 -19.25 C-121.12547638 -16.26106771 -120.3125 -14.97055546 -120.3125 -11.25 C-119.45011719 -11.69730469 -118.58773437 -12.14460937 -117.69921875 -12.60546875 C-110.43197478 -16.24970206 -103.25359546 -19.07946851 -95.375 -21.125 C-94.59535889 -21.32762451 -93.81571777 -21.53024902 -93.01245117 -21.73901367 C-60.51385785 -29.76750719 -25.49978128 -21.5705697 0 0 Z M-180.3125 6.75 C-180.3125 76.05 -180.3125 145.35 -180.3125 216.75 C-170.4125 216.75 -160.5125 216.75 -150.3125 216.75 C-150.3031543 212.84969971 -150.29380859 208.94939941 -150.28417969 204.9309082 C-150.25034576 192.01474711 -150.19495996 179.09875284 -150.12859726 166.18272114 C-150.08890101 158.35512796 -150.05646098 150.52763395 -150.04150391 142.69995117 C-150.02843828 135.87200914 -150.0013496 129.04428617 -149.95788693 122.21646756 C-149.93538156 118.60596635 -149.91958268 114.9957342 -149.92061615 111.38515663 C-149.92150983 107.3402058 -149.89107545 103.29603987 -149.85839844 99.2512207 C-149.8634288 98.07301254 -149.86845917 96.89480438 -149.87364197 95.68089294 C-149.67347986 79.56577892 -143.6518573 65.60060327 -132.5859375 53.96484375 C-119.95456127 41.65901845 -104.89958731 37.33002576 -87.68041992 37.38427734 C-70.78055268 37.69121486 -57.01725845 44.73559185 -45.3125 56.75 C-34.41599285 68.59720911 -31.02180671 83.09335989 -30.99365234 98.68359375 C-30.97858391 100.60192268 -30.97858391 100.60192268 -30.96321106 102.55900574 C-30.93605512 106.04394552 -30.92080475 109.52884521 -30.90778303 113.01386261 C-30.89208899 116.66407334 -30.86531897 120.31420295 -30.8397522 123.96435547 C-30.79307498 130.8666304 -30.75627759 137.76892079 -30.72307932 144.67127228 C-30.68477952 152.53351085 -30.6353901 160.39566773 -30.58509517 168.2578373 C-30.48193986 184.42183829 -30.3940901 200.58587358 -30.3125 216.75 C-20.4125 216.75 -10.5125 216.75 -0.3125 216.75 C-0.26721699 197.99029412 -0.23043194 179.23063303 -0.20887566 160.47088623 C-0.19859721 151.75889112 -0.18460313 143.04693257 -0.16162109 134.33496094 C-0.14158147 126.73471614 -0.12875868 119.13449785 -0.12432301 111.53422737 C-0.12173339 107.51621338 -0.1157197 103.49827516 -0.10103989 99.48028564 C-0.08728815 95.68494059 -0.08331217 91.88970126 -0.08628464 88.09433365 C-0.08548701 86.06489958 -0.07481874 84.03547655 -0.06365967 82.006073 C-0.11071134 60.60583624 -3.80154153 41.65518842 -18.9375 25.5625 C-33.7082931 11.54804269 -51.85043549 6.238485 -71.85546875 6.53515625 C-82.67190691 6.90893744 -92.63330862 10.04558855 -102.3125 14.75 C-103.15296875 15.15734375 -103.9934375 15.5646875 -104.859375 15.984375 C-110.90687374 19.25849852 -115.44565203 23.55345286 -120.11523438 28.52368164 C-123.81476454 32.43901773 -126.79053424 35.40792486 -132.25 36.1484375 C-133.260625 36.14070313 -134.27125 36.13296875 -135.3125 36.125 C-136.323125 36.13273437 -137.33375 36.14046875 -138.375 36.1484375 C-142.73407009 35.55718065 -145.1935483 34.02209741 -148.08203125 30.73828125 C-149.94442123 26.21533415 -149.88519564 21.78343285 -150 16.9375 C-150.103125 13.575625 -150.20625 10.21375 -150.3125 6.75 C-160.2125 6.75 -170.1125 6.75 -180.3125 6.75 Z " fill="#ffffff" transform="translate(406.3125,204.25)"/>
<path d="M0 0 C0.69334946 -0.00686325 1.38669891 -0.0137265 2.10105896 -0.02079773 C4.38276917 -0.03903173 6.66378952 -0.03523331 8.94555664 -0.02954102 C10.53829674 -0.03410458 12.13103486 -0.03941067 13.72377014 -0.04542542 C17.05844126 -0.05434989 20.39287281 -0.0519412 23.72753906 -0.04199219 C27.99253259 -0.03050502 32.25669786 -0.05071278 36.5215826 -0.07990932 C39.809954 -0.09829109 43.09812765 -0.09797495 46.38653755 -0.0922718 C47.95855432 -0.09211882 49.53058469 -0.09814423 51.10255241 -0.11056328 C53.30456765 -0.12550931 55.50506229 -0.11477202 57.70703125 -0.09765625 C59.58303261 -0.097407 59.58303261 -0.097407 61.49693298 -0.09715271 C66.40939169 0.62250517 69.42861822 2.58632759 72.56503296 6.41363716 C74.54133929 10.78111047 74.33552338 14.78971929 74.30589294 19.53184509 C74.31127848 20.56093902 74.31666402 21.59003294 74.32221276 22.65031153 C74.3365361 26.10342128 74.32937766 29.55615006 74.32226562 33.00927734 C74.32796688 35.48300994 74.33493018 37.9567399 74.34306335 40.4304657 C74.35916932 46.45506123 74.36108994 52.47950671 74.35585045 58.50410908 C74.35180883 63.40097466 74.35325221 68.29780943 74.35859871 73.19467354 C74.35934713 73.89165478 74.36009555 74.58863603 74.36086665 75.30673792 C74.36239813 76.72265987 74.36393648 78.13858181 74.36548162 79.55450375 C74.3792092 92.83238275 74.37376717 106.11020283 74.36229641 119.38808049 C74.35236366 131.53437104 74.36530491 143.68050926 74.3892306 155.82677632 C74.41361525 168.30005633 74.42323105 180.77326537 74.41657788 193.24656874 C74.41308424 200.2487996 74.41532715 207.2509133 74.4328289 214.25312614 C74.44908031 220.83673247 74.44437912 227.42009488 74.42552376 234.00370979 C74.42182872 236.42164173 74.4249728 238.83959509 74.43540955 241.25750732 C74.44855797 244.55510242 74.43712551 247.85172394 74.41941833 251.14927673 C74.43382584 252.58872372 74.43382584 252.58872372 74.44852442 254.05725044 C74.38632576 259.67662898 73.70856986 262.96465555 69.91821289 267.40405273 C65.96857934 270.57032588 62.82383036 270.78654576 57.83642578 270.80810547 C57.14307632 270.81496872 56.44972687 270.82183197 55.73536682 270.8289032 C53.45365661 270.84713719 51.17263626 270.84333878 48.89086914 270.83764648 C47.29812904 270.84221005 45.70539092 270.84751614 44.11265564 270.85353088 C40.77798452 270.86245536 37.44355297 270.86004667 34.10888672 270.85009766 C29.84389319 270.83861049 25.57972792 270.85881825 21.31484318 270.88801479 C18.02647178 270.90639656 14.73829813 270.90608042 11.44988823 270.90037727 C9.87787146 270.90022429 8.30584109 270.9062497 6.73387337 270.91866875 C4.53185813 270.93361478 2.3313635 270.92287749 0.12939453 270.90576172 C-1.12127304 270.90559555 -2.37194061 270.90542938 -3.6605072 270.90525818 C-8.57296591 270.1856003 -11.59219244 268.22177788 -14.72860718 264.39446831 C-16.70491351 260.026995 -16.4990976 256.01838618 -16.46946716 251.27626038 C-16.47754547 249.73261949 -16.47754547 249.73261949 -16.48578697 248.15779394 C-16.50011032 244.70468419 -16.49295187 241.25195541 -16.48583984 237.79882812 C-16.4915411 235.32509553 -16.4985044 232.85136557 -16.50663757 230.37763977 C-16.52274353 224.35304424 -16.52466416 218.32859876 -16.51942467 212.30399639 C-16.51538305 207.40713081 -16.51682642 202.51029604 -16.52217293 197.61343193 C-16.52292135 196.91645069 -16.52366977 196.21946944 -16.52444087 195.50136755 C-16.52597235 194.0854456 -16.5275107 192.66952366 -16.52905584 191.25360172 C-16.54278342 177.97572272 -16.53734139 164.69790264 -16.52587063 151.42002498 C-16.51593788 139.27373443 -16.52887913 127.12759621 -16.55280482 114.98132915 C-16.57718947 102.50804914 -16.58680527 90.0348401 -16.58015209 77.56153673 C-16.57665846 70.55930587 -16.57890137 63.55719217 -16.59640312 56.55497932 C-16.61265452 49.971373 -16.60795334 43.38801059 -16.58909798 36.80439568 C-16.58540294 34.38646374 -16.58854701 31.96851038 -16.59898376 29.55059814 C-16.61213219 26.25300305 -16.60069973 22.95638153 -16.58299255 19.65882874 C-16.59259756 18.69919741 -16.60220257 17.73956609 -16.61209863 16.75085503 C-16.54989997 11.13147649 -15.87214408 7.84344992 -12.08178711 3.40405273 C-8.13215356 0.23777959 -4.98740458 0.0215597 0 0 Z M13.91821289 30.40405273 C13.91821289 99.70405273 13.91821289 169.00405273 13.91821289 240.40405273 C23.81821289 240.40405273 33.71821289 240.40405273 43.91821289 240.40405273 C43.91821289 171.10405273 43.91821289 101.80405273 43.91821289 30.40405273 C34.01821289 30.40405273 24.11821289 30.40405273 13.91821289 30.40405273 Z " fill="#ffffff" transform="translate(92.081787109375,180.595947265625)"/>
<path d="M0 0 C9.47463573 6.94911196 16.95161439 16.64389635 19.421875 28.35546875 C20.71840454 42.36291128 19.58515159 54.65161646 11.046875 66.29296875 C3.79710687 74.80019131 -6.14121373 82.4819878 -17.66186523 83.54833984 C-32.20672027 84.0750382 -44.10662342 82.99872375 -55.65625 73.15625 C-63.78698313 65.53781916 -70.43729869 55.48683287 -70.8515625 44.046875 C-71.2686331 29.19654597 -69.07220246 17.55522171 -58.578125 6.35546875 C-43.56002846 -9.51550735 -18.09084176 -11.53976422 0 0 Z M-38.453125 30.48046875 C-40.14296751 34.79895517 -40.23773483 38.78217395 -39.578125 43.35546875 C-37.41513663 47.76155618 -35.18132021 50.55421845 -30.578125 52.35546875 C-25.53487116 53.03972932 -21.74735616 52.92945495 -17.140625 50.66796875 C-13.78156488 47.63662181 -11.88456869 45.61407227 -11.26171875 41.0234375 C-10.99598848 35.30595066 -11.60965348 31.75296422 -15.578125 27.35546875 C-19.41525696 23.96976408 -23.21213962 23.84255703 -28.140625 24.00390625 C-32.80338646 24.67641992 -35.43002792 27.05429206 -38.453125 30.48046875 Z " fill="#ffffff" transform="translate(146.578125,67.64453125)"/>
</svg>
