<svg width="26" height="26" viewBox="0 0 26 26" fill="none" xmlns="http://www.w3.org/2000/svg">
<rect width="26" height="26" rx="4" fill="#532772" fill-opacity="0.3"/>
<path d="M17.947 12.8333H15.667C15.3937 12.8333 15.167 12.6066 15.167 12.3333V7.67325C15.167 7.17992 15.3603 6.71992 15.707 6.37325C16.0537 6.02659 16.5137 5.83325 17.007 5.83325H17.0137C17.847 5.83992 18.6336 6.16659 19.2336 6.75992C19.8336 7.36659 20.1603 8.16659 20.1603 8.99992V10.6133C20.167 11.9399 19.2736 12.8333 17.947 12.8333ZM16.167 11.8333H17.947C18.7203 11.8333 19.167 11.3866 19.167 10.6133V8.99992C19.167 8.42659 18.9403 7.87992 18.5337 7.46659C18.127 7.06659 17.587 6.83992 17.0137 6.83325C17.0137 6.83325 17.0137 6.83325 17.007 6.83325C16.787 6.83325 16.5737 6.91992 16.4137 7.07992C16.2537 7.23992 16.167 7.44659 16.167 7.67325V11.8333Z" fill="white"/>
<path d="M10.9998 20.5533C10.6865 20.5533 10.3932 20.4333 10.1732 20.2066L9.06649 19.0933C9.00649 19.0333 8.91318 19.0266 8.84652 19.0799L7.7065 19.9333C7.35317 20.1999 6.88649 20.2466 6.48649 20.0466C6.08649 19.8466 5.83984 19.4466 5.83984 18.9999V8.99992C5.83984 6.98659 6.99318 5.83325 9.00651 5.83325H17.0065C17.2798 5.83325 17.5065 6.05992 17.5065 6.33325C17.5065 6.60659 17.2798 6.83325 17.0065 6.83325C16.5465 6.83325 16.1732 7.20659 16.1732 7.66659V18.9999C16.1732 19.4466 15.9265 19.8466 15.5265 20.0466C15.1332 20.2466 14.6599 20.1999 14.3065 19.9333L13.1665 19.0799C13.0998 19.0266 13.0065 19.0399 12.9532 19.0933L11.8332 20.2133C11.6065 20.4333 11.3132 20.5533 10.9998 20.5533ZM8.93982 18.0466C9.24649 18.0466 9.54649 18.1599 9.77315 18.3933L10.8798 19.5066C10.9198 19.5466 10.9732 19.5533 10.9998 19.5533C11.0265 19.5533 11.0798 19.5466 11.1198 19.5066L12.2398 18.3866C12.6532 17.9733 13.3065 17.9333 13.7665 18.2866L14.8998 19.1333C14.9732 19.1866 15.0398 19.1666 15.0732 19.1466C15.1065 19.1266 15.1665 19.0866 15.1665 18.9999V7.66659C15.1665 7.36659 15.2398 7.07992 15.3665 6.83325H8.99984C7.51984 6.83325 6.83317 7.51992 6.83317 8.99992V18.9999C6.83317 19.0933 6.89318 19.1333 6.92651 19.1533C6.96651 19.1733 7.03319 19.1866 7.09985 19.1333L8.23983 18.2799C8.44649 18.1266 8.69315 18.0466 8.93982 18.0466Z" fill="white"/>
<path d="M13 11.5H9C8.72667 11.5 8.5 11.2733 8.5 11C8.5 10.7267 8.72667 10.5 9 10.5H13C13.2733 10.5 13.5 10.7267 13.5 11C13.5 11.2733 13.2733 11.5 13 11.5Z" fill="white"/>
<path d="M12.5 14.1667H9.5C9.22667 14.1667 9 13.9401 9 13.6667C9 13.3934 9.22667 13.1667 9.5 13.1667H12.5C12.7733 13.1667 13 13.3934 13 13.6667C13 13.9401 12.7733 14.1667 12.5 14.1667Z" fill="white"/>
</svg>
