<?xml version="1.0" encoding="UTF-8"?>
<svg version="1.1" xmlns="http://www.w3.org/2000/svg" width="512" height="512">
<path d="M0 0 C1.61760518 -0.00418216 3.23520741 -0.00966448 4.8528043 -0.01631981 C9.25976001 -0.03067744 13.66652716 -0.02656027 18.07349277 -0.019153 C22.8411676 -0.01439948 27.60880291 -0.02695038 32.37646484 -0.03717041 C41.70185372 -0.054321 51.0271751 -0.05520622 60.35257564 -0.04995751 C67.93601689 -0.04590767 75.51943827 -0.04736901 83.10287857 -0.05270576 C84.72501634 -0.0538284 84.72501634 -0.0538284 86.37992457 -0.05497371 C88.5771954 -0.05650527 90.77446622 -0.05804362 92.97173704 -0.05958868 C113.55309117 -0.07330013 134.13440723 -0.06788551 154.71576048 -0.05640347 C173.52169124 -0.04647204 192.32752359 -0.05941263 211.13343917 -0.08333766 C230.47074207 -0.10775228 249.80799919 -0.11733075 269.1453172 -0.11068493 C279.99080653 -0.10719803 290.83622021 -0.10938984 301.68169785 -0.12693596 C310.91383827 -0.14168748 320.14584975 -0.14225485 329.37798773 -0.12486505 C334.08281701 -0.11637706 338.78741624 -0.11415142 343.49223328 -0.1295166 C347.80908167 -0.14343955 352.12550457 -0.13850386 356.44232883 -0.11927737 C357.99400052 -0.11554023 359.54570693 -0.11837242 361.09734748 -0.12888902 C379.85202815 -0.24684425 397.39625201 3.87341072 411.37942505 17.07737732 C422.79308871 28.36192284 429.62811912 42.47303478 429.92263794 58.57933044 C429.88257724 77.19480705 424.71153455 92.16334516 411.46414185 105.6572113 C396.06263556 120.04979538 377.69577194 122.70566359 357.44998169 122.64164734 C355.84775336 122.64395578 354.24552609 122.64713487 352.64330101 122.65110183 C348.26974074 122.65940573 343.89626841 122.65534471 339.52270794 122.64912939 C334.7946229 122.64458778 330.06655254 122.65159711 325.33847046 122.65708923 C316.08768518 122.66596667 306.83693241 122.66406858 297.58614588 122.65826395 C290.06555573 122.65374097 282.54497467 122.65313731 275.02438354 122.65531158 C273.95263394 122.65561805 272.88088433 122.65592452 271.77665746 122.65624027 C269.59918864 122.65687974 267.42171983 122.65752817 265.24425101 122.65818545 C244.84234469 122.66388392 224.44045637 122.65733844 204.038553 122.64658472 C186.54564131 122.63764965 169.05275618 122.63920183 151.55984497 122.64842224 C131.22924933 122.65913341 110.89866944 122.66333464 90.56807137 122.65719771 C88.39876429 122.65656064 86.22945722 122.6559319 84.06015015 122.65531158 C82.99290376 122.65500303 81.92565737 122.65469448 80.82607019 122.65437658 C73.31746375 122.65265219 65.80886734 122.65555924 58.30026245 122.66027069 C49.14557757 122.66588893 39.99092698 122.66434324 30.83624601 122.6537092 C26.16844261 122.6484652 21.50069631 122.64637404 16.83289337 122.65300751 C12.55452662 122.65899544 8.27626954 122.6556452 3.99791265 122.6450524 C2.45567344 122.64283039 0.91342484 122.64392751 -0.62880826 122.64880398 C-20.76172832 122.70754748 -38.58198772 118.86169836 -53.70773315 104.63768005 C-67.48384349 89.96006557 -71.17663727 73.13525952 -70.58517456 53.72947693 C-69.74623027 38.31347379 -60.37226175 24.49326776 -49.3053894 14.4306488 C-34.73958578 2.3407684 -18.37897971 -0.07827538 0 0 Z " fill="#FEC708" transform="translate(76.45773315429688,377.61231994628906)"/>
<path d="M0 0 C1.60222833 -0.00230845 3.2044556 -0.00548753 4.80668068 -0.00945449 C9.18024095 -0.01775839 13.55371328 -0.01369737 17.92727375 -0.00748205 C22.65535879 -0.00294044 27.38342915 -0.00994978 32.11151123 -0.01544189 C41.36229651 -0.02431933 50.61304927 -0.02242124 59.86383581 -0.01661661 C67.38442596 -0.01209363 74.90500702 -0.01148997 82.42559814 -0.01366425 C83.49734775 -0.01397071 84.56909736 -0.01427718 85.67332423 -0.01459293 C87.85079305 -0.0152324 90.02826186 -0.01588083 92.20573068 -0.01653811 C112.607637 -0.02223658 133.00952532 -0.0156911 153.41142869 -0.00493738 C170.90434037 0.00399769 188.39722551 0.00244551 205.89013672 -0.0067749 C226.22073236 -0.01748607 246.55131225 -0.0216873 266.88191032 -0.01555037 C269.05121739 -0.0149133 271.22052447 -0.01428456 273.38983154 -0.01366425 C274.45707793 -0.01335569 275.52432431 -0.01304714 276.6239115 -0.01272924 C284.13251794 -0.01100485 291.64111435 -0.0139119 299.14971924 -0.01862335 C308.30440412 -0.02424159 317.45905471 -0.0226959 326.61373568 -0.01206186 C331.28153908 -0.00681786 335.94928538 -0.0047267 340.61708832 -0.01136017 C344.89545507 -0.0173481 349.17371215 -0.01399786 353.45206904 -0.00340506 C354.99430825 -0.00118305 356.53655685 -0.00228017 358.07878995 -0.00715664 C378.21171001 -0.06590014 396.03196941 3.77994898 411.15771484 18.00396729 C424.93382517 32.68158177 428.62661896 49.50638782 428.03515625 68.91217041 C427.77362707 73.7178943 426.74384316 77.82488356 424.90771484 82.25396729 C424.22902344 83.91105713 424.22902344 83.91105713 423.53662109 85.60162354 C416.18461476 101.80424661 404.07266666 112.90689141 387.37646484 119.21099854 C377.55655576 122.16360633 368.12102237 122.54386667 357.93099976 122.52139282 C356.31684839 122.52513395 354.70269883 122.52973732 353.08855212 122.53512347 C348.67259754 122.5473118 344.25671896 122.54709793 339.84075141 122.54473472 C335.07028531 122.54432549 330.29984324 122.55537583 325.52938843 122.56484985 C316.19009736 122.58143828 306.85083155 122.58695844 297.51152699 122.58807461 C289.91655171 122.58902617 282.32158474 122.59314186 274.72661209 122.59947586 C253.17442883 122.61708289 231.62226546 122.62631565 210.07007496 122.62481491 C208.9090303 122.624735 207.74798564 122.62465509 206.55175781 122.62457275 C205.3892888 122.62449099 204.2268198 122.62440923 203.02912445 122.62432499 C184.19707676 122.62351239 165.36510911 122.64264494 146.53308456 122.67084949 C127.17783262 122.69960797 107.82261967 122.71338813 88.46734583 122.71166193 C77.60837779 122.71099903 66.74949364 122.71644774 55.89054489 122.73801804 C46.64367495 122.75626891 37.39692694 122.76054518 28.15004675 122.74699919 C23.43713959 122.74048906 18.72446606 122.74028126 14.01158142 122.75770569 C9.68717937 122.77352858 5.36319443 122.77047973 1.03880198 122.75313742 C-0.51568415 122.75008766 -2.07020215 122.75362249 -3.62465067 122.76485758 C-22.38889255 122.89136841 -39.93826155 118.77579911 -53.92944336 105.56427002 C-65.34310702 94.2797245 -72.17813743 80.16861255 -72.47265625 64.06231689 C-72.43259555 45.44684029 -67.26155286 30.47830218 -54.01416016 16.98443604 C-38.61265387 2.59185196 -20.24579025 -0.06401625 0 0 Z " fill="#FEC708" transform="translate(78.09228515625,11.74603271484375)"/>
<path d="M0 0 C1.60818985 -0.00302498 3.21637826 -0.0069162 4.82456416 -0.01159257 C9.21932156 -0.02183665 13.61399704 -0.01969994 18.00876105 -0.01541197 C22.75803664 -0.0129382 27.50729285 -0.021967 32.25656128 -0.02944946 C41.5515995 -0.04218051 50.84660882 -0.04399213 60.14165429 -0.0416492 C67.6994371 -0.03986406 75.25721115 -0.04161988 82.8149929 -0.04587364 C84.43028047 -0.04676643 84.43028047 -0.04676643 86.0782001 -0.04767724 C88.26605299 -0.04888903 90.45390588 -0.05010317 92.64175876 -0.05131962 C113.14672835 -0.06218906 133.65168148 -0.06003551 154.156652 -0.05393478 C172.89944224 -0.04876642 191.64218049 -0.06001999 210.38496045 -0.07903299 C229.64757259 -0.09842296 248.91016016 -0.10666534 268.17278212 -0.10290974 C278.9802345 -0.10099943 289.78764265 -0.10346875 300.59508705 -0.11762428 C309.79586297 -0.12955382 318.99656741 -0.13092533 328.19734434 -0.11883412 C332.88769381 -0.11295644 337.57791265 -0.11181519 342.26825333 -0.12383652 C346.56963006 -0.13473242 350.87076768 -0.13154818 355.17213341 -0.11757483 C356.72049557 -0.11493807 358.2688767 -0.11726203 359.81722019 -0.1253107 C380.52382735 -0.22539846 397.36845779 4.29049058 412.71549988 18.57319641 C425.53012475 32.15424622 429.42204484 48.2806135 429.17253113 66.30757141 C428.99808567 72.03109472 428.16512747 76.95478468 425.96549988 82.26069641 C425.28680847 83.91778625 425.28680847 83.91778625 424.59440613 85.60835266 C417.256586 101.77971164 405.16777763 112.86269461 388.53190613 119.21772766 C377.6157424 122.41007784 366.9200904 122.55311665 355.6459198 122.53535461 C353.81168919 122.53970855 351.97746039 122.54489396 350.14323425 122.55084229 C345.19114065 122.5641634 340.23912368 122.56481917 335.28701568 122.56227899 C331.14646621 122.56120559 327.00593201 122.56610153 322.86538583 122.57088441 C313.1003242 122.58195357 303.33530106 122.58243019 293.57023621 122.57637024 C283.50161177 122.57031816 273.43312665 122.58267867 263.36452597 122.60394031 C254.70694819 122.6215489 246.04941481 122.62755924 237.39181978 122.62430257 C232.22627453 122.62248998 227.0608289 122.62512441 221.89529991 122.63901711 C217.04345569 122.65158038 212.19182954 122.64966559 207.33998871 122.63660622 C205.56062306 122.63423844 203.78124211 122.63698231 202.001894 122.64522934 C199.57175906 122.65568056 197.14235832 122.6476099 194.71224976 122.63491821 C194.00962279 122.6422925 193.30699582 122.64966678 192.58307713 122.65726453 C187.99196849 122.60687135 184.88015454 121.63962478 180.96549988 119.26069641 C178.37422835 116.4907165 177.91916555 115.07535912 176.96549988 111.26069641 C166.73549988 110.93069641 156.50549988 110.60069641 145.96549988 110.26069641 C145.63549988 112.24069641 145.30549988 114.22069641 144.96549988 116.26069641 C142.82068635 118.8932518 140.00208692 120.74240289 136.96549988 122.26069641 C134.98256232 122.36106936 132.99619606 122.39580908 131.01072693 122.40113831 C129.10590294 122.40970352 129.10590294 122.40970352 127.16259766 122.41844177 C125.7469636 122.41968726 124.33132943 122.42081233 122.91569519 122.42182922 C121.43074418 122.42645678 119.94579437 122.43148136 118.46084595 122.43687439 C114.41676536 122.4500172 110.37270141 122.45644845 106.32860279 122.46088505 C103.79807881 122.46381625 101.26755936 122.46792143 98.73703766 122.47238922 C90.80913446 122.48607681 82.88124162 122.49573401 74.95332742 122.49959111 C65.82350019 122.50405772 56.69382374 122.52153498 47.56404233 122.55059171 C40.49717192 122.57229516 33.43034362 122.5823002 26.36344028 122.58363223 C22.1487567 122.58467523 17.9342146 122.59047299 13.71956635 122.60845184 C9.74358379 122.62508003 5.7678467 122.62701754 1.79184151 122.61831284 C0.34318694 122.61754994 -1.1054816 122.62178476 -2.55410194 122.63177109 C-22.05437022 122.75815895 -39.70349327 118.16905698 -54.15950012 104.57319641 C-67.3096792 90.7694299 -71.49710932 74.67891053 -71.24153137 56.21382141 C-71.06708592 50.4902981 -70.23412772 45.56660814 -68.03450012 40.26069641 C-67.58203918 39.15596985 -67.12957825 38.05124329 -66.66340637 36.91304016 C-59.32558625 20.74168118 -47.23677787 9.65869821 -30.60090637 3.30366516 C-20.44071206 0.33239257 -10.51252088 -0.02818051 0 0 Z " fill="#FEFEFE" transform="translate(77.03450012207031,194.7393035888672)"/>
<path d="M0 0 C1.61760518 -0.00418216 3.23520741 -0.00966448 4.8528043 -0.01631981 C9.25976001 -0.03067744 13.66652716 -0.02656027 18.07349277 -0.019153 C22.8411676 -0.01439948 27.60880291 -0.02695038 32.37646484 -0.03717041 C41.70185372 -0.054321 51.0271751 -0.05520622 60.35257564 -0.04995751 C67.93601689 -0.04590767 75.51943827 -0.04736901 83.10287857 -0.05270576 C84.72501634 -0.0538284 84.72501634 -0.0538284 86.37992457 -0.05497371 C88.5771954 -0.05650527 90.77446622 -0.05804362 92.97173704 -0.05958868 C113.55309117 -0.07330013 134.13440723 -0.06788551 154.71576048 -0.05640347 C173.52169124 -0.04647204 192.32752359 -0.05941263 211.13343917 -0.08333766 C230.47074207 -0.10775228 249.80799919 -0.11733075 269.1453172 -0.11068493 C279.99080653 -0.10719803 290.83622021 -0.10938984 301.68169785 -0.12693596 C310.91383827 -0.14168748 320.14584975 -0.14225485 329.37798773 -0.12486505 C334.08281701 -0.11637706 338.78741624 -0.11415142 343.49223328 -0.1295166 C347.80908167 -0.14343955 352.12550457 -0.13850386 356.44232883 -0.11927737 C357.99400052 -0.11554023 359.54570693 -0.11837242 361.09734748 -0.12888902 C379.85202815 -0.24684425 397.39625201 3.87341072 411.37942505 17.07737732 C422.79308871 28.36192284 429.62811912 42.47303478 429.92263794 58.57933044 C429.88257724 77.19480705 424.71153455 92.16334516 411.46414185 105.6572113 C396.06263556 120.04979538 377.69577194 122.70566359 357.44998169 122.64164734 C355.84775336 122.64395578 354.24552609 122.64713487 352.64330101 122.65110183 C348.26974074 122.65940573 343.89626841 122.65534471 339.52270794 122.64912939 C334.7946229 122.64458778 330.06655254 122.65159711 325.33847046 122.65708923 C316.08768518 122.66596667 306.83693241 122.66406858 297.58614588 122.65826395 C290.06555573 122.65374097 282.54497467 122.65313731 275.02438354 122.65531158 C273.95263394 122.65561805 272.88088433 122.65592452 271.77665746 122.65624027 C269.59918864 122.65687974 267.42171983 122.65752817 265.24425101 122.65818545 C244.84234469 122.66388392 224.44045637 122.65733844 204.038553 122.64658472 C186.54564131 122.63764965 169.05275618 122.63920183 151.55984497 122.64842224 C131.22924933 122.65913341 110.89866944 122.66333464 90.56807137 122.65719771 C88.39876429 122.65656064 86.22945722 122.6559319 84.06015015 122.65531158 C82.99290376 122.65500303 81.92565737 122.65469448 80.82607019 122.65437658 C73.31746375 122.65265219 65.80886734 122.65555924 58.30026245 122.66027069 C49.14557757 122.66588893 39.99092698 122.66434324 30.83624601 122.6537092 C26.16844261 122.6484652 21.50069631 122.64637404 16.83289337 122.65300751 C12.55452662 122.65899544 8.27626954 122.6556452 3.99791265 122.6450524 C2.45567344 122.64283039 0.91342484 122.64392751 -0.62880826 122.64880398 C-20.76172832 122.70754748 -38.58198772 118.86169836 -53.70773315 104.63768005 C-67.48384349 89.96006557 -71.17663727 73.13525952 -70.58517456 53.72947693 C-69.74623027 38.31347379 -60.37226175 24.49326776 -49.3053894 14.4306488 C-34.73958578 2.3407684 -18.37897971 -0.07827538 0 0 Z M-38.45773315 36.38768005 C-45.35407998 45.40374612 -48.62547827 55.06215208 -47.45773315 66.38768005 C-45.11669343 78.65545411 -38.39908646 86.39556763 -28.8132019 93.95799255 C-20.38610994 99.07294389 -12.14649148 98.81279032 -2.59849548 98.76863098 C-0.97283074 98.77208983 0.65283166 98.77685592 2.27848917 98.78281271 C6.73532303 98.79532133 11.19196385 98.78915293 15.64879835 98.77985406 C20.45938566 98.77306331 25.2699399 98.78354497 30.08052063 98.79179382 C39.50064116 98.80513335 48.92068999 98.80225234 58.34081333 98.7935559 C65.9973978 98.78678024 73.65396218 98.78586213 81.31054878 98.78912735 C82.40035869 98.78958705 83.49016859 98.79004675 84.61300303 98.79052038 C86.82695719 98.79147956 89.04091133 98.7924522 91.25486547 98.79343815 C112.0152952 98.80199279 132.77568518 98.79215695 153.53610838 98.77603705 C171.34669348 98.7626357 189.15721992 98.76496033 206.96780396 98.77879333 C227.65249537 98.79485107 248.33715196 98.80116683 269.02184874 98.79195654 C271.22795553 98.7910009 273.43406234 98.79005779 275.64016914 98.78912735 C276.72560228 98.78866452 277.81103541 98.7882017 278.92936046 98.78772485 C286.57559043 98.7851354 294.22179828 98.78950502 301.86802483 98.79656601 C311.18796396 98.80498343 320.50782731 98.80269582 329.82775777 98.78672378 C334.58227136 98.77884407 339.33665863 98.77574437 344.09117126 98.78567123 C348.4454565 98.7946249 352.79949856 98.78967418 357.15376181 98.77373858 C358.72702125 98.7703936 360.30030132 98.77207847 361.87354743 98.77936594 C374.99781072 98.83548509 385.3316219 96.94281182 395.29226685 87.88768005 C402.04243666 80.38749138 406.74790343 72.04705421 407.04226685 61.70018005 C406.47070067 51.32174164 402.65152924 41.58657863 395.31570435 34.12205505 C384.69858225 25.02166469 373.8280194 23.79594535 360.29103088 23.87974548 C358.65936241 23.87513008 357.02769811 23.86877288 355.39604241 23.86083651 C350.93646529 23.84420804 346.47723255 23.85235987 342.01765454 23.86478138 C337.1989108 23.87385613 332.38022503 23.85985018 327.56149292 23.84886169 C318.13140369 23.83109815 308.70144199 23.8349067 299.27134781 23.84651226 C291.60625782 23.85555429 283.9412035 23.85676725 276.2761097 23.85241699 C274.63827459 23.85149759 274.63827459 23.85149759 272.9673519 23.85055962 C270.74905108 23.84928069 268.53075027 23.84798384 266.31244946 23.84666926 C245.52382752 23.83526994 224.73527619 23.84836729 203.94666583 23.86987072 C186.11594866 23.88774361 168.28533566 23.88463474 150.45462036 23.86619568 C129.73766127 23.84478187 109.02076401 23.83636587 88.3037954 23.84864473 C86.09406635 23.8499189 83.8843373 23.85117639 81.67460823 23.85241699 C80.58743666 23.85303409 79.50026509 23.8536512 78.38014893 23.854287 C70.72533052 23.85773817 63.07055139 23.85191661 55.41573906 23.84249878 C46.08563202 23.83127188 36.75565957 23.83433356 27.42556792 23.85562176 C22.66682613 23.86612241 17.90830861 23.87027071 13.14956856 23.85702515 C8.79034783 23.84507524 4.43155852 23.85170649 0.07237674 23.87293535 C-1.50148188 23.87739039 -3.07537721 23.8751599 -4.64921207 23.8654322 C-18.44679547 23.78671615 -28.49863577 26.39418164 -38.45773315 36.38768005 Z " fill="#010100" transform="translate(76.45773315429688,377.61231994628906)"/>
<path d="M0 0 C1.60222833 -0.00230845 3.2044556 -0.00548753 4.80668068 -0.00945449 C9.18024095 -0.01775839 13.55371328 -0.01369737 17.92727375 -0.00748205 C22.65535879 -0.00294044 27.38342915 -0.00994978 32.11151123 -0.01544189 C41.36229651 -0.02431933 50.61304927 -0.02242124 59.86383581 -0.01661661 C67.38442596 -0.01209363 74.90500702 -0.01148997 82.42559814 -0.01366425 C83.49734775 -0.01397071 84.56909736 -0.01427718 85.67332423 -0.01459293 C87.85079305 -0.0152324 90.02826186 -0.01588083 92.20573068 -0.01653811 C112.607637 -0.02223658 133.00952532 -0.0156911 153.41142869 -0.00493738 C170.90434037 0.00399769 188.39722551 0.00244551 205.89013672 -0.0067749 C226.22073236 -0.01748607 246.55131225 -0.0216873 266.88191032 -0.01555037 C269.05121739 -0.0149133 271.22052447 -0.01428456 273.38983154 -0.01366425 C274.45707793 -0.01335569 275.52432431 -0.01304714 276.6239115 -0.01272924 C284.13251794 -0.01100485 291.64111435 -0.0139119 299.14971924 -0.01862335 C308.30440412 -0.02424159 317.45905471 -0.0226959 326.61373568 -0.01206186 C331.28153908 -0.00681786 335.94928538 -0.0047267 340.61708832 -0.01136017 C344.89545507 -0.0173481 349.17371215 -0.01399786 353.45206904 -0.00340506 C354.99430825 -0.00118305 356.53655685 -0.00228017 358.07878995 -0.00715664 C378.21171001 -0.06590014 396.03196941 3.77994898 411.15771484 18.00396729 C424.93382517 32.68158177 428.62661896 49.50638782 428.03515625 68.91217041 C427.77362707 73.7178943 426.74384316 77.82488356 424.90771484 82.25396729 C424.22902344 83.91105713 424.22902344 83.91105713 423.53662109 85.60162354 C416.18461476 101.80424661 404.07266666 112.90689141 387.37646484 119.21099854 C377.55655576 122.16360633 368.12102237 122.54386667 357.93099976 122.52139282 C356.31684839 122.52513395 354.70269883 122.52973732 353.08855212 122.53512347 C348.67259754 122.5473118 344.25671896 122.54709793 339.84075141 122.54473472 C335.07028531 122.54432549 330.29984324 122.55537583 325.52938843 122.56484985 C316.19009736 122.58143828 306.85083155 122.58695844 297.51152699 122.58807461 C289.91655171 122.58902617 282.32158474 122.59314186 274.72661209 122.59947586 C253.17442883 122.61708289 231.62226546 122.62631565 210.07007496 122.62481491 C208.9090303 122.624735 207.74798564 122.62465509 206.55175781 122.62457275 C205.3892888 122.62449099 204.2268198 122.62440923 203.02912445 122.62432499 C184.19707676 122.62351239 165.36510911 122.64264494 146.53308456 122.67084949 C127.17783262 122.69960797 107.82261967 122.71338813 88.46734583 122.71166193 C77.60837779 122.71099903 66.74949364 122.71644774 55.89054489 122.73801804 C46.64367495 122.75626891 37.39692694 122.76054518 28.15004675 122.74699919 C23.43713959 122.74048906 18.72446606 122.74028126 14.01158142 122.75770569 C9.68717937 122.77352858 5.36319443 122.77047973 1.03880198 122.75313742 C-0.51568415 122.75008766 -2.07020215 122.75362249 -3.62465067 122.76485758 C-22.38889255 122.89136841 -39.93826155 118.77579911 -53.92944336 105.56427002 C-65.34310702 94.2797245 -72.17813743 80.16861255 -72.47265625 64.06231689 C-72.43259555 45.44684029 -67.26155286 30.47830218 -54.01416016 16.98443604 C-38.61265387 2.59185196 -20.24579025 -0.06401625 0 0 Z M-40.84619141 37.32037354 C-47.02664203 45.97920035 -50.53933042 55.57831703 -49.09228516 66.25396729 C-46.31865933 78.39247583 -41.1396717 86.30849551 -31.06884766 93.52740479 C-22.21685212 98.66202687 -14.18023079 98.68318387 -4.20854187 98.64164734 C-2.58017717 98.64582276 -0.95181538 98.65130142 0.67654103 98.65796715 C5.14090932 98.67241336 9.60509287 98.66817959 14.06947124 98.66080034 C18.88828122 98.65606889 23.70705123 98.66857839 28.52584839 98.67881775 C37.96267773 98.69601204 47.39944051 98.69684437 56.83628146 98.69160485 C64.50762842 98.68756276 72.17895572 98.68900717 79.85030174 98.6943531 C80.94230956 98.69510153 82.03431738 98.69584995 83.15941634 98.69662105 C85.37787603 98.69815254 87.59633572 98.69969088 89.8147954 98.70123602 C110.61868039 98.71496357 131.42252777 98.70952177 152.2264119 98.6980508 C171.25273013 98.68812018 190.27895109 98.70105571 209.30525432 98.724985 C228.84687527 98.74937697 248.38845092 98.75898349 267.93008679 98.75233227 C278.89902556 98.74884001 289.86788953 98.75107248 300.83681679 98.7685833 C310.17537878 98.78330656 319.51381331 98.78393914 328.8523728 98.76651239 C333.61527268 98.75800071 338.3779449 98.75585695 343.1408329 98.77116394 C347.50515234 98.78501611 351.86904919 98.78024109 356.23334422 98.7609247 C357.80798633 98.75716598 359.38266234 98.76008299 360.95727424 98.77053636 C373.73063752 98.84927163 383.77885776 97.00727335 393.68115234 88.51959229 C401.05360454 81.01779882 404.88559216 71.25435019 405.34521484 60.81646729 C405.05744586 51.14194796 400.99603392 42.65677245 394.47021484 35.62896729 C386.38519079 28.13553035 378.37943648 24.13641417 367.29021263 24.11974621 C366.62337399 24.11739398 365.95653534 24.11504175 365.26948947 24.11261824 C363.02505146 24.1059377 360.78067148 24.10638617 358.53622437 24.10679626 C356.91472683 24.10349705 355.29323012 24.09977136 353.67173445 24.09565479 C349.20785666 24.08563322 344.74399232 24.08191774 340.28010488 24.07926548 C335.46875388 24.0753629 330.65741353 24.06578454 325.84606934 24.05705261 C314.22282126 24.03728712 302.59957231 24.02722199 290.97631162 24.01832482 C285.50350064 24.01394216 280.03069062 24.0085753 274.5578804 24.00333595 C256.36647174 23.98632377 238.17506369 23.97182932 219.9836483 23.96458721 C215.26253636 23.9626773 210.54142442 23.96075697 205.8203125 23.95880127 C204.64689539 23.95831753 203.47347828 23.95783379 202.26450308 23.95733539 C183.2534286 23.94903405 164.24241702 23.9236953 145.23137002 23.89122059 C125.71587967 23.85815579 106.2004213 23.84013898 86.68490279 23.83694297 C75.72654484 23.83477737 64.76827863 23.82602125 53.80994797 23.8004818 C44.47786079 23.77878276 35.14588763 23.77072049 25.81377809 23.78044858 C21.05304586 23.78499553 16.29254892 23.78308397 11.53184891 23.76368713 C7.17052091 23.74607107 2.80960012 23.74704052 -1.55173211 23.76258443 C-3.12648217 23.76496286 -4.70126031 23.7606247 -6.27596743 23.74875578 C-20.20068281 23.65033321 -31.49623461 26.30450016 -40.84619141 37.32037354 Z " fill="#010100" transform="translate(78.09228515625,11.74603271484375)"/>
<path d="M0 0 C1.60818985 -0.00302498 3.21637826 -0.0069162 4.82456416 -0.01159257 C9.21932156 -0.02183665 13.61399704 -0.01969994 18.00876105 -0.01541197 C22.75803664 -0.0129382 27.50729285 -0.021967 32.25656128 -0.02944946 C41.5515995 -0.04218051 50.84660882 -0.04399213 60.14165429 -0.0416492 C67.6994371 -0.03986406 75.25721115 -0.04161988 82.8149929 -0.04587364 C84.43028047 -0.04676643 84.43028047 -0.04676643 86.0782001 -0.04767724 C88.26605299 -0.04888903 90.45390588 -0.05010317 92.64175876 -0.05131962 C113.14672835 -0.06218906 133.65168148 -0.06003551 154.156652 -0.05393478 C172.89944224 -0.04876642 191.64218049 -0.06001999 210.38496045 -0.07903299 C229.64757259 -0.09842296 248.91016016 -0.10666534 268.17278212 -0.10290974 C278.9802345 -0.10099943 289.78764265 -0.10346875 300.59508705 -0.11762428 C309.79586297 -0.12955382 318.99656741 -0.13092533 328.19734434 -0.11883412 C332.88769381 -0.11295644 337.57791265 -0.11181519 342.26825333 -0.12383652 C346.56963006 -0.13473242 350.87076768 -0.13154818 355.17213341 -0.11757483 C356.72049557 -0.11493807 358.2688767 -0.11726203 359.81722019 -0.1253107 C380.52382735 -0.22539846 397.36845779 4.29049058 412.71549988 18.57319641 C425.53012475 32.15424622 429.42204484 48.2806135 429.17253113 66.30757141 C428.99808567 72.03109472 428.16512747 76.95478468 425.96549988 82.26069641 C425.28680847 83.91778625 425.28680847 83.91778625 424.59440613 85.60835266 C417.256586 101.77971164 405.16777763 112.86269461 388.53190613 119.21772766 C377.6157424 122.41007784 366.9200904 122.55311665 355.6459198 122.53535461 C353.81168919 122.53970855 351.97746039 122.54489396 350.14323425 122.55084229 C345.19114065 122.5641634 340.23912368 122.56481917 335.28701568 122.56227899 C331.14646621 122.56120559 327.00593201 122.56610153 322.86538583 122.57088441 C313.1003242 122.58195357 303.33530106 122.58243019 293.57023621 122.57637024 C283.50161177 122.57031816 273.43312665 122.58267867 263.36452597 122.60394031 C254.70694819 122.6215489 246.04941481 122.62755924 237.39181978 122.62430257 C232.22627453 122.62248998 227.0608289 122.62512441 221.89529991 122.63901711 C217.04345569 122.65158038 212.19182954 122.64966559 207.33998871 122.63660622 C205.56062306 122.63423844 203.78124211 122.63698231 202.001894 122.64522934 C199.57175906 122.65568056 197.14235832 122.6476099 194.71224976 122.63491821 C194.00962279 122.6422925 193.30699582 122.64966678 192.58307713 122.65726453 C187.99152941 122.60686653 184.88251581 121.63523994 180.96549988 119.26069641 C178.281126 116.48375792 177.14132232 114.12879008 176.96549988 110.26069641 C177.8830534 105.79764479 178.9466397 103.08324666 182.55683708 100.16864777 C186.45987459 97.98397708 189.43418212 97.70438368 193.78144836 97.76863098 C194.54989952 97.76395199 195.31835068 97.759273 196.11008823 97.75445223 C198.67568118 97.74355136 201.2402859 97.76098642 203.80583191 97.77827454 C205.64929493 97.7760878 207.49275656 97.77208974 209.33621216 97.76641846 C213.30261163 97.75785873 217.2687404 97.76163029 221.2351265 97.77484131 C227.51471536 97.79519949 233.79403219 97.78519 240.07362366 97.77058411 C254.54463074 97.74155718 269.01555786 97.75226203 283.4865799 97.76328278 C296.7355193 97.77296931 309.98431621 97.77416283 323.23323143 97.743402 C329.46708572 97.7300701 335.70053024 97.73593026 341.93435979 97.75676727 C345.82566117 97.76579379 349.71680688 97.75824228 353.60809517 97.74635506 C355.40267916 97.74423565 357.19728693 97.74887831 358.99183083 97.76106071 C371.38425617 97.84039305 383.179239 97.29223863 393.21940613 89.02632141 C400.70060236 81.4614429 404.97726556 71.74053831 405.27799988 61.13569641 C405.18521957 51.3142386 401.16946148 42.91914035 394.65299988 35.69819641 C383.76260293 25.82085964 373.23566132 24.81281924 358.8724823 24.87301636 C357.2458036 24.86883873 355.61912781 24.86335887 353.99245739 24.85669655 C349.54207839 24.84227976 345.09188519 24.84647483 340.64149618 24.85386336 C335.83432891 24.858602 331.02720143 24.84607911 326.220047 24.83584595 C316.81056448 24.81866699 307.40114876 24.81781597 297.99165463 24.82305885 C290.3432302 24.82710301 282.69482548 24.82565407 275.04640198 24.82031059 C273.95715178 24.81956217 272.86790158 24.81881375 271.74564379 24.81804265 C269.53273844 24.81651115 267.3198331 24.8149728 265.10692775 24.81342768 C244.36458338 24.79970622 223.62227675 24.80513813 202.87993324 24.81661289 C183.90803198 24.82654767 164.93622822 24.81359972 145.964342 24.7896787 C126.47577311 24.76529161 106.98724965 24.7556787 87.49866581 24.76233143 C76.56052884 24.76582415 65.62246686 24.76358787 54.68434143 24.7460804 C45.37434548 24.73136346 36.06447737 24.73071653 26.75448394 24.74815131 C22.00587067 24.75666729 17.25748582 24.75879612 12.50888443 24.74349976 C8.15888307 24.72966093 3.80930601 24.73440541 -0.54067075 24.75373899 C-2.11119762 24.75750173 -3.68175842 24.7545691 -5.25225508 24.74412734 C-17.27614206 24.66989141 -26.55966431 26.39903918 -35.99543762 34.21772766 C-43.10937728 41.34529555 -46.97724208 51.14477598 -47.47200012 61.13569641 C-47.14967991 70.86669714 -43.17813385 79.525115 -36.84700012 86.76069641 C-29.49678286 93.29422287 -22.52054446 97.50444059 -12.46894836 97.51898193 C-10.51329201 97.52922394 -10.51329201 97.52922394 -8.51812744 97.53967285 C-7.08543368 97.53725381 -5.65274019 97.53466956 -4.220047 97.53193665 C-2.70182008 97.53632675 -1.18359558 97.54162994 0.33462524 97.54777527 C3.59705069 97.55925305 6.85941138 97.56473304 10.12185669 97.56565666 C15.28240338 97.56760093 20.44281646 97.58567293 25.60331726 97.60641479 C38.41921826 97.65555098 51.23515541 97.68649319 64.0511322 97.7077179 C74.01577974 97.72424406 83.98031233 97.74705976 93.94488287 97.79073864 C99.07307273 97.81250341 104.20104417 97.820574 109.32927704 97.8183459 C112.52104599 97.82001409 115.71267257 97.83407112 118.90439034 97.85155869 C120.38219224 97.85715175 121.86002375 97.85764934 123.33782768 97.85262108 C125.35853942 97.84646728 127.37928233 97.86047444 129.39994812 97.87542725 C131.09449757 97.87844424 131.09449757 97.87844424 132.82328033 97.88152218 C137.19394789 98.40893425 140.55240126 99.94505287 143.77799988 102.94819641 C145.50734507 106.31586862 146.07871233 109.47940066 145.96549988 113.26069641 C144.17641272 117.89127493 141.18895151 119.82700761 136.96549988 122.26069641 C133.87686157 122.76126766 133.87686157 122.76126766 130.52970886 122.76190186 C129.25432755 122.77173599 127.97894623 122.78157013 126.66491699 122.79170227 C125.26380651 122.78233119 123.86269871 122.77255191 122.46159363 122.7624054 C120.97604867 122.7661914 119.49050725 122.77169377 118.00497437 122.77877808 C113.97750807 122.79272311 109.95046953 122.78156543 105.92302704 122.76506686 C101.69483128 122.7511799 97.46665946 122.75768137 93.2384491 122.76119995 C86.12998097 122.76390157 79.0216817 122.75043883 71.91325378 122.72724915 C63.72563331 122.70072156 55.53829657 122.69886639 47.35064793 122.71063751 C39.44839455 122.72147158 31.54624258 122.71517904 23.64399719 122.70108223 C20.29507515 122.69536273 16.94622832 122.69537322 13.5973053 122.70014763 C9.63763874 122.70497023 5.67827678 122.69460074 1.71866798 122.67319298 C0.27647745 122.66769296 -1.16574277 122.66709615 -2.60793495 122.67214584 C-22.0844695 122.7317144 -39.71874179 118.15471576 -54.15950012 104.57319641 C-67.3096792 90.7694299 -71.49710932 74.67891053 -71.24153137 56.21382141 C-71.06708592 50.4902981 -70.23412772 45.56660814 -68.03450012 40.26069641 C-67.58203918 39.15596985 -67.12957825 38.05124329 -66.66340637 36.91304016 C-59.32558625 20.74168118 -47.23677787 9.65869821 -30.60090637 3.30366516 C-20.44071206 0.33239257 -10.51252088 -0.02818051 0 0 Z " fill="#010101" transform="translate(77.03450012207031,194.7393035888672)"/>
</svg>
