<svg width="20" height="20" viewBox="0 0 20 20" fill="none" xmlns="http://www.w3.org/2000/svg">
<g clip-path="url(#clip0_11927_50792)">
<path d="M13.5417 10.0023C13.5417 9.65709 13.2618 9.37727 12.9167 9.37727C12.5715 9.37727 12.2917 9.65709 12.2917 10.0023H12.9167H13.5417ZM5.84683 5.8007L5.9509 6.41697L5.84683 5.8007ZM7.1661 5.18579L6.82206 4.664V4.664L7.1661 5.18579ZM6.43996 5.62276L6.69231 6.19455L6.43996 5.62276ZM2.78323 13.9379L2.5208 14.5051L2.78323 13.9379ZM1.27899 10.8593L0.655149 10.8973L1.27899 10.8593ZM1.63212 12.8548L2.18233 12.5583L1.63212 12.8548ZM11.4167 16.7314L11.2149 16.1399L11.4167 16.7314ZM12.8439 12.1734L13.4683 12.2024L12.8439 12.1734ZM11.8997 16.4856L12.2591 16.9969L11.8997 16.4856ZM7.34855 5.0655L7.69258 5.58728L7.69258 5.58728L7.34855 5.0655ZM11.4167 3.27317L11.2149 3.86467L11.4167 3.27317ZM11.8997 3.51897L12.2591 3.00762L11.8997 3.51897ZM2.78323 6.06667L2.5208 5.49944L2.78323 6.06667ZM1.27899 9.14526L0.655149 9.10724L1.27899 9.14526ZM1.63212 7.14976L2.18233 7.44622L1.63212 7.14976ZM8.25923 14.7901C7.97052 14.6009 7.5831 14.6816 7.39391 14.9703C7.20472 15.259 7.28539 15.6465 7.57411 15.8356L7.91667 15.3129L8.25923 14.7901ZM7.1661 5.18579L7.51014 5.70758L7.69258 5.58728L7.34855 5.0655L7.00451 4.54371L6.82206 4.664L7.1661 5.18579ZM1.27899 10.8593L1.90283 10.8212C1.88521 10.5321 1.875 10.2549 1.875 10.0023H1.25H0.625C0.625 10.2869 0.636444 10.5904 0.655149 10.8973L1.27899 10.8593ZM1.25 10.0023H1.875C1.875 9.74958 1.88521 9.47243 1.90283 9.18329L1.27899 9.14526L0.655149 9.10724C0.636444 9.41413 0.625 9.71762 0.625 10.0023H1.25ZM12.9167 10.0023H12.2917C12.2917 10.4287 12.263 11.2114 12.2196 12.1444L12.8439 12.1734L13.4683 12.2024C13.5114 11.2733 13.5417 10.4623 13.5417 10.0023H12.9167ZM5.00007 5.8356V6.4606C5.40642 6.4606 5.68068 6.4626 5.9509 6.41697L5.84683 5.8007L5.74276 5.18442C5.59964 5.20859 5.44717 5.2106 5.00007 5.2106V5.8356ZM7.1661 5.18579L6.82206 4.664C6.4488 4.91011 6.3204 4.99236 6.18761 5.05097L6.43996 5.62276L6.69231 6.19455C6.94303 6.0839 7.17089 5.93126 7.51014 5.70758L7.1661 5.18579ZM5.84683 5.8007L5.9509 6.41697C6.2063 6.37384 6.45534 6.29913 6.69231 6.19455L6.43996 5.62276L6.18761 5.05097C6.04543 5.11372 5.896 5.15855 5.74276 5.18442L5.84683 5.8007ZM5.00007 14.1689V14.7939C5.44717 14.7939 5.59964 14.7959 5.74276 14.8201L5.84683 14.2038L5.9509 13.5876C5.68068 13.5419 5.40642 13.5439 5.00007 13.5439V14.1689ZM5.00007 14.1689V13.5439C3.79701 13.5439 3.39093 13.5304 3.04567 13.3706L2.78323 13.9379L2.5208 14.5051C3.17442 14.8075 3.91327 14.7939 5.00007 14.7939V14.1689ZM1.27899 10.8593L0.655149 10.8973C0.713737 11.8585 0.741742 12.5199 1.0819 13.1512L1.63212 12.8548L2.18233 12.5583C2.00044 12.2207 1.96704 11.8747 1.90283 10.8212L1.27899 10.8593ZM2.78323 13.9379L3.04567 13.3706C2.71204 13.2163 2.3567 12.8819 2.18233 12.5583L1.63212 12.8548L1.0819 13.1512C1.38451 13.7129 1.9418 14.2372 2.5208 14.5051L2.78323 13.9379ZM12.8439 12.1734L12.2196 12.1444C12.1603 13.42 12.1175 14.3133 12.0013 14.9591C11.8855 15.6019 11.7209 15.8473 11.5404 15.9742L11.8997 16.4856L12.2591 16.9969C12.8475 16.5834 13.0965 15.9301 13.2315 15.1805C13.3659 14.4339 13.4107 13.4413 13.4683 12.2024L12.8439 12.1734ZM11.4167 16.7314L11.6186 17.3229C11.8451 17.2456 12.0632 17.1346 12.2591 16.9969L11.8997 16.4856L11.5404 15.9742C11.4414 16.0438 11.3294 16.1008 11.2149 16.1399L11.4167 16.7314ZM7.34855 5.0655L7.69258 5.58728C8.76742 4.8786 9.52166 4.38286 10.1169 4.09372C10.7104 3.80537 11.0072 3.79381 11.2149 3.86467L11.4167 3.27317L11.6186 2.68166C10.9368 2.44899 10.259 2.63497 9.57067 2.96936C8.88394 3.30296 8.04882 3.85515 7.00451 4.54371L7.34855 5.0655ZM11.4167 3.27317L11.2149 3.86467C11.3294 3.90375 11.4414 3.96076 11.5404 4.03032L11.8997 3.51897L12.2591 3.00762C12.0632 2.86997 11.8451 2.75898 11.6186 2.68166L11.4167 3.27317ZM5.00007 5.8356V5.2106C3.91327 5.2106 3.17442 5.19703 2.5208 5.49944L2.78323 6.06667L3.04567 6.6339C3.39093 6.47416 3.79701 6.4606 5.00007 6.4606V5.8356ZM1.27899 9.14526L1.90283 9.18329C1.96704 8.12981 2.00044 7.78382 2.18233 7.44622L1.63212 7.14976L1.0819 6.8533C0.741742 7.48463 0.713737 8.14599 0.655149 9.10724L1.27899 9.14526ZM2.78323 6.06667L2.5208 5.49944C1.9418 5.76732 1.38451 6.29167 1.0819 6.8533L1.63212 7.14976L2.18233 7.44622C2.3567 7.1226 2.71204 6.78826 3.04567 6.6339L2.78323 6.06667ZM7.91667 15.3129L7.57411 15.8356C8.43976 16.4029 9.15622 16.8562 9.76703 17.1264C10.3856 17.4 11.0002 17.5339 11.6186 17.3229L11.4167 16.7314L11.2149 16.1399C11.027 16.204 10.7656 16.2013 10.2727 15.9832C9.77201 15.7618 9.14153 15.3683 8.25923 14.7901L7.91667 15.3129ZM12.8116 7.14976L13.4359 7.11893C13.3854 6.0963 13.3303 5.25815 13.1891 4.61038C13.046 3.95336 12.792 3.38208 12.2591 3.00762L11.8997 3.51897L11.5404 4.03032C11.7036 4.14504 11.8545 4.35667 11.9678 4.87651C12.0831 5.4056 12.1359 6.13825 12.1874 7.1806L12.8116 7.14976Z" fill="#101828"/>
<path d="M16.667 15.0026C16.667 15.0026 17.917 13.5026 17.917 10.0026C17.917 7.97475 17.4974 6.61829 17.1444 5.83594" stroke="#101828" stroke-width="1.25" stroke-linecap="round"/>
<path d="M15 12.5026C15 12.5026 15.4167 11.7526 15.4167 10.0026C15.4167 9.28436 15.3465 8.73457 15.2637 8.33594" stroke="#101828" stroke-width="1.25" stroke-linecap="round"/>
<path d="M18.3337 1.66406L1.66699 18.3307" stroke="#101828" stroke-width="1.5" stroke-linecap="round"/>
</g>
<defs>
<clipPath id="clip0_11927_50792">
<rect width="20" height="20" fill="white"/>
</clipPath>
</defs>
</svg>
