<?xml version="1.0" encoding="UTF-8"?>
<svg version="1.1" xmlns="http://www.w3.org/2000/svg" width="512" height="512">
<path d="M0 0 C3.60187943 2.92664986 6.8381958 6.16208971 10.09713745 9.46221924 C11.0711955 10.43050559 12.04633902 11.397701 13.02246106 12.36390662 C15.68278826 15.00348175 18.32744216 17.65827639 20.96962261 20.31599927 C23.82900907 23.18674302 26.70280039 26.04300628 29.57472229 28.90119934 C35.19077716 34.4950648 40.79328403 40.10231051 46.39099054 45.7145308 C50.9415068 50.27635507 55.49689944 54.83325608 60.05578995 59.38671112 C60.70549005 60.03564506 61.35519015 60.68457899 62.02457813 61.35317759 C63.34458372 62.6715845 64.66460049 63.98998021 65.98462833 65.30836484 C78.35068095 77.66017282 90.70138468 90.02723685 103.04686429 102.39960262 C113.63423788 113.00931907 124.23465951 123.60585057 134.84472656 134.19287109 C147.17542681 146.49679977 159.49795737 158.80881687 171.80760491 171.13381076 C173.12076102 172.44855957 174.43392756 173.76329796 175.74710464 175.07802582 C176.39315783 175.72485038 177.03921102 176.37167495 177.70484158 177.03810026 C182.25252237 181.59009356 186.80596974 186.13626862 191.36169052 190.68021393 C196.91458878 196.21907385 202.45845856 201.76678538 207.9910274 207.32595453 C210.81264681 210.16069313 213.6380768 212.99132649 216.4745388 215.81122017 C219.07336705 218.39509729 221.66027395 220.99032927 224.23834421 223.59491333 C225.61045911 224.97521681 226.99480532 226.34332861 228.37961376 227.71089673 C235.1359287 234.5745914 239.57406833 241.02344082 239.5625 250.9375 C239.58441406 252.03964844 239.60632813 253.14179688 239.62890625 254.27734375 C237.91913056 264.39794145 231.617971 271.10531284 224.53778076 278.09713745 C223.56949441 279.0711955 222.602299 280.04633902 221.63609338 281.02246106 C218.99651825 283.68278826 216.34172361 286.32744216 213.68400073 288.96962261 C210.81325698 291.82900907 207.95699372 294.70280039 205.09880066 297.57472229 C199.5049352 303.19077716 193.89768949 308.79328403 188.2854692 314.39099054 C183.72364493 318.9415068 179.16674392 323.49689944 174.61328888 328.05578995 C173.96435494 328.70549005 173.31542101 329.35519015 172.64682241 330.02457813 C171.3284155 331.34458372 170.01001979 332.66460049 168.69163516 333.98462833 C156.33982718 346.35068095 143.97276315 358.70138468 131.60039738 371.04686429 C120.99068093 381.63423788 110.39414943 392.23465951 99.80712891 402.84472656 C87.50320023 415.17542681 75.19118313 427.49795737 62.86618924 439.80760491 C61.55144043 441.12076102 60.23670204 442.43392756 58.92197418 443.74710464 C58.27514962 444.39315783 57.62832505 445.03921102 56.96189974 445.70484158 C52.40990644 450.25252237 47.86373138 454.80596974 43.31978607 459.36169052 C37.78092615 464.91458878 32.23321462 470.45845856 26.67404547 475.9910274 C23.83930687 478.81264681 21.00867351 481.6380768 18.18877983 484.4745388 C15.60490271 487.07336705 13.00967073 489.66027395 10.40508667 492.23834421 C9.02478319 493.61045911 7.65667139 494.99480532 6.28910327 496.37961376 C-0.5745914 503.1359287 -7.02344082 507.57406833 -16.9375 507.5625 C-24.50551644 507.31758037 -30.16659396 505.42646272 -35.83984375 500.35546875 C-42.37265342 493.27958932 -43.59613424 486.84044721 -43.3359375 477.36328125 C-42.07417767 464.7310113 -29.67011102 455.51760988 -21.17308044 447.05282593 C-20.33234594 446.211237 -19.49161143 445.36964807 -18.62540013 444.50255644 C-16.32161228 442.1974191 -14.01562618 439.89450898 -11.7086395 437.59257388 C-9.21001324 435.0983041 -6.71431682 432.60110562 -4.21824646 430.10427856 C0.09671625 425.78879389 4.41349236 421.47513023 8.73153877 417.16273117 C14.97455112 410.92787838 21.21476947 404.69023524 27.45432984 398.45192809 C37.57998167 388.32845981 47.70786026 378.20722233 57.8371582 368.08740234 C67.67134405 358.26240871 77.50446922 348.4363555 87.33618164 338.60888672 C87.94316423 338.00216686 88.55014681 337.39544699 89.17552281 336.77034168 C92.22085488 333.72631474 95.26616623 330.68226707 98.31146729 327.6382091 C123.53776781 302.42225946 148.76769016 277.20993637 174 252 C172.59710811 248.82578981 170.94290178 246.69734828 168.48822308 244.25609398 C167.38960557 243.15612856 167.38960557 243.15612856 166.26879376 242.03394163 C165.4609309 241.23531505 164.65306804 240.43668847 163.82072449 239.61386108 C162.96499747 238.75995305 162.10927045 237.90604501 161.22761232 237.02626097 C158.85101919 234.65663299 156.47002726 232.29158476 154.08713615 229.92830014 C151.51826953 227.3783425 148.95523185 224.82253877 146.3915863 222.26733398 C141.94738336 217.83914554 137.49981423 213.41436168 133.0502224 208.99158859 C126.01403939 201.99732461 118.98764855 194.99326926 111.96272278 187.98770142 C109.55851673 185.59037549 107.15423481 183.19312567 104.74992085 180.79590797 C104.14903562 180.1967944 103.54815039 179.59768083 102.92905652 178.9804123 C96.08855643 172.16040875 89.24573268 165.34273848 82.40209961 158.52587891 C81.77651306 157.90273491 81.15092652 157.27959092 80.5063828 156.63756378 C70.37475579 146.54591889 60.23721523 136.46022952 50.09835728 126.37585025 C39.68511791 116.01808355 29.2815493 105.65066769 18.88602239 95.27512419 C12.47633689 88.8784999 6.0587863 82.48997558 -0.36916723 76.11170812 C-4.77695908 71.73668675 -9.1755797 67.35258275 -13.56717566 62.96130483 C-16.09915339 60.43009203 -18.63499962 57.90310853 -21.18205261 55.38705826 C-23.94830295 52.65428952 -26.69477645 49.90216544 -29.43977356 47.14804077 C-30.24094425 46.36279852 -31.04211495 45.57755627 -31.86756355 44.76851881 C-37.72306791 38.84402175 -42.16449067 32.63953418 -43.6640625 24.3125 C-43.56072307 15.54931602 -42.317614 8.83039476 -36.35546875 2.16015625 C-25.59234756 -7.77690146 -12.10786027 -7.45633411 0 0 Z " fill="#000000" transform="translate(158,5)"/>
</svg>
