<svg width="20" height="20" viewBox="0 0 20 20" fill="none" xmlns="http://www.w3.org/2000/svg">
<path d="M1.66699 4.9974C1.66699 3.42605 1.66699 2.64037 2.15515 2.15222C2.6433 1.66406 3.42898 1.66406 5.00033 1.66406C6.57167 1.66406 7.35735 1.66406 7.8455 2.15222C8.33366 2.64037 8.33366 3.42605 8.33366 4.9974V14.9974C8.33366 16.5687 8.33366 17.3544 7.8455 17.8426C7.35735 18.3307 6.57167 18.3307 5.00033 18.3307C3.42898 18.3307 2.6433 18.3307 2.15515 17.8426C1.66699 17.3544 1.66699 16.5687 1.66699 14.9974V4.9974Z" fill="#101828"/>
<path d="M11.667 4.9974C11.667 3.42605 11.667 2.64037 12.1551 2.15222C12.6433 1.66406 13.429 1.66406 15.0003 1.66406C16.5717 1.66406 17.3573 1.66406 17.8455 2.15222C18.3337 2.64037 18.3337 3.42605 18.3337 4.9974V14.9974C18.3337 16.5687 18.3337 17.3544 17.8455 17.8426C17.3573 18.3307 16.5717 18.3307 15.0003 18.3307C13.429 18.3307 12.6433 18.3307 12.1551 17.8426C11.667 17.3544 11.667 16.5687 11.667 14.9974V4.9974Z" fill="#101828"/>
</svg>
