<svg xmlns="http://www.w3.org/2000/svg" viewBox="0 0 33.6 33.6"><defs><style>.cls-1{fill:#00377b;}</style></defs><title>Asset 29</title><g id="Layer_2" data-name="Layer 2"><g id="Layer_1-2" data-name="Layer 1"><path class="cls-1" d="M33,26.14l-6.72-6.72a2.06,2.06,0,0,0-2.91,0l-1.75,1.75a2.06,2.06,0,0,0-.52,2l-.66.66h0c-.47.47-3.38-.25-6.91-3.78s-4.24-6.44-3.78-6.91h0l.66-.66a2.06,2.06,0,0,0,2-.52l1.75-1.75a2.06,2.06,0,0,0,0-2.91L7.47.6A2.06,2.06,0,0,0,4.56.6L2.81,2.35a2.06,2.06,0,0,0-.52,2L1.7,5C-.16,7-.51,10.3.72,14.19A29.32,29.32,0,0,0,8.05,25.55a29.32,29.32,0,0,0,11.36,7.33,14.22,14.22,0,0,0,4.26.73,7.09,7.09,0,0,0,5.18-1.92l.37-.37a2.07,2.07,0,0,0,.57.08,2,2,0,0,0,1.45-.6L33,29A2.06,2.06,0,0,0,33,26.14ZM6,2.06l6.72,6.72L11,10.53h0l0,0L7.62,7.17,4.26,3.81ZM27.4,30.23h0c-1.48,1.48-4.1,1.72-7.37.69A27.25,27.25,0,0,1,9.51,24.1,27.25,27.25,0,0,1,2.69,13.57c-1-3.27-.79-5.89.69-7.37h0L3.56,6l5.22,5.22-.48.48h0c-2,2,.4,6.44,3.78,9.82C14.6,24.06,17.74,26,20,26a2.6,2.6,0,0,0,1.91-.72h0l.48-.48L27.59,30Zm2.39-.89-6.72-6.72,1.75-1.75,6.72,6.72Z"/></g></g></svg>