<svg xmlns="http://www.w3.org/2000/svg" width="16" height="16" viewBox="0 0 16 16" fill="none">
<g clip-path="url(#clip0_9496_83657)">
<path d="M12.4237 10.4494L13.568 7.01647C14.5676 4.01755 15.0675 2.51809 14.276 1.72657C13.4844 0.935061 11.985 1.43488 8.98606 2.43452L5.55316 3.57882C3.13274 4.38563 1.92253 4.78903 1.57862 5.38059C1.25146 5.94335 1.25146 6.6384 1.57862 7.20116C1.92253 7.79272 3.13274 8.19613 5.55316 9.00293C5.9418 9.13248 6.13612 9.19725 6.29854 9.30599C6.45595 9.41136 6.59116 9.54658 6.69654 9.70399C6.80527 9.86641 6.87005 10.0607 6.99959 10.4494C7.8064 12.8698 8.2098 14.08 8.80136 14.4239C9.36412 14.7511 10.0592 14.7511 10.6219 14.4239C11.2135 14.08 11.6169 12.8698 12.4237 10.4494Z" stroke="#ffffff" stroke-width="1.25"/>
<path d="M10.8956 5.989C11.141 5.74628 11.1432 5.35055 10.9005 5.10513C10.6578 4.8597 10.2621 4.85751 10.0166 5.10023L10.8956 5.989ZM6.75684 9.20312L7.19632 9.64751L10.8956 5.989L10.4561 5.54461L10.0166 5.10023L6.31735 8.75874L6.75684 9.20312Z" fill="#ffffff"/>
</g>
<defs>
<clipPath id="clip0_9496_83657">
<rect width="16" height="16" fill="white"/>
</clipPath>
</defs>
</svg>