<?xml version="1.0" encoding="UTF-8"?>
<svg version="1.1" xmlns="http://www.w3.org/2000/svg" width="512" height="512">
<path d="M0 0 C24.25340957 23.72993114 36.23847163 55.86281362 36.87231445 89.58325195 C36.22156468 120.16849117 26.2454498 147.52940101 6.62231445 171.02075195 C6.10797852 171.65883789 5.59364258 172.29692383 5.0637207 172.9543457 C-6.11080825 186.55153677 -21.5103934 195.89202835 -37.37768555 203.02075195 C-38.4450293 203.50415039 -39.51237305 203.98754883 -40.61206055 204.4855957 C-52.57758567 209.48135429 -66.39297898 212.54131663 -79.37768555 213.02075195 C-80.50432617 213.07231445 -81.6309668 213.12387695 -82.79174805 213.17700195 C-98.63442718 213.55798822 -114.05757275 211.30217911 -129.0300293 206.10668945 C-135.15086974 204.02700724 -135.15086974 204.02700724 -141.33447266 205.12890625 C-142.34775635 205.69520752 -143.36104004 206.26150879 -144.4050293 206.8449707 C-146.08822266 207.77019531 -146.08822266 207.77019531 -147.80541992 208.71411133 C-148.97553791 209.37847959 -150.14545846 210.0431957 -151.31518555 210.70825195 C-153.04671875 211.66634766 -153.04671875 211.66634766 -154.81323242 212.64379883 C-159.38419149 215.17972391 -163.92503472 217.74701488 -168.40112305 220.4465332 C-172.52756835 222.62889207 -175.82691749 222.90978014 -180.37768555 222.02075195 C-183.40984229 219.82243831 -184.19422953 218.57112001 -185.37768555 215.02075195 C-185.88154218 209.14242453 -185.04554317 204.16522512 -183.5300293 198.4934082 C-183.35371979 197.81482758 -183.17741028 197.13624695 -182.99575806 196.43710327 C-182.25619185 193.59962531 -181.51578276 190.76628431 -180.68945312 187.95263672 C-179.32394524 183.24741227 -178.2903777 178.94293765 -178.37768555 174.02075195 C-180.68738399 169.85754907 -183.84900573 167.15435437 -187.37768555 164.02075195 C-189.45230966 161.35599895 -191.20600522 158.5411809 -192.94018555 155.64575195 C-193.39852783 154.88319092 -193.85687012 154.12062988 -194.32910156 153.33496094 C-204.45249337 135.95308838 -210.69218901 116.19819361 -211.37768555 96.02075195 C-211.41764648 94.97274414 -211.45760742 93.92473633 -211.4987793 92.8449707 C-212.12199959 60.47417568 -201.80753698 28.78701256 -179.33886719 5.09228516 C-178.02291355 3.73080162 -176.70046795 2.37560181 -175.37768555 1.02075195 C-174.37995117 -0.06979492 -174.37995117 -0.06979492 -173.36206055 -1.18237305 C-153.03947996 -22.87117754 -121.24093012 -33.48538299 -92.20581055 -34.9128418 C-57.54037018 -35.51418107 -25.21179094 -23.96391749 0 0 Z M-168.37768555 75.02075195 C-172.96189016 81.08329474 -173.34290184 87.63734482 -172.37768555 95.02075195 C-170.61756836 101.24885893 -166.73614664 105.52468283 -161.37768555 109.02075195 C-155.85945332 111.89935735 -150.59216559 113.02419958 -144.40893555 111.55200195 C-138.36397051 109.59901325 -133.54072754 106.35145378 -130.0534668 100.98168945 C-126.80671347 94.53375126 -126.00739521 88.29580523 -128.2253418 81.3762207 C-130.94738639 75.22163174 -134.46131505 71.24376522 -140.37768555 68.02075195 C-150.89824593 64.09783113 -160.90678348 66.52405245 -168.37768555 75.02075195 Z M-42.37768555 74.02075195 C-46.63413745 80.34912753 -48.82001975 86.40711896 -47.37768555 94.02075195 C-44.98650554 101.43560371 -41.14283963 106.19696921 -34.37768555 110.02075195 C-28.17624897 112.80507041 -22.74833458 112.70221662 -16.37768555 110.52075195 C-10.2448927 107.8937477 -6.12463206 103.60844077 -3.21362305 97.63012695 C-1.27698677 91.58492588 -1.32236968 84.47685253 -3.94018555 78.64575195 C-7.81270565 72.13287723 -13.10104158 68.5320755 -20.32299805 66.48950195 C-28.17672466 64.69777725 -37.20141108 67.76733367 -42.37768555 74.02075195 Z M-104.64331055 73.94262695 C-108.9380652 79.08859425 -110.77716241 84.59217332 -110.31518555 91.27075195 C-109.06694417 99.16804147 -105.35587249 103.55587946 -99.44018555 108.70825195 C-94.49167086 111.85730675 -89.16736147 112.87341332 -83.37768555 112.02075195 C-75.55687856 109.60127153 -70.0613081 105.38789794 -66.17456055 98.02856445 C-63.86311128 92.20461876 -63.79429471 86.74323494 -65.81518555 80.83325195 C-68.58489385 74.80059963 -72.72055439 70.70219156 -78.7565918 67.92700195 C-88.61817449 64.41777319 -97.1154225 66.77607753 -104.64331055 73.94262695 Z " fill="#000000" transform="translate(343.377685546875,157.979248046875)"/>
<path d="M0 0 C0.93972656 0.886875 1.87945312 1.77375 2.84765625 2.6875 C21.83752315 21.0630674 43.01189613 51.0383731 46 78 C47.2375 77.938125 48.475 77.87625 49.75 77.8125 C62.27968009 77.89105599 72.49887738 82.76792694 81.6875 91.125 C97.35784077 107.96028217 102.38798455 131.8773398 102.1484375 154.203125 C101.25205066 177.13175682 94.67837688 199.75057922 79 217 C78.22462891 217.94746094 78.22462891 217.94746094 77.43359375 218.9140625 C71.30089026 225.89212612 60.6561961 231.39847709 51.36328125 232.23828125 C41.76341261 232.47182479 33.19799555 230.46748623 24 228 C23.40574219 228.79921875 22.81148438 229.5984375 22.19921875 230.421875 C16.63788364 237.8229734 10.81671696 244.82006423 4.41650391 251.51611328 C3.47330712 252.50417775 2.5354411 253.49735893 1.60302734 254.49560547 C-19.03583588 276.55585823 -48.35395477 294.36559551 -78 301 C-79.32 301 -80.64 301 -82 301 C-81.9071875 302.7325 -81.9071875 302.7325 -81.8125 304.5 C-81.85101955 309.95051599 -82.90624712 314.5545832 -86.51171875 318.765625 C-93.65373279 325.37800653 -101.44092125 325.30868121 -110.7421875 325.30078125 C-111.86513214 325.30506638 -112.98807678 325.3093515 -114.14505005 325.31376648 C-116.51352262 325.31949319 -118.88201278 325.32002231 -121.25048828 325.31567383 C-124.85610248 325.31251655 -128.46089347 325.33598571 -132.06640625 325.36132812 C-134.37499897 325.36360168 -136.68359388 325.36430435 -138.9921875 325.36328125 C-140.59572586 325.37709587 -140.59572586 325.37709587 -142.23165894 325.39118958 C-149.31848797 325.34781943 -156.30344543 324.81155992 -162.12109375 320.38671875 C-162.77271484 319.54560547 -162.77271484 319.54560547 -163.4375 318.6875 C-163.88996094 318.13449219 -164.34242188 317.58148438 -164.80859375 317.01171875 C-169.31436483 309.40361348 -169.00642294 299.95619394 -167.5703125 291.45703125 C-165.94502528 286.27015783 -162.54705976 282.77238207 -158 280 C-152.52090927 277.65398049 -147.43373421 277.72048121 -141.58203125 277.7265625 C-139.50064599 277.70624054 -137.41926584 277.68538923 -135.33789062 277.6640625 C-132.0957407 277.64168775 -128.85379526 277.62507559 -125.61157227 277.61914062 C-111.58988903 277.57597374 -98.56562692 276.67661419 -85 273 C-83.99686768 272.72849121 -82.99373535 272.45698242 -81.96020508 272.17724609 C-79.60690034 271.47988626 -77.30647422 270.71317881 -75 269.875 C-74.18515137 269.58278564 -73.37030273 269.29057129 -72.53076172 268.98950195 C-39.25706789 256.58306697 -11.78886645 232.73055667 5.75 202 C6.0903125 201.40880371 6.430625 200.81760742 6.78125 200.20849609 C7.91281211 198.16570007 8.95537316 196.08859307 10 194 C10.70479492 192.7174231 10.70479492 192.7174231 11.42382812 191.40893555 C17.41917449 179.31583189 18.74989361 166.00927229 20.70062256 152.79602051 C21.19618906 149.51265251 21.73820462 146.2367257 22.26953125 142.95898438 C24.46453645 128.85924967 25.66827132 116.06865829 23 102 C22.81759766 100.98736084 22.63519531 99.97472168 22.44726562 98.93139648 C21.96138886 96.52752572 21.39224954 94.17877838 20.75 91.8125 C20.53311523 90.9877417 20.31623047 90.1629834 20.09277344 89.31323242 C13.49567988 64.98234434 1.75703135 43.67703535 -15.75 25.5234375 C-18 23 -18 23 -19.0625 20.7890625 C-20.29686891 18.43347517 -21.61593752 18.09287892 -24 17 C-25.30156563 15.86772116 -26.56957035 14.69635043 -27.8125 13.5 C-56.6136577 -12.52003118 -96.78685704 -23.86304597 -135 -22 C-168.49505851 -19.42154068 -198.35495111 -6.32294467 -224 15 C-224.7940625 15.65097656 -225.588125 16.30195313 -226.40625 16.97265625 C-231.0943209 20.93046995 -235.12782014 25.24705792 -239 30 C-240.16015625 31.42119141 -240.16015625 31.42119141 -241.34375 32.87109375 C-254.15758431 48.87838365 -263.47182888 66.64119372 -269.3125 86.3125 C-269.54283936 87.06805176 -269.77317871 87.82360352 -270.01049805 88.60205078 C-270.78669173 91.38609373 -271.40973694 94.16998301 -272 97 C-272.14998444 97.70860168 -272.29996887 98.41720337 -272.45449829 99.14727783 C-275.42711552 113.82056641 -274.52330861 126.5797386 -272.0625 141.25 C-271.72991617 143.37914797 -271.40054168 145.50879949 -271.07421875 147.63891602 C-270.40616865 151.97232127 -269.72274483 156.30279805 -269.02392578 160.63134766 C-267.59160917 169.50873896 -266.22954539 178.3962316 -264.90084839 187.28967285 C-264.50992689 189.87192736 -264.10194921 192.45103709 -263.69165039 195.03027344 C-260.85243352 213.36125639 -260.85243352 213.36125639 -264.5625 221.375 C-271.89620618 229.27283743 -284.84473617 231.20399877 -295.1953125 232.35546875 C-307.75464022 232.73117513 -318.49762398 227.46684601 -327.5625 219 C-342.7504557 202.9533613 -351.17142776 179.95716425 -352 158 C-352.0515625 156.99453125 -352.103125 155.9890625 -352.15625 154.953125 C-352.80974619 131.3183461 -346.82831121 108.80829552 -330.44921875 91.2890625 C-322.40112821 83.76724264 -312.05325347 77.79288333 -300.875 77.75 C-299.24908686 77.8130548 -297.62333779 77.88889703 -296 78 C-295.90460938 77.03449219 -295.80921875 76.06898438 -295.7109375 75.07421875 C-291.97940544 49.32148276 -272.5573562 23.24475677 -255 5 C-254.52481934 4.49903809 -254.04963867 3.99807617 -253.56005859 3.48193359 C-221.9666189 -29.70562478 -177.26012162 -49.60779318 -131.39648438 -50.96386719 C-81.45511546 -51.71685441 -36.1058445 -34.54966209 0 0 Z " fill="#000000" transform="translate(381,119)"/>
</svg>
