<svg width="16" height="17" viewBox="0 0 16 17" fill="none" xmlns="http://www.w3.org/2000/svg">
<path fill-rule="evenodd" clip-rule="evenodd" d="M5.73534 3.03267C6.01664 2.70815 6.36449 2.44797 6.75525 2.26979C7.14601 2.0916 7.57053 1.99959 8 2C8.90467 2 9.71534 2.4 10.2647 3.03267C10.6931 3.00207 11.1232 3.06406 11.5255 3.2144C11.9279 3.36475 12.2932 3.59994 12.5967 3.904C12.9006 4.20738 13.1357 4.57258 13.2861 4.97484C13.4364 5.37709 13.4985 5.80698 13.468 6.23533C13.7924 6.5167 14.0525 6.86457 14.2305 7.25533C14.4086 7.64609 14.5005 8.07059 14.5 8.5C14.5004 8.92947 14.4084 9.354 14.2302 9.74476C14.052 10.1355 13.7919 10.4834 13.4673 10.7647C13.4978 11.193 13.4357 11.6229 13.2854 12.0252C13.1351 12.4274 12.8999 12.7926 12.596 13.096C12.2926 13.3999 11.9274 13.6351 11.5252 13.7854C11.1229 13.9357 10.693 13.9978 10.2647 13.9673C9.98336 14.2919 9.63552 14.552 9.24476 14.7302C8.854 14.9084 8.42947 15.0004 8 15C7.57053 15.0004 7.14601 14.9084 6.75525 14.7302C6.36449 14.552 6.01664 14.2919 5.73534 13.9673C5.30692 13.998 4.87692 13.9361 4.47454 13.7859C4.07216 13.6357 3.70682 13.4006 3.40334 13.0967C3.09931 12.7932 2.86415 12.4279 2.7138 12.0255C2.56346 11.6231 2.50145 11.1931 2.532 10.7647C2.20761 10.4833 1.94755 10.1354 1.76949 9.74467C1.59142 9.35392 1.49951 8.92942 1.5 8.5C1.5 7.59534 1.9 6.78467 2.53267 6.23533C2.50217 5.80698 2.5642 5.37708 2.71455 4.97482C2.86489 4.57255 3.10003 4.20735 3.404 3.904C3.70735 3.60003 4.07255 3.36489 4.47482 3.21455C4.87708 3.0642 5.30698 3.00217 5.73534 3.03267ZM10.4067 7.29067C10.4467 7.23737 10.4756 7.17661 10.4918 7.11197C10.508 7.04732 10.5111 6.9801 10.5009 6.91424C10.4907 6.84838 10.4675 6.78522 10.4326 6.72847C10.3976 6.67172 10.3517 6.62252 10.2975 6.58377C10.2433 6.54502 10.1819 6.5175 10.1169 6.50282C10.0519 6.48814 9.98459 6.48661 9.91899 6.49831C9.85338 6.51001 9.79078 6.5347 9.73486 6.57094C9.67893 6.60718 9.63082 6.65423 9.59334 6.70934L7.436 9.72934L6.35334 8.64667C6.25855 8.55835 6.13319 8.51027 6.00365 8.51255C5.87412 8.51484 5.75053 8.56731 5.65892 8.65892C5.56731 8.75053 5.51484 8.87412 5.51255 9.00365C5.51027 9.13319 5.55835 9.25855 5.64667 9.35334L7.14667 10.8533C7.198 10.9046 7.25987 10.9441 7.32799 10.9691C7.39612 10.9941 7.46886 11.0039 7.54118 10.998C7.61349 10.992 7.68364 10.9704 7.74676 10.9346C7.80987 10.8988 7.86444 10.8497 7.90667 10.7907L10.4067 7.29067Z" fill="#FFE1BD"/>
</svg>
