<svg width="20" height="21" viewBox="0 0 20 21" fill="none" xmlns="http://www.w3.org/2000/svg">
<path d="M1.27899 9.40308C1.34039 8.39571 1.37109 7.89203 1.63212 7.40758C1.87061 6.96495 2.32692 6.5356 2.78323 6.32448C3.28268 6.09341 3.85514 6.09341 5.00007 6.09341C5.4268 6.09341 5.64016 6.09341 5.84683 6.05851C6.05115 6.02401 6.25039 5.96424 6.43996 5.88057C6.63171 5.79594 6.80984 5.6785 7.1661 5.4436L7.34855 5.32331C9.46769 3.92607 10.5273 3.22745 11.4167 3.53098C11.5872 3.58917 11.7523 3.67318 11.8997 3.77678C12.6687 4.31716 12.7271 5.57442 12.8439 8.08892C12.8872 9.01998 12.9167 9.81684 12.9167 10.2601C12.9167 10.7033 12.8872 11.5002 12.8439 12.4312C12.7271 14.9457 12.6687 16.203 11.8997 16.7434C11.7523 16.847 11.5872 16.931 11.4167 16.9892C10.5273 17.2927 9.46769 16.5941 7.34854 15.1968L7.1661 15.0766C6.80984 14.8417 6.63171 14.7242 6.43996 14.6396C6.25039 14.5559 6.05115 14.4961 5.84683 14.4616C5.64016 14.4267 5.4268 14.4267 5.00007 14.4267C3.85514 14.4267 3.28268 14.4267 2.78323 14.1957C2.32692 13.9846 1.87061 13.5552 1.63212 13.1126C1.37109 12.6281 1.34039 12.1244 1.27899 11.1171C1.26083 10.8191 1.25 10.5287 1.25 10.2601C1.25 9.99141 1.26083 9.70109 1.27899 9.40308Z" stroke="#101828" stroke-width="1.25"/>
<path d="M16.667 5.25781C16.667 5.25781 17.917 6.75781 17.917 10.2578C17.917 13.7578 16.667 15.2578 16.667 15.2578" stroke="#101828" stroke-width="1.25" stroke-linecap="round"/>
<path d="M15 7.75781C15 7.75781 15.4167 8.50781 15.4167 10.2578C15.4167 12.0078 15 12.7578 15 12.7578" stroke="#101828" stroke-width="1.25" stroke-linecap="round"/>
</svg>
